<?xml version="1.0" encoding="UTF-8" standalone="no"?>
<!DOCTYPE svg PUBLIC "-//W3C//DTD SVG 1.1//EN" "http://www.w3.org/Graphics/SVG/1.1/DTD/svg11.dtd">
<svg xmlns="http://www.w3.org/2000/svg" version="1.1" viewBox="0.00 0.00 484.00 652.00">
<g stroke-width="2.00" fill="none" stroke-linecap="butt">
<path stroke="#ffcd5e" vector-effect="non-scaling-stroke" d="
  M 309.47 23.24
  Q 308.51 25.41 307.93 27.55
  Q 305.79 35.48 303.74 43.70
  C 303.06 46.43 301.97 49.05 301.05 51.72
  Q 301.00 51.87 299.42 57.87
  Q 298.02 63.18 294.69 66.19"
/>
<path stroke="#f7b340" vector-effect="non-scaling-stroke" d="
  M 294.69 66.19
  Q 259.62 54.76 223.51 58.82
  Q 209.15 60.43 199.01 63.19
  Q 185.92 66.76 170.44 73.91
  Q 168.17 74.96 168.72 76.93"
/>
<path stroke="#ffe8a8" vector-effect="non-scaling-stroke" d="
  M 168.72 76.93
  Q 167.98 76.83 166.76 75.95
  C 164.64 74.42 161.26 75.09 160.00 71.94
  Q 157.39 65.41 154.63 58.73
  A 0.80 0.80 0.0 0 0 153.18 58.67
  Q 150.47 63.97 148.36 69.55
  Q 146.91 73.39 143.12 74.89
  Q 138.68 76.64 134.29 78.45
  Q 133.10 78.95 132.45 79.96
  A 1.16 1.16 0.0 0 0 133.05 81.69
  Q 140.06 84.06 146.46 87.71"
/>
<path stroke="#f7b340" vector-effect="non-scaling-stroke" d="
  M 146.46 87.71
  Q 107.06 115.61 87.77 158.69
  Q 83.86 167.43 80.77 177.41
  Q 76.61 190.82 75.00 202.26
  Q 71.44 227.49 75.69 256.11"
/>
<path stroke="#ffcd5e" vector-effect="non-scaling-stroke" d="
  M 75.69 256.11
  Q 75.35 257.97 72.73 258.25
  Q 70.44 258.50 70.31 258.52
  Q 53.98 261.51 37.52 263.67
  Q 35.42 263.94 34.04 263.46
  Q 32.11 262.78 31.04 261.39"
/>
<path stroke="#f3884e" vector-effect="non-scaling-stroke" d="
  M 397.22 377.61
  Q 395.06 377.66 393.73 378.98
  C 364.87 407.69 327.80 428.46 287.75 436.92
  Q 280.92 438.36 273.99 439.48
  C 266.21 440.74 258.41 441.03 250.55 441.40
  Q 240.25 441.89 225.84 441.06
  Q 214.53 440.42 206.00 438.81
  Q 144.37 427.24 99.34 386.89
  Q 94.11 382.20 92.32 381.10"
/>
<path stroke="#f6ab34" vector-effect="non-scaling-stroke" d="
  M 75.69 256.11
  C 77.09 262.67 78.31 269.34 80.23 275.68
  Q 81.62 280.25 83.08 284.74"
/>
<path stroke="#fdb93f" vector-effect="non-scaling-stroke" d="
  M 83.08 284.74
  Q 89.00 301.27 96.94 314.06
  Q 109.78 334.74 128.51 352.12
  Q 142.57 365.17 161.90 375.91
  Q 167.52 379.03 173.63 381.64
  Q 179.76 384.27 185.95 386.69
  Q 188.00 387.49 194.76 389.67
  Q 202.76 392.25 209.95 393.38
  Q 213.99 394.01 218.31 394.74
  C 229.43 396.62 241.16 396.91 252.35 396.34
  Q 257.16 396.10 262.29 395.25
  C 269.11 394.13 275.74 393.33 282.52 391.65
  C 317.52 383.02 348.21 363.65 371.36 336.50
  C 376.58 330.38 382.15 322.53 385.95 316.64
  C 391.85 307.50 396.47 297.08 400.82 286.38
  Q 402.47 282.33 403.87 277.59
  C 408.02 263.50 411.12 248.86 411.27 234.08
  C 411.36 225.04 411.73 215.65 410.59 206.78
  C 405.92 170.40 389.68 137.00 365.19 109.81
  Q 363.35 107.76 355.73 101.21"
/>
<path stroke="#f6ab34" vector-effect="non-scaling-stroke" d="
  M 355.73 101.21
  Q 354.29 100.15 352.92 98.90
  Q 351.31 97.42 350.14 96.59
  Q 344.03 92.21 337.94 87.81
  Q 330.69 82.57 325.38 79.61
  Q 310.58 71.35 294.69 66.19"
/>
<path stroke="#f59e21" vector-effect="non-scaling-stroke" d="
  M 355.73 101.21
  Q 355.90 103.30 357.67 104.11
  Q 359.31 104.86 359.48 106.10
  Q 359.53 106.44 359.88 106.42
  Q 360.77 106.37 361.04 107.31
  A 0.58 0.57 88.1 0 1 360.37 108.03
  Q 359.44 107.84 359.04 106.79
  Q 358.89 106.38 358.46 106.29
  Q 357.25 106.02 356.85 104.91
  A 1.17 1.16 7.3 0 0 356.38 104.31
  L 350.99 100.95
  A 0.54 0.52 54.0 0 0 350.61 100.88
  Q 350.35 100.92 350.14 100.77
  Q 347.08 98.51 344.82 95.08
  Q 344.60 94.74 344.26 94.54
  Q 342.81 93.69 341.54 92.66
  Q 337.67 89.51 333.12 87.57
  Q 330.96 86.65 329.26 85.17
  Q 326.55 82.82 322.82 82.06
  Q 320.41 81.57 318.41 80.36
  Q 313.00 77.10 307.61 74.66
  Q 298.73 70.62 287.88 68.65"
/>
<path stroke="#f1981d" vector-effect="non-scaling-stroke" d="
  M 287.88 68.65
  Q 283.98 67.99 280.32 66.83
  Q 277.89 66.05 275.63 65.88
  Q 273.66 65.73 270.78 65.29
  Q 255.50 62.96 238.12 63.43
  Q 232.40 63.58 216.77 65.67
  C 211.55 66.37 206.51 68.13 201.39 69.12
  C 199.23 69.54 197.30 70.59 195.11 71.10
  Q 192.79 71.63 190.47 72.60
  Q 182.95 75.75 175.19 79.29"
/>
<path stroke="#f7c67e" vector-effect="non-scaling-stroke" d="
  M 175.19 79.29
  L 168.72 76.93"
/>
<path stroke="#face85" vector-effect="non-scaling-stroke" d="
  M 175.19 79.29
  L 175.72 79.82
  A 0.66 0.66 0.0 0 1 175.46 80.92
  L 160.55 85.67
  A 1.53 1.51 -89.1 0 0 159.57 86.63
  L 154.44 101.59
  Q 153.71 103.74 152.82 101.65
  L 149.57 94.05"
/>
<path stroke="#f7c67e" vector-effect="non-scaling-stroke" d="
  M 149.57 94.05
  L 146.46 87.71"
/>
<path stroke="#f59e21" vector-effect="non-scaling-stroke" d="
  M 83.08 284.74
  Q 85.15 287.16 86.31 290.35
  Q 86.36 290.47 86.44 290.57
  Q 86.53 290.68 86.69 290.70
  Q 87.25 290.74 87.06 290.22
  L 86.19 287.74
  Q 86.04 287.31 86.16 286.87
  Q 86.30 286.39 85.91 286.15
  Q 85.58 285.95 85.54 285.57
  Q 85.13 281.71 83.91 278.26
  C 83.06 275.89 82.86 273.37 81.97 270.98
  Q 81.09 268.59 80.77 265.99
  Q 80.56 264.31 80.13 262.54
  Q 79.71 260.78 79.55 259.00"
/>
<path stroke="#fdb93f" vector-effect="non-scaling-stroke" d="
  M 96.29 240.55
  Q 97.78 253.46 98.79 257.99
  C 102.16 273.09 107.77 288.09 116.01 301.20
  Q 120.07 307.66 122.31 310.46
  Q 127.13 316.49 131.00 322.04"
/>
<path stroke="#f59e21" vector-effect="non-scaling-stroke" d="
  M 131.00 322.04
  Q 131.60 326.38 134.66 329.40
  Q 138.39 333.08 138.50 333.21
  Q 143.60 339.22 148.24 343.22
  Q 158.93 352.42 172.22 360.16
  Q 178.01 363.54 185.01 366.69
  Q 192.61 370.11 197.99 371.97
  Q 219.27 379.28 242.57 379.38
  C 251.61 379.42 259.45 379.27 267.89 377.83
  Q 318.13 369.24 352.51 332.94
  Q 356.48 328.74 360.03 324.07
  Q 363.74 319.17 366.84 314.61
  Q 389.19 281.67 392.05 240.82
  Q 392.74 230.87 391.82 224.63
  Q 391.05 219.37 390.48 213.69
  Q 390.31 211.99 389.99 210.38
  C 389.67 208.76 389.93 206.70 389.02 205.37
  Q 388.66 204.85 388.56 205.47
  Q 387.94 209.16 388.59 212.38
  Q 389.08 214.78 389.08 217.48
  Q 389.09 228.00 388.59 238.44"
/>
<path stroke="#fdb93f" vector-effect="non-scaling-stroke" d="
  M 388.59 238.44
  Q 389.19 225.31 388.79 221.75
  C 388.03 214.81 387.99 207.09 386.44 200.40
  Q 381.52 179.07 374.59 163.74
  Q 363.36 138.91 341.33 118.71
  C 337.98 115.63 333.99 112.95 330.38 109.90
  Q 328.34 108.18 325.48 106.83
  Q 323.39 105.85 320.72 103.44
  Q 315.62 98.85 308.26 95.78
  C 305.88 94.80 303.75 93.01 301.38 92.11
  Q 294.72 89.56 280.55 84.88"
/>
<path stroke="#f14e4d" vector-effect="non-scaling-stroke" d="
  M 375.60 570.38
  Q 375.50 565.54 373.91 561.33
  Q 368.99 548.35 363.01 534.88
  C 359.11 526.08 355.97 516.20 351.69 507.10
  Q 350.42 504.41 349.58 501.46
  Q 348.74 498.53 346.68 495.95
  Q 345.19 494.09 344.74 491.94
  C 343.68 486.85 341.95 482.56 338.55 478.44
  Q 338.02 477.80 338.57 477.17
  Q 339.59 476.02 338.77 473.85
  A 0.32 0.32 0.0 0 1 339.30 473.52
  Q 345.66 480.18 351.58 486.72
  C 352.67 487.92 354.17 487.94 355.50 487.16
  Q 364.06 482.13 367.44 473.18
  Q 369.53 467.65 368.23 463.11
  Q 366.44 456.87 360.40 451.68
  Q 357.63 449.31 353.56 449.09
  C 349.63 448.87 344.56 449.41 342.02 452.44
  C 340.18 454.63 337.73 457.40 334.68 457.01
  Q 333.17 456.81 332.31 455.45
  Q 330.04 451.89 328.19 448.59
  A 1.47 1.47 0.0 0 0 326.19 448.03
  C 324.19 449.15 322.28 450.13 320.01 450.64
  C 316.91 451.35 313.87 452.49 310.69 453.19
  Q 303.89 454.68 297.50 456.43
  C 291.53 458.06 285.58 458.91 279.68 460.13
  C 274.69 461.16 269.33 461.45 264.26 462.10
  Q 257.94 462.91 252.68 463.10
  Q 245.24 463.37 237.99 463.16
  A 0.80 0.79 -11.8 0 0 237.25 464.29
  C 238.45 466.83 239.83 469.31 240.65 472.01
  Q 242.63 478.55 244.61 483.55"
/>
<path stroke="#f14e4d" vector-effect="non-scaling-stroke" d="
  M 114.11 570.86
  Q 115.17 567.38 116.14 563.85
  Q 117.17 560.11 118.44 556.94
  Q 136.47 512.08 155.60 464.92
  Q 158.37 458.08 160.91 451.48
  Q 162.13 448.30 159.01 447.31
  Q 148.23 443.90 138.05 438.49
  C 133.38 436.00 128.58 433.97 124.00 431.04
  C 117.88 427.10 111.48 423.46 105.65 419.24
  Q 98.08 413.77 90.70 408.05
  Q 86.60 404.88 84.35 400.62"
/>
<path stroke="#f8a628" vector-effect="non-scaling-stroke" d="
  M 287.88 68.65
  Q 286.04 69.15 285.88 69.89
  Q 284.67 75.28 282.04 80.12
  Q 281.81 80.56 281.81 81.05
  Q 281.82 84.56 280.55 84.88"
/>
<path stroke="#f9b33b" vector-effect="non-scaling-stroke" d="
  M 280.55 84.88
  L 268.07 82.47"
/>
<path stroke="#fabb47" vector-effect="non-scaling-stroke" d="
  M 268.07 82.47
  Q 258.72 80.55 252.25 80.25
  Q 246.58 79.99 237.46 80.13
  Q 229.93 80.24 222.84 81.29
  C 212.09 82.88 202.01 85.02 192.08 88.94
  C 169.18 97.98 149.23 111.03 133.07 129.28
  Q 95.69 171.49 95.52 228.76
  Q 95.51 232.86 95.75 234.94"
/>
<path stroke="#f9b33b" vector-effect="non-scaling-stroke" d="
  M 95.75 234.94
  L 96.29 240.55"
/>
<path stroke="#f8a628" vector-effect="non-scaling-stroke" d="
  M 96.29 240.55
  Q 93.72 242.49 90.74 243.21
  Q 85.27 244.54 80.37 245.23
  A 2.41 2.40 82.9 0 0 78.31 247.88
  L 79.55 259.00"
/>
<path stroke="#f1981d" vector-effect="non-scaling-stroke" d="
  M 79.55 259.00
  Q 77.81 254.70 77.68 250.52
  Q 77.65 249.58 77.99 248.58
  Q 78.35 247.53 78.23 246.40
  Q 77.18 236.37 77.65 227.02
  Q 77.97 220.61 78.47 213.36
  Q 78.96 206.31 80.20 200.05
  Q 85.96 170.90 101.15 145.62
  C 102.69 143.06 104.57 140.71 106.02 138.15
  C 108.50 133.78 111.99 129.89 115.07 125.84
  Q 117.96 122.04 120.62 119.44
  Q 124.65 115.49 128.70 111.11
  C 130.97 108.67 133.61 106.59 136.03 104.21
  C 137.89 102.38 140.25 101.37 142.09 99.45
  Q 144.71 96.71 147.78 94.51
  A 1.01 0.98 -60.6 0 1 148.42 94.32
  Q 148.80 94.33 149.08 94.59
  Q 149.28 94.76 149.46 94.58
  Q 149.59 94.45 149.57 94.05"
/>
<path stroke="#f6ab34" vector-effect="non-scaling-stroke" d="
  M 388.59 238.44
  C 387.97 241.73 388.04 245.12 387.51 248.35
  Q 386.51 254.46 384.96 261.99
  Q 384.29 265.26 383.09 268.65
  C 381.02 274.48 379.34 280.39 376.77 286.08
  C 357.76 328.14 321.79 358.82 277.24 369.73
  C 270.78 371.31 264.04 372.67 257.37 373.21
  Q 240.89 374.56 223.92 373.06
  Q 218.94 372.62 214.18 371.41
  Q 209.02 370.10 204.16 369.03
  Q 199.19 367.94 192.48 365.24
  Q 186.20 362.70 181.08 360.40
  Q 153.41 347.97 131.00 322.04"
/>
<path stroke="#f9b33b" vector-effect="non-scaling-stroke" d="
  M 176.78 193.17
  Q 176.52 193.83 176.93 194.60
  Q 177.17 195.04 177.67 195.08
  Q 183.63 195.56 186.50 195.37
  C 193.79 194.86 200.95 195.56 208.23 195.48
  C 211.15 195.45 213.55 194.36 216.51 194.85
  A 1.97 1.97 0.0 0 1 218.16 196.85
  Q 217.88 206.80 217.20 217.87
  C 217.07 219.91 217.67 221.54 217.96 223.50
  Q 218.31 225.79 218.20 227.97
  Q 217.07 250.11 217.81 271.49
  Q 217.88 273.48 215.89 273.48
  Q 198.65 273.45 183.00 273.35
  Q 180.75 273.34 178.49 273.67
  Q 177.41 273.83 177.18 274.90
  Q 176.70 277.19 176.74 279.50
  Q 177.00 292.97 176.85 305.64
  Q 176.81 308.76 177.10 311.83
  A 0.87 0.86 87.5 0 0 177.96 312.62
  L 306.00 312.57
  A 1.82 1.81 90.0 0 0 307.81 310.75
  L 307.80 274.50
  A 1.09 1.08 89.7 0 0 306.71 273.41
  L 269.07 273.53
  A 1.56 1.56 0.0 0 1 267.51 271.95
  Q 267.55 268.80 267.57 265.99
  Q 267.84 227.91 267.70 187.25
  C 267.68 179.90 266.89 174.07 267.93 166.31
  C 268.26 163.89 267.35 161.22 267.38 158.70
  Q 267.48 149.35 267.52 139.79
  A 1.83 1.83 0.0 0 0 265.62 137.95
  Q 261.03 138.12 256.27 138.22
  C 253.30 138.27 249.95 139.04 247.50 140.50
  Q 236.22 147.23 227.30 151.18"
/>
<path stroke="#ffcd5e" vector-effect="non-scaling-stroke" d="
  M 268.07 82.47
  L 270.68 85.30
  A 0.76 0.75 41.0 0 1 270.75 86.25
  Q 267.62 90.71 265.11 95.42
  Q 254.81 114.76 238.99 134.25
  Q 233.72 140.74 227.92 147.72
  Q 226.68 149.22 227.30 151.18"
/>
<path stroke="#fabb47" vector-effect="non-scaling-stroke" d="
  M 227.30 151.18
  Q 211.65 158.40 194.99 162.82
  C 189.16 164.37 183.48 164.92 177.67 165.60
  A 0.90 0.89 87.1 0 0 176.88 166.48
  L 176.78 193.17"
/>
<path stroke="#ffcd5e" vector-effect="non-scaling-stroke" d="
  M 176.78 193.17
  Q 174.82 196.07 171.12 198.11
  Q 166.71 200.55 165.31 201.54
  Q 159.70 205.47 153.77 208.87
  Q 129.88 222.55 108.66 230.63
  Q 105.47 231.85 102.06 232.85
  Q 98.90 233.79 95.75 234.94"
/>
<path stroke="#f14e4d" vector-effect="non-scaling-stroke" d="
  M 343.38 464.67
  L 353.77 475.10
  A 2.36 2.36 0.0 0 0 357.11 475.11
  L 357.24 474.98
  A 9.52 9.36 -44.9 0 0 357.38 461.63
  L 356.87 461.12
  A 9.52 9.36 -44.9 0 0 343.52 461.21
  L 343.39 461.34
  A 2.36 2.36 0.0 0 0 343.38 464.67"
/>
</g>
<path fill="#ffd569" d="
  M 309.47 23.24
  Q 308.51 25.41 307.93 27.55
  Q 305.79 35.48 303.74 43.70
  C 303.06 46.43 301.97 49.05 301.05 51.72
  Q 301.00 51.87 299.42 57.87
  Q 298.02 63.18 294.69 66.19
  Q 259.62 54.76 223.51 58.82
  Q 209.15 60.43 199.01 63.19
  Q 185.92 66.76 170.44 73.91
  Q 168.17 74.96 168.72 76.93
  Q 167.98 76.83 166.76 75.95
  C 164.64 74.42 161.26 75.09 160.00 71.94
  Q 157.39 65.41 154.63 58.73
  A 0.80 0.80 0.0 0 0 153.18 58.67
  Q 150.47 63.97 148.36 69.55
  Q 146.91 73.39 143.12 74.89
  Q 138.68 76.64 134.29 78.45
  Q 133.10 78.95 132.45 79.96
  A 1.16 1.16 0.0 0 0 133.05 81.69
  Q 140.06 84.06 146.46 87.71
  Q 107.06 115.61 87.77 158.69
  Q 83.86 167.43 80.77 177.41
  Q 76.61 190.82 75.00 202.26
  Q 71.44 227.49 75.69 256.11
  Q 75.35 257.97 72.73 258.25
  Q 70.44 258.50 70.31 258.52
  Q 53.98 261.51 37.52 263.67
  Q 35.42 263.94 34.04 263.46
  Q 32.11 262.78 31.04 261.39
  C 30.95 259.67 30.91 257.97 30.25 256.35
  Q 28.90 253.08 28.88 249.75
  Q 28.70 220.47 29.00 200.70
  Q 29.02 199.13 29.59 197.77
  C 30.54 195.46 31.10 193.31 31.02 190.78
  Q 30.96 189.02 31.11 187.19
  C 31.34 184.35 32.92 182.14 33.23 179.29
  Q 33.54 176.46 34.58 173.82
  C 35.62 171.19 35.53 168.45 36.47 165.74
  Q 38.18 160.87 39.71 156.06
  C 41.06 151.81 43.22 148.08 44.53 143.92
  C 45.53 140.73 47.91 138.58 48.88 135.43
  Q 50.83 129.16 54.65 123.25
  Q 57.10 119.44 59.42 115.46
  Q 64.62 106.55 70.70 98.19
  C 72.81 95.28 75.58 92.78 77.50 90.05
  C 78.92 88.02 80.23 85.94 81.96 84.19
  Q 89.40 76.66 96.89 69.16
  C 100.71 65.33 105.37 62.98 109.24 59.10
  C 112.09 56.24 115.67 54.57 118.65 51.89
  Q 121.82 49.05 125.65 47.22
  C 128.98 45.63 131.68 43.14 134.91 41.55
  Q 139.35 39.36 143.41 36.49
  C 150.41 31.54 158.49 30.05 166.17 26.77
  Q 170.80 24.79 174.95 23.36
  C 179.69 21.74 184.49 19.83 189.36 19.05
  C 192.60 18.54 195.12 16.85 198.59 17.00
  C 202.08 17.16 204.60 15.04 207.85 14.95
  Q 212.36 14.82 216.47 13.30
  C 217.97 12.75 219.98 12.68 221.61 12.66
  Q 241.33 12.34 260.54 12.53
  C 262.53 12.55 264.76 12.53 266.55 13.38
  Q 270.00 15.01 274.39 14.89
  Q 276.45 14.83 278.34 15.84
  C 281.30 17.43 284.98 16.91 288.23 17.12
  C 291.19 17.31 293.14 19.21 296.28 19.24
  Q 297.90 19.26 299.87 19.97
  Q 304.66 21.68 309.47 23.24
  Z"
/>
<path fill="#fec552" d="
  M 309.47 23.24
  C 311.63 23.94 313.71 24.52 315.73 25.55
  Q 319.21 27.34 322.95 28.48
  C 326.53 29.58 329.61 31.57 333.20 32.62
  C 337.19 33.78 340.20 36.81 343.94 38.56
  C 351.97 42.31 358.83 46.00 365.45 51.32
  Q 369.80 54.81 373.48 57.19
  C 377.19 59.59 380.60 61.74 383.82 64.97
  Q 392.52 73.70 400.01 81.29
  Q 402.39 83.69 404.99 87.46
  Q 407.07 90.47 409.63 93.05
  Q 415.31 98.74 419.35 105.89
  Q 422.32 111.15 425.07 115.38
  Q 428.20 120.18 431.03 124.69
  Q 435.38 131.59 438.22 139.86
  C 440.08 145.26 443.18 149.92 444.92 155.37
  C 446.39 159.96 448.46 164.75 449.21 169.41
  Q 449.68 172.33 450.70 174.99
  C 452.14 178.76 451.00 182.70 452.35 186.47
  Q 453.56 189.87 453.98 193.26
  C 454.30 195.84 455.92 198.32 455.94 200.76
  Q 456.21 233.99 455.78 256.24
  Q 455.77 256.76 455.74 257.44
  Q 455.72 258.07 455.46 258.62
  Q 454.24 261.27 453.90 264.08
  C 453.44 267.88 451.78 271.07 451.28 274.94
  C 451.02 276.97 449.69 279.18 449.54 280.75
  Q 449.17 284.74 447.85 288.05
  C 446.87 290.48 447.30 293.13 446.19 295.39
  C 443.72 300.39 442.37 304.92 440.15 309.88
  C 438.94 312.55 438.07 315.16 437.14 317.93
  C 435.90 321.59 432.89 324.55 431.54 328.21
  Q 430.44 331.21 428.70 333.62
  Q 424.23 339.86 420.66 346.48
  C 418.49 350.52 415.40 353.58 412.90 357.29
  C 410.02 361.56 405.94 365.18 402.16 368.92
  Q 399.46 371.59 397.22 377.61
  Q 395.06 377.66 393.73 378.98
  C 364.87 407.69 327.80 428.46 287.75 436.92
  Q 280.92 438.36 273.99 439.48
  C 266.21 440.74 258.41 441.03 250.55 441.40
  Q 240.25 441.89 225.84 441.06
  Q 214.53 440.42 206.00 438.81
  Q 144.37 427.24 99.34 386.89
  Q 94.11 382.20 92.32 381.10
  Q 89.40 377.77 83.82 372.43
  C 80.46 369.21 77.97 365.20 75.17 361.48
  Q 71.93 357.16 68.97 353.39
  Q 65.87 349.43 63.55 345.30
  Q 59.86 338.70 55.04 332.01
  Q 53.45 329.80 52.39 327.20
  C 51.44 324.88 50.85 322.27 49.41 320.20
  Q 45.88 315.14 45.15 312.60
  Q 42.47 303.29 39.14 296.44
  C 37.86 293.83 38.08 291.33 37.22 288.74
  Q 35.71 284.25 34.27 279.83
  Q 33.78 278.32 33.23 274.06
  Q 32.88 271.35 31.32 266.65
  Q 30.89 265.35 31.04 261.39
  Q 32.11 262.78 34.04 263.46
  Q 35.42 263.94 37.52 263.67
  Q 53.98 261.51 70.31 258.52
  Q 70.44 258.50 72.73 258.25
  Q 75.35 257.97 75.69 256.11
  C 77.09 262.67 78.31 269.34 80.23 275.68
  Q 81.62 280.25 83.08 284.74
  Q 89.00 301.27 96.94 314.06
  Q 109.78 334.74 128.51 352.12
  Q 142.57 365.17 161.90 375.91
  Q 167.52 379.03 173.63 381.64
  Q 179.76 384.27 185.95 386.69
  Q 188.00 387.49 194.76 389.67
  Q 202.76 392.25 209.95 393.38
  Q 213.99 394.01 218.31 394.74
  C 229.43 396.62 241.16 396.91 252.35 396.34
  Q 257.16 396.10 262.29 395.25
  C 269.11 394.13 275.74 393.33 282.52 391.65
  C 317.52 383.02 348.21 363.65 371.36 336.50
  C 376.58 330.38 382.15 322.53 385.95 316.64
  C 391.85 307.50 396.47 297.08 400.82 286.38
  Q 402.47 282.33 403.87 277.59
  C 408.02 263.50 411.12 248.86 411.27 234.08
  C 411.36 225.04 411.73 215.65 410.59 206.78
  C 405.92 170.40 389.68 137.00 365.19 109.81
  Q 363.35 107.76 355.73 101.21
  Q 354.29 100.15 352.92 98.90
  Q 351.31 97.42 350.14 96.59
  Q 344.03 92.21 337.94 87.81
  Q 330.69 82.57 325.38 79.61
  Q 310.58 71.35 294.69 66.19
  Q 298.02 63.18 299.42 57.87
  Q 301.00 51.87 301.05 51.72
  C 301.97 49.05 303.06 46.43 303.74 43.70
  Q 305.79 35.48 307.93 27.55
  Q 308.51 25.41 309.47 23.24
  Z"
/>
<path fill="#ee9016" d="
  M 294.69 66.19
  Q 310.58 71.35 325.38 79.61
  Q 330.69 82.57 337.94 87.81
  Q 344.03 92.21 350.14 96.59
  Q 351.31 97.42 352.92 98.90
  Q 354.29 100.15 355.73 101.21
  Q 355.90 103.30 357.67 104.11
  Q 359.31 104.86 359.48 106.10
  Q 359.53 106.44 359.88 106.42
  Q 360.77 106.37 361.04 107.31
  A 0.58 0.57 88.1 0 1 360.37 108.03
  Q 359.44 107.84 359.04 106.79
  Q 358.89 106.38 358.46 106.29
  Q 357.25 106.02 356.85 104.91
  A 1.17 1.16 7.3 0 0 356.38 104.31
  L 350.99 100.95
  A 0.54 0.52 54.0 0 0 350.61 100.88
  Q 350.35 100.92 350.14 100.77
  Q 347.08 98.51 344.82 95.08
  Q 344.60 94.74 344.26 94.54
  Q 342.81 93.69 341.54 92.66
  Q 337.67 89.51 333.12 87.57
  Q 330.96 86.65 329.26 85.17
  Q 326.55 82.82 322.82 82.06
  Q 320.41 81.57 318.41 80.36
  Q 313.00 77.10 307.61 74.66
  Q 298.73 70.62 287.88 68.65
  Q 283.98 67.99 280.32 66.83
  Q 277.89 66.05 275.63 65.88
  Q 273.66 65.73 270.78 65.29
  Q 255.50 62.96 238.12 63.43
  Q 232.40 63.58 216.77 65.67
  C 211.55 66.37 206.51 68.13 201.39 69.12
  C 199.23 69.54 197.30 70.59 195.11 71.10
  Q 192.79 71.63 190.47 72.60
  Q 182.95 75.75 175.19 79.29
  L 168.72 76.93
  Q 168.17 74.96 170.44 73.91
  Q 185.92 66.76 199.01 63.19
  Q 209.15 60.43 223.51 58.82
  Q 259.62 54.76 294.69 66.19
  Z"
/>
<path fill="#fffbe6" d="
  M 168.72 76.93
  L 175.19 79.29
  L 175.72 79.82
  A 0.66 0.66 0.0 0 1 175.46 80.92
  L 160.55 85.67
  A 1.53 1.51 -89.1 0 0 159.57 86.63
  L 154.44 101.59
  Q 153.71 103.74 152.82 101.65
  L 149.57 94.05
  L 146.46 87.71
  Q 140.06 84.06 133.05 81.69
  A 1.16 1.16 0.0 0 1 132.45 79.96
  Q 133.10 78.95 134.29 78.45
  Q 138.68 76.64 143.12 74.89
  Q 146.91 73.39 148.36 69.55
  Q 150.47 63.97 153.18 58.67
  A 0.80 0.80 0.0 0 1 154.63 58.73
  Q 157.39 65.41 160.00 71.94
  C 161.26 75.09 164.64 74.42 166.76 75.95
  Q 167.98 76.83 168.72 76.93
  Z"
/>
<path fill="#f4a024" d="
  M 287.88 68.65
  Q 286.04 69.15 285.88 69.89
  Q 284.67 75.28 282.04 80.12
  Q 281.81 80.56 281.81 81.05
  Q 281.82 84.56 280.55 84.88
  L 268.07 82.47
  Q 258.72 80.55 252.25 80.25
  Q 246.58 79.99 237.46 80.13
  Q 229.93 80.24 222.84 81.29
  C 212.09 82.88 202.01 85.02 192.08 88.94
  C 169.18 97.98 149.23 111.03 133.07 129.28
  Q 95.69 171.49 95.52 228.76
  Q 95.51 232.86 95.75 234.94
  L 96.29 240.55
  Q 93.72 242.49 90.74 243.21
  Q 85.27 244.54 80.37 245.23
  A 2.41 2.40 82.9 0 0 78.31 247.88
  L 79.55 259.00
  Q 77.81 254.70 77.68 250.52
  Q 77.65 249.58 77.99 248.58
  Q 78.35 247.53 78.23 246.40
  Q 77.18 236.37 77.65 227.02
  Q 77.97 220.61 78.47 213.36
  Q 78.96 206.31 80.20 200.05
  Q 85.96 170.90 101.15 145.62
  C 102.69 143.06 104.57 140.71 106.02 138.15
  C 108.50 133.78 111.99 129.89 115.07 125.84
  Q 117.96 122.04 120.62 119.44
  Q 124.65 115.49 128.70 111.11
  C 130.97 108.67 133.61 106.59 136.03 104.21
  C 137.89 102.38 140.25 101.37 142.09 99.45
  Q 144.71 96.71 147.78 94.51
  A 1.01 0.98 -60.6 0 1 148.42 94.32
  Q 148.80 94.33 149.08 94.59
  Q 149.28 94.76 149.46 94.58
  Q 149.59 94.45 149.57 94.05
  L 152.82 101.65
  Q 153.71 103.74 154.44 101.59
  L 159.57 86.63
  A 1.53 1.51 -89.1 0 1 160.55 85.67
  L 175.46 80.92
  A 0.66 0.66 0.0 0 0 175.72 79.82
  L 175.19 79.29
  Q 182.95 75.75 190.47 72.60
  Q 192.79 71.63 195.11 71.10
  C 197.30 70.59 199.23 69.54 201.39 69.12
  C 206.51 68.13 211.55 66.37 216.77 65.67
  Q 232.40 63.58 238.12 63.43
  Q 255.50 62.96 270.78 65.29
  Q 273.66 65.73 275.63 65.88
  Q 277.89 66.05 280.32 66.83
  Q 283.98 67.99 287.88 68.65
  Z"
/>
<path fill="#fcac2b" d="
  M 287.88 68.65
  Q 298.73 70.62 307.61 74.66
  Q 313.00 77.10 318.41 80.36
  Q 320.41 81.57 322.82 82.06
  Q 326.55 82.82 329.26 85.17
  Q 330.96 86.65 333.12 87.57
  Q 337.67 89.51 341.54 92.66
  Q 342.81 93.69 344.26 94.54
  Q 344.60 94.74 344.82 95.08
  Q 347.08 98.51 350.14 100.77
  Q 350.35 100.92 350.61 100.88
  A 0.54 0.52 54.0 0 1 350.99 100.95
  L 356.38 104.31
  A 1.17 1.16 7.3 0 1 356.85 104.91
  Q 357.25 106.02 358.46 106.29
  Q 358.89 106.38 359.04 106.79
  Q 359.44 107.84 360.37 108.03
  A 0.58 0.57 88.1 0 0 361.04 107.31
  Q 360.77 106.37 359.88 106.42
  Q 359.53 106.44 359.48 106.10
  Q 359.31 104.86 357.67 104.11
  Q 355.90 103.30 355.73 101.21
  Q 363.35 107.76 365.19 109.81
  C 389.68 137.00 405.92 170.40 410.59 206.78
  C 411.73 215.65 411.36 225.04 411.27 234.08
  C 411.12 248.86 408.02 263.50 403.87 277.59
  Q 402.47 282.33 400.82 286.38
  C 396.47 297.08 391.85 307.50 385.95 316.64
  C 382.15 322.53 376.58 330.38 371.36 336.50
  C 348.21 363.65 317.52 383.02 282.52 391.65
  C 275.74 393.33 269.11 394.13 262.29 395.25
  Q 257.16 396.10 252.35 396.34
  C 241.16 396.91 229.43 396.62 218.31 394.74
  Q 213.99 394.01 209.95 393.38
  Q 202.76 392.25 194.76 389.67
  Q 188.00 387.49 185.95 386.69
  Q 179.76 384.27 173.63 381.64
  Q 167.52 379.03 161.90 375.91
  Q 142.57 365.17 128.51 352.12
  Q 109.78 334.74 96.94 314.06
  Q 89.00 301.27 83.08 284.74
  Q 85.15 287.16 86.31 290.35
  Q 86.36 290.47 86.44 290.57
  Q 86.53 290.68 86.69 290.70
  Q 87.25 290.74 87.06 290.22
  L 86.19 287.74
  Q 86.04 287.31 86.16 286.87
  Q 86.30 286.39 85.91 286.15
  Q 85.58 285.95 85.54 285.57
  Q 85.13 281.71 83.91 278.26
  C 83.06 275.89 82.86 273.37 81.97 270.98
  Q 81.09 268.59 80.77 265.99
  Q 80.56 264.31 80.13 262.54
  Q 79.71 260.78 79.55 259.00
  L 78.31 247.88
  A 2.41 2.40 82.9 0 1 80.37 245.23
  Q 85.27 244.54 90.74 243.21
  Q 93.72 242.49 96.29 240.55
  Q 97.78 253.46 98.79 257.99
  C 102.16 273.09 107.77 288.09 116.01 301.20
  Q 120.07 307.66 122.31 310.46
  Q 127.13 316.49 131.00 322.04
  Q 131.60 326.38 134.66 329.40
  Q 138.39 333.08 138.50 333.21
  Q 143.60 339.22 148.24 343.22
  Q 158.93 352.42 172.22 360.16
  Q 178.01 363.54 185.01 366.69
  Q 192.61 370.11 197.99 371.97
  Q 219.27 379.28 242.57 379.38
  C 251.61 379.42 259.45 379.27 267.89 377.83
  Q 318.13 369.24 352.51 332.94
  Q 356.48 328.74 360.03 324.07
  Q 363.74 319.17 366.84 314.61
  Q 389.19 281.67 392.05 240.82
  Q 392.74 230.87 391.82 224.63
  Q 391.05 219.37 390.48 213.69
  Q 390.31 211.99 389.99 210.38
  C 389.67 208.76 389.93 206.70 389.02 205.37
  Q 388.66 204.85 388.56 205.47
  Q 387.94 209.16 388.59 212.38
  Q 389.08 214.78 389.08 217.48
  Q 389.09 228.00 388.59 238.44
  Q 389.19 225.31 388.79 221.75
  C 388.03 214.81 387.99 207.09 386.44 200.40
  Q 381.52 179.07 374.59 163.74
  Q 363.36 138.91 341.33 118.71
  C 337.98 115.63 333.99 112.95 330.38 109.90
  Q 328.34 108.18 325.48 106.83
  Q 323.39 105.85 320.72 103.44
  Q 315.62 98.85 308.26 95.78
  C 305.88 94.80 303.75 93.01 301.38 92.11
  Q 294.72 89.56 280.55 84.88
  Q 281.82 84.56 281.81 81.05
  Q 281.81 80.56 282.04 80.12
  Q 284.67 75.28 285.88 69.89
  Q 286.04 69.15 287.88 68.65
  Z"
/>
<path fill="#ffd569" d="
  M 268.07 82.47
  L 270.68 85.30
  A 0.76 0.75 41.0 0 1 270.75 86.25
  Q 267.62 90.71 265.11 95.42
  Q 254.81 114.76 238.99 134.25
  Q 233.72 140.74 227.92 147.72
  Q 226.68 149.22 227.30 151.18
  Q 211.65 158.40 194.99 162.82
  C 189.16 164.37 183.48 164.92 177.67 165.60
  A 0.90 0.89 87.1 0 0 176.88 166.48
  L 176.78 193.17
  Q 174.82 196.07 171.12 198.11
  Q 166.71 200.55 165.31 201.54
  Q 159.70 205.47 153.77 208.87
  Q 129.88 222.55 108.66 230.63
  Q 105.47 231.85 102.06 232.85
  Q 98.90 233.79 95.75 234.94
  Q 95.51 232.86 95.52 228.76
  Q 95.69 171.49 133.07 129.28
  C 149.23 111.03 169.18 97.98 192.08 88.94
  C 202.01 85.02 212.09 82.88 222.84 81.29
  Q 229.93 80.24 237.46 80.13
  Q 246.58 79.99 252.25 80.25
  Q 258.72 80.55 268.07 82.47
  Z"
/>
<path fill="#fec552" d="
  M 268.07 82.47
  L 280.55 84.88
  Q 294.72 89.56 301.38 92.11
  C 303.75 93.01 305.88 94.80 308.26 95.78
  Q 315.62 98.85 320.72 103.44
  Q 323.39 105.85 325.48 106.83
  Q 328.34 108.18 330.38 109.90
  C 333.99 112.95 337.98 115.63 341.33 118.71
  Q 363.36 138.91 374.59 163.74
  Q 381.52 179.07 386.44 200.40
  C 387.99 207.09 388.03 214.81 388.79 221.75
  Q 389.19 225.31 388.59 238.44
  C 387.97 241.73 388.04 245.12 387.51 248.35
  Q 386.51 254.46 384.96 261.99
  Q 384.29 265.26 383.09 268.65
  C 381.02 274.48 379.34 280.39 376.77 286.08
  C 357.76 328.14 321.79 358.82 277.24 369.73
  C 270.78 371.31 264.04 372.67 257.37 373.21
  Q 240.89 374.56 223.92 373.06
  Q 218.94 372.62 214.18 371.41
  Q 209.02 370.10 204.16 369.03
  Q 199.19 367.94 192.48 365.24
  Q 186.20 362.70 181.08 360.40
  Q 153.41 347.97 131.00 322.04
  Q 127.13 316.49 122.31 310.46
  Q 120.07 307.66 116.01 301.20
  C 107.77 288.09 102.16 273.09 98.79 257.99
  Q 97.78 253.46 96.29 240.55
  L 95.75 234.94
  Q 98.90 233.79 102.06 232.85
  Q 105.47 231.85 108.66 230.63
  Q 129.88 222.55 153.77 208.87
  Q 159.70 205.47 165.31 201.54
  Q 166.71 200.55 171.12 198.11
  Q 174.82 196.07 176.78 193.17
  Q 176.52 193.83 176.93 194.60
  Q 177.17 195.04 177.67 195.08
  Q 183.63 195.56 186.50 195.37
  C 193.79 194.86 200.95 195.56 208.23 195.48
  C 211.15 195.45 213.55 194.36 216.51 194.85
  A 1.97 1.97 0.0 0 1 218.16 196.85
  Q 217.88 206.80 217.20 217.87
  C 217.07 219.91 217.67 221.54 217.96 223.50
  Q 218.31 225.79 218.20 227.97
  Q 217.07 250.11 217.81 271.49
  Q 217.88 273.48 215.89 273.48
  Q 198.65 273.45 183.00 273.35
  Q 180.75 273.34 178.49 273.67
  Q 177.41 273.83 177.18 274.90
  Q 176.70 277.19 176.74 279.50
  Q 177.00 292.97 176.85 305.64
  Q 176.81 308.76 177.10 311.83
  A 0.87 0.86 87.5 0 0 177.96 312.62
  L 306.00 312.57
  A 1.82 1.81 90.0 0 0 307.81 310.75
  L 307.80 274.50
  A 1.09 1.08 89.7 0 0 306.71 273.41
  L 269.07 273.53
  A 1.56 1.56 0.0 0 1 267.51 271.95
  Q 267.55 268.80 267.57 265.99
  Q 267.84 227.91 267.70 187.25
  C 267.68 179.90 266.89 174.07 267.93 166.31
  C 268.26 163.89 267.35 161.22 267.38 158.70
  Q 267.48 149.35 267.52 139.79
  A 1.83 1.83 0.0 0 0 265.62 137.95
  Q 261.03 138.12 256.27 138.22
  C 253.30 138.27 249.95 139.04 247.50 140.50
  Q 236.22 147.23 227.30 151.18
  Q 226.68 149.22 227.92 147.72
  Q 233.72 140.74 238.99 134.25
  Q 254.81 114.76 265.11 95.42
  Q 267.62 90.71 270.75 86.25
  A 0.76 0.75 41.0 0 0 270.68 85.30
  L 268.07 82.47
  Z"
/>
<path fill="#ee9016" d="
  M 146.46 87.71
  L 149.57 94.05
  Q 149.59 94.45 149.46 94.58
  Q 149.28 94.76 149.08 94.59
  Q 148.80 94.33 148.42 94.32
  A 1.01 0.98 -60.6 0 0 147.78 94.51
  Q 144.71 96.71 142.09 99.45
  C 140.25 101.37 137.89 102.38 136.03 104.21
  C 133.61 106.59 130.97 108.67 128.70 111.11
  Q 124.65 115.49 120.62 119.44
  Q 117.96 122.04 115.07 125.84
  C 111.99 129.89 108.50 133.78 106.02 138.15
  C 104.57 140.71 102.69 143.06 101.15 145.62
  Q 85.96 170.90 80.20 200.05
  Q 78.96 206.31 78.47 213.36
  Q 77.97 220.61 77.65 227.02
  Q 77.18 236.37 78.23 246.40
  Q 78.35 247.53 77.99 248.58
  Q 77.65 249.58 77.68 250.52
  Q 77.81 254.70 79.55 259.00
  Q 79.71 260.78 80.13 262.54
  Q 80.56 264.31 80.77 265.99
  Q 81.09 268.59 81.97 270.98
  C 82.86 273.37 83.06 275.89 83.91 278.26
  Q 85.13 281.71 85.54 285.57
  Q 85.58 285.95 85.91 286.15
  Q 86.30 286.39 86.16 286.87
  Q 86.04 287.31 86.19 287.74
  L 87.06 290.22
  Q 87.25 290.74 86.69 290.70
  Q 86.53 290.68 86.44 290.57
  Q 86.36 290.47 86.31 290.35
  Q 85.15 287.16 83.08 284.74
  Q 81.62 280.25 80.23 275.68
  C 78.31 269.34 77.09 262.67 75.69 256.11
  Q 71.44 227.49 75.00 202.26
  Q 76.61 190.82 80.77 177.41
  Q 83.86 167.43 87.77 158.69
  Q 107.06 115.61 146.46 87.71
  Z"
/>
<path fill="#f4a024" d="
  M 176.78 193.17
  L 176.88 166.48
  A 0.90 0.89 87.1 0 1 177.67 165.60
  C 183.48 164.92 189.16 164.37 194.99 162.82
  Q 211.65 158.40 227.30 151.18
  Q 236.22 147.23 247.50 140.50
  C 249.95 139.04 253.30 138.27 256.27 138.22
  Q 261.03 138.12 265.62 137.95
  A 1.83 1.83 0.0 0 1 267.52 139.79
  Q 267.48 149.35 267.38 158.70
  C 267.35 161.22 268.26 163.89 267.93 166.31
  C 266.89 174.07 267.68 179.90 267.70 187.25
  Q 267.84 227.91 267.57 265.99
  Q 267.55 268.80 267.51 271.95
  A 1.56 1.56 0.0 0 0 269.07 273.53
  L 306.71 273.41
  A 1.09 1.08 89.7 0 1 307.80 274.50
  L 307.81 310.75
  A 1.82 1.81 90.0 0 1 306.00 312.57
  L 177.96 312.62
  A 0.87 0.86 87.5 0 1 177.10 311.83
  Q 176.81 308.76 176.85 305.64
  Q 177.00 292.97 176.74 279.50
  Q 176.70 277.19 177.18 274.90
  Q 177.41 273.83 178.49 273.67
  Q 180.75 273.34 183.00 273.35
  Q 198.65 273.45 215.89 273.48
  Q 217.88 273.48 217.81 271.49
  Q 217.07 250.11 218.20 227.97
  Q 218.31 225.79 217.96 223.50
  C 217.67 221.54 217.07 219.91 217.20 217.87
  Q 217.88 206.80 218.16 196.85
  A 1.97 1.97 0.0 0 0 216.51 194.85
  C 213.55 194.36 211.15 195.45 208.23 195.48
  C 200.95 195.56 193.79 194.86 186.50 195.37
  Q 183.63 195.56 177.67 195.08
  Q 177.17 195.04 176.93 194.60
  Q 176.52 193.83 176.78 193.17
  Z"
/>
<path fill="#ee9016" d="
  M 131.00 322.04
  Q 153.41 347.97 181.08 360.40
  Q 186.20 362.70 192.48 365.24
  Q 199.19 367.94 204.16 369.03
  Q 209.02 370.10 214.18 371.41
  Q 218.94 372.62 223.92 373.06
  Q 240.89 374.56 257.37 373.21
  C 264.04 372.67 270.78 371.31 277.24 369.73
  C 321.79 358.82 357.76 328.14 376.77 286.08
  C 379.34 280.39 381.02 274.48 383.09 268.65
  Q 384.29 265.26 384.96 261.99
  Q 386.51 254.46 387.51 248.35
  C 388.04 245.12 387.97 241.73 388.59 238.44
  Q 389.09 228.00 389.08 217.48
  Q 389.08 214.78 388.59 212.38
  Q 387.94 209.16 388.56 205.47
  Q 388.66 204.85 389.02 205.37
  C 389.93 206.70 389.67 208.76 389.99 210.38
  Q 390.31 211.99 390.48 213.69
  Q 391.05 219.37 391.82 224.63
  Q 392.74 230.87 392.05 240.82
  Q 389.19 281.67 366.84 314.61
  Q 363.74 319.17 360.03 324.07
  Q 356.48 328.74 352.51 332.94
  Q 318.13 369.24 267.89 377.83
  C 259.45 379.27 251.61 379.42 242.57 379.38
  Q 219.27 379.28 197.99 371.97
  Q 192.61 370.11 185.01 366.69
  Q 178.01 363.54 172.22 360.16
  Q 158.93 352.42 148.24 343.22
  Q 143.60 339.22 138.50 333.21
  Q 138.39 333.08 134.66 329.40
  Q 131.60 326.38 131.00 322.04
  Z"
/>
<path fill="#e84a49" d="
  M 397.22 377.61
  Q 399.65 383.87 401.65 390.14
  C 403.05 394.54 404.67 397.86 406.68 401.71
  Q 407.83 403.93 408.55 406.38
  Q 411.13 415.16 414.94 422.95
  Q 417.15 427.47 418.20 430.69
  C 419.35 434.26 420.29 437.89 422.01 441.25
  Q 424.54 446.22 426.11 450.39
  Q 427.71 454.63 429.42 458.56
  C 431.00 462.19 432.01 466.09 433.89 469.65
  Q 437.62 476.73 439.92 484.83
  C 440.88 488.22 442.56 491.19 443.80 494.44
  Q 447.71 504.69 451.82 514.53
  C 453.17 517.78 454.17 521.16 455.61 524.23
  Q 457.25 527.73 458.47 531.38
  C 459.59 534.74 461.29 537.70 462.38 541.01
  Q 464.14 546.35 466.64 550.96
  C 468.83 554.97 470.09 559.49 471.53 563.91
  C 473.22 569.09 475.81 573.79 478.17 578.68
  Q 479.19 580.79 478.34 582.62
  A 2.55 2.54 -64.6 0 1 474.94 583.84
  Q 472.30 582.58 469.85 582.01
  C 465.54 581.01 460.52 582.08 456.50 581.08
  Q 447.76 578.89 442.39 578.17
  Q 423.58 575.62 404.30 572.94
  Q 401.90 572.61 399.64 572.47
  C 396.77 572.30 394.07 572.40 391.20 571.40
  C 386.68 569.82 381.45 570.02 375.60 570.38
  Q 375.50 565.54 373.91 561.33
  Q 368.99 548.35 363.01 534.88
  C 359.11 526.08 355.97 516.20 351.69 507.10
  Q 350.42 504.41 349.58 501.46
  Q 348.74 498.53 346.68 495.95
  Q 345.19 494.09 344.74 491.94
  C 343.68 486.85 341.95 482.56 338.55 478.44
  Q 338.02 477.80 338.57 477.17
  Q 339.59 476.02 338.77 473.85
  A 0.32 0.32 0.0 0 1 339.30 473.52
  Q 345.66 480.18 351.58 486.72
  C 352.67 487.92 354.17 487.94 355.50 487.16
  Q 364.06 482.13 367.44 473.18
  Q 369.53 467.65 368.23 463.11
  Q 366.44 456.87 360.40 451.68
  Q 357.63 449.31 353.56 449.09
  C 349.63 448.87 344.56 449.41 342.02 452.44
  C 340.18 454.63 337.73 457.40 334.68 457.01
  Q 333.17 456.81 332.31 455.45
  Q 330.04 451.89 328.19 448.59
  A 1.47 1.47 0.0 0 0 326.19 448.03
  C 324.19 449.15 322.28 450.13 320.01 450.64
  C 316.91 451.35 313.87 452.49 310.69 453.19
  Q 303.89 454.68 297.50 456.43
  C 291.53 458.06 285.58 458.91 279.68 460.13
  C 274.69 461.16 269.33 461.45 264.26 462.10
  Q 257.94 462.91 252.68 463.10
  Q 245.24 463.37 237.99 463.16
  A 0.80 0.79 -11.8 0 0 237.25 464.29
  C 238.45 466.83 239.83 469.31 240.65 472.01
  Q 242.63 478.55 244.61 483.55
  Q 240.45 491.78 238.79 496.76
  Q 237.12 501.80 235.53 505.38
  Q 234.29 508.16 233.39 510.79
  C 232.20 514.25 230.37 517.60 229.29 520.78
  C 228.58 522.88 227.98 524.95 226.95 526.95
  Q 225.38 529.98 224.42 533.16
  C 223.23 537.12 221.08 540.57 219.87 544.52
  C 218.65 548.52 216.48 551.98 215.32 555.97
  C 213.79 561.22 210.50 565.87 208.89 570.87
  C 207.51 575.10 205.35 578.82 204.04 583.00
  C 202.91 586.60 200.89 589.76 199.83 593.35
  Q 198.94 596.40 197.58 599.17
  C 195.54 603.30 194.27 607.76 192.87 612.13
  C 191.71 615.76 189.78 618.97 188.64 622.56
  Q 187.49 626.20 185.77 629.65
  C 184.14 632.92 183.51 636.40 181.85 639.66
  Q 179.78 643.76 178.44 648.52
  Q 177.74 651.04 176.33 648.84
  C 175.15 646.99 174.03 644.91 172.45 643.37
  C 168.29 639.34 165.68 634.93 162.22 630.61
  C 159.71 627.48 157.74 623.91 154.79 621.09
  Q 150.76 617.23 147.99 613.09
  C 145.32 609.11 141.71 605.98 139.08 602.01
  Q 136.87 598.68 133.99 595.72
  C 131.32 592.98 129.53 589.56 127.04 586.61
  C 124.05 583.07 122.07 579.44 118.73 575.95
  Q 116.20 573.30 114.11 570.86
  Q 115.17 567.38 116.14 563.85
  Q 117.17 560.11 118.44 556.94
  Q 136.47 512.08 155.60 464.92
  Q 158.37 458.08 160.91 451.48
  Q 162.13 448.30 159.01 447.31
  Q 148.23 443.90 138.05 438.49
  C 133.38 436.00 128.58 433.97 124.00 431.04
  C 117.88 427.10 111.48 423.46 105.65 419.24
  Q 98.08 413.77 90.70 408.05
  Q 86.60 404.88 84.35 400.62
  L 92.32 381.10
  Q 94.11 382.20 99.34 386.89
  Q 144.37 427.24 206.00 438.81
  Q 214.53 440.42 225.84 441.06
  Q 240.25 441.89 250.55 441.40
  C 258.41 441.03 266.21 440.74 273.99 439.48
  Q 280.92 438.36 287.75 436.92
  C 327.80 428.46 364.87 407.69 393.73 378.98
  Q 395.06 377.66 397.22 377.61
  Z"
/>
<path fill="#f95150" d="
  M 84.35 400.62
  Q 86.60 404.88 90.70 408.05
  Q 98.08 413.77 105.65 419.24
  C 111.48 423.46 117.88 427.10 124.00 431.04
  C 128.58 433.97 133.38 436.00 138.05 438.49
  Q 148.23 443.90 159.01 447.31
  Q 162.13 448.30 160.91 451.48
  Q 158.37 458.08 155.60 464.92
  Q 136.47 512.08 118.44 556.94
  Q 117.17 560.11 116.14 563.85
  Q 115.17 567.38 114.11 570.86
  Q 108.75 569.60 102.75 570.36
  Q 100.41 570.66 98.66 571.35
  C 95.24 572.68 91.79 572.53 88.23 572.57
  C 84.52 572.60 81.42 574.49 77.66 574.64
  C 74.07 574.78 70.01 574.37 66.62 575.34
  C 64.30 576.01 62.16 576.84 59.67 576.87
  C 56.43 576.91 52.39 576.81 49.35 578.05
  C 44.97 579.84 40.30 578.56 35.93 580.26
  C 31.72 581.90 28.00 581.29 23.73 581.67
  Q 21.45 581.87 18.79 582.92
  Q 15.41 584.25 11.88 583.97
  A 0.29 0.28 -82.8 0 1 11.62 583.63
  Q 12.96 576.57 16.47 570.11
  C 20.14 563.35 21.30 555.81 24.76 549.04
  C 26.36 545.92 28.00 542.76 28.99 539.37
  Q 30.77 533.22 33.15 527.84
  C 35.12 523.41 36.47 519.02 38.49 514.59
  C 39.84 511.64 40.53 508.34 41.93 505.77
  Q 44.94 500.23 46.86 494.77
  Q 48.15 491.11 49.66 487.89
  C 51.08 484.83 51.83 481.52 53.33 478.46
  Q 54.97 475.11 56.10 471.56
  C 57.22 468.09 59.07 464.94 60.19 461.47
  Q 61.32 457.96 62.95 454.60
  C 64.44 451.51 65.19 448.15 66.67 445.08
  C 68.79 440.69 69.90 436.13 72.16 431.83
  Q 75.09 426.26 77.15 419.69
  Q 78.49 415.40 80.74 410.09
  Q 82.63 405.63 84.35 400.62
  Z"
/>
<path fill="#f95150" d="
  M 375.60 570.38
  Q 374.00 572.87 372.46 575.35
  C 370.12 579.12 366.85 581.39 364.60 584.98
  C 361.62 589.74 357.51 593.11 354.53 597.82
  C 352.76 600.61 350.39 602.83 348.60 605.63
  C 345.70 610.15 341.84 613.32 338.99 617.75
  C 336.32 621.91 332.61 624.84 329.96 629.04
  C 327.39 633.10 323.67 635.85 321.18 639.92
  Q 318.39 644.47 314.06 648.28
  A 0.67 0.67 0.0 0 1 313.07 648.16
  Q 310.19 644.06 308.61 639.19
  C 307.23 634.95 305.58 631.07 303.52 627.17
  Q 302.28 624.84 301.48 622.36
  Q 299.76 617.05 296.88 611.63
  Q 295.05 608.19 293.93 604.34
  Q 291.68 596.65 288.31 590.02
  Q 286.33 586.11 285.00 582.17
  C 283.80 578.59 281.85 575.13 280.80 571.62
  Q 278.23 563.00 274.67 555.98
  Q 272.81 552.29 271.58 548.58
  C 269.90 543.52 266.97 539.03 265.23 533.98
  C 263.87 530.04 262.74 525.88 261.03 522.07
  C 260.17 520.17 259.24 518.39 258.64 516.40
  C 257.34 512.11 255.13 508.36 253.79 504.13
  Q 252.76 500.88 251.12 497.68
  C 248.62 492.75 248.48 488.06 244.61 483.55
  Q 242.63 478.55 240.65 472.01
  C 239.83 469.31 238.45 466.83 237.25 464.29
  A 0.80 0.79 -11.8 0 1 237.99 463.16
  Q 245.24 463.37 252.68 463.10
  Q 257.94 462.91 264.26 462.10
  C 269.33 461.45 274.69 461.16 279.68 460.13
  C 285.58 458.91 291.53 458.06 297.50 456.43
  Q 303.89 454.68 310.69 453.19
  C 313.87 452.49 316.91 451.35 320.01 450.64
  C 322.28 450.13 324.19 449.15 326.19 448.03
  A 1.47 1.47 0.0 0 1 328.19 448.59
  Q 330.04 451.89 332.31 455.45
  Q 333.17 456.81 334.68 457.01
  C 337.73 457.40 340.18 454.63 342.02 452.44
  C 344.56 449.41 349.63 448.87 353.56 449.09
  Q 357.63 449.31 360.40 451.68
  Q 366.44 456.87 368.23 463.11
  Q 369.53 467.65 367.44 473.18
  Q 364.06 482.13 355.50 487.16
  C 354.17 487.94 352.67 487.92 351.58 486.72
  Q 345.66 480.18 339.30 473.52
  A 0.32 0.32 0.0 0 0 338.77 473.85
  Q 339.59 476.02 338.57 477.17
  Q 338.02 477.80 338.55 478.44
  C 341.95 482.56 343.68 486.85 344.74 491.94
  Q 345.19 494.09 346.68 495.95
  Q 348.74 498.53 349.58 501.46
  Q 350.42 504.41 351.69 507.10
  C 355.97 516.20 359.11 526.08 363.01 534.88
  Q 368.99 548.35 373.91 561.33
  Q 375.50 565.54 375.60 570.38
  Z
  M 343.38 464.67
  L 353.77 475.10
  A 2.36 2.36 0.0 0 0 357.11 475.11
  L 357.24 474.98
  A 9.52 9.36 -44.9 0 0 357.38 461.63
  L 356.87 461.12
  A 9.52 9.36 -44.9 0 0 343.52 461.21
  L 343.39 461.34
  A 2.36 2.36 0.0 0 0 343.38 464.67
  Z"
/>
<path fill="#e84a49" d="
  M 343.38 464.67
  A 2.36 2.36 0.0 0 1 343.39 461.34
  L 343.52 461.21
  A 9.52 9.36 -44.9 0 1 356.87 461.12
  L 357.38 461.63
  A 9.52 9.36 -44.9 0 1 357.24 474.98
  L 357.11 475.11
  A 2.36 2.36 0.0 0 1 353.77 475.10
  L 343.38 464.67
  Z"
/>
</svg>
