<?xml version="1.0" encoding="UTF-8" standalone="no"?>
<!DOCTYPE svg PUBLIC "-//W3C//DTD SVG 1.1//EN" "http://www.w3.org/Graphics/SVG/1.1/DTD/svg11.dtd">
<svg xmlns="http://www.w3.org/2000/svg" version="1.1" viewBox="0.00 0.00 477.00 661.00">
<g stroke-width="2.00" fill="none" stroke-linecap="butt">
<path stroke="#b0b0b0" vector-effect="non-scaling-stroke" d="
  M 303.43 25.65
  Q 299.70 42.89 294.18 59.72
  Q 292.48 64.91 291.78 66.25
  Q 290.95 67.84 288.81 67.86"
/>
<path stroke="#a2a2a2" vector-effect="non-scaling-stroke" d="
  M 288.81 67.86
  Q 273.64 62.99 252.74 60.62
  C 239.29 59.10 226.23 59.90 212.67 61.59
  Q 207.59 62.22 202.30 63.62
  Q 197.91 64.77 193.18 65.59
  Q 188.63 66.38 181.75 68.87
  C 174.97 71.32 168.42 74.49 161.79 77.33
  Q 157.94 78.97 154.69 81.19
  C 150.40 84.13 145.80 85.65 141.73 89.06
  C 138.89 91.44 135.70 93.32 132.76 95.70
  Q 123.77 102.97 115.72 110.44
  C 113.08 112.89 110.69 117.00 107.75 119.94
  Q 103.32 124.36 99.96 129.50
  C 97.94 132.60 95.19 135.31 93.56 138.50
  Q 90.59 144.35 87.02 149.84
  Q 84.51 153.71 83.07 157.79
  Q 80.80 164.27 78.07 169.75
  C 76.43 173.03 76.18 176.53 74.90 179.86
  Q 73.59 183.27 72.74 186.86
  C 71.52 192.03 70.21 197.03 69.48 202.26
  Q 68.07 212.28 67.78 216.50
  Q 66.36 237.13 69.89 257.56"
/>
<path stroke="#b0b0b0" vector-effect="non-scaling-stroke" d="
  M 69.89 257.56
  Q 69.57 258.97 68.34 259.84
  Q 67.24 260.61 65.82 260.63
  C 60.45 260.71 55.82 262.81 50.32 263.36
  C 44.43 263.94 39.01 265.26 32.88 265.62
  C 30.52 265.76 28.49 264.83 26.06 264.79"
/>
<path stroke="#939393" vector-effect="non-scaling-stroke" d="
  M 344.10 97.49
  Q 346.07 100.40 348.64 102.36
  Q 349.12 102.73 348.83 103.25
  L 348.68 103.51
  Q 348.49 103.85 348.17 103.62
  Q 343.42 100.14 338.91 97.38
  C 334.61 94.75 330.93 91.23 326.68 88.72
  Q 307.10 77.16 285.31 71.12
  Q 283.99 70.76 282.58 70.81
  Q 281.45 70.85 281.08 71.91
  Q 279.12 77.46 277.35 82.52
  Q 276.86 83.92 275.00 86.93"
/>
<path stroke="#9b9b9b" vector-effect="non-scaling-stroke" d="
  M 275.00 86.93
  L 265.28 85.00"
/>
<path stroke="#a2a2a2" vector-effect="non-scaling-stroke" d="
  M 265.28 85.00
  C 248.33 80.99 229.62 81.16 212.71 83.98
  Q 201.97 85.76 193.18 88.64
  Q 169.27 96.46 148.10 111.64
  Q 147.73 111.91 147.30 112.10
  Q 146.98 112.25 146.72 112.48
  Q 135.36 122.82 125.01 133.32
  C 122.84 135.52 121.12 138.10 119.31 140.61"
/>
<path stroke="#939393" vector-effect="non-scaling-stroke" d="
  M 119.31 140.61
  Q 118.40 140.71 118.42 139.54
  A 0.39 0.39 0.0 0 0 117.99 139.14
  Q 110.64 139.70 105.83 133.56
  A 0.62 0.62 0.0 0 0 105.01 133.42
  C 101.54 135.66 97.89 140.99 102.14 144.34
  Q 104.67 146.34 108.01 147.61
  Q 110.53 148.57 112.31 151.16"
/>
<path stroke="#a2a2a2" vector-effect="non-scaling-stroke" d="
  M 112.31 151.16
  C 110.46 154.17 108.53 156.89 107.00 160.02
  Q 102.59 169.09 99.51 176.68
  Q 94.60 188.83 91.82 203.64
  C 90.40 211.24 90.16 219.79 89.73 227.75
  Q 89.51 231.93 90.26 236.96"
/>
<path stroke="#9b9b9b" vector-effect="non-scaling-stroke" d="
  M 90.26 236.96
  L 90.48 243.22"
/>
<path stroke="#939393" vector-effect="non-scaling-stroke" d="
  M 90.48 243.22
  Q 86.53 245.54 84.50 245.71
  Q 80.17 246.08 75.80 247.11
  Q 72.39 247.92 72.55 251.11
  Q 72.90 258.57 74.22 265.42
  Q 75.38 271.47 78.59 282.93
  Q 80.15 288.49 82.54 294.22
  Q 84.83 299.73 86.88 305.25
  C 87.17 306.04 87.21 306.93 87.42 307.76
  Q 87.54 308.19 86.72 308.29"
/>
<path stroke="#c87979" vector-effect="non-scaling-stroke" d="
  M 392.16 379.29
  Q 388.86 380.94 387.64 382.13
  Q 347.89 420.89 294.98 435.87
  Q 264.28 444.56 230.84 443.56
  Q 221.61 443.29 211.20 442.25
  C 206.73 441.81 202.64 440.89 198.35 440.27
  Q 193.94 439.63 188.74 438.40
  Q 130.62 424.66 87.28 383.22"
/>
<path stroke="#9b9b9b" vector-effect="non-scaling-stroke" d="
  M 69.89 257.56
  C 70.36 260.55 70.73 263.54 71.65 266.43
  Q 72.63 269.53 73.14 272.56
  C 73.65 275.59 74.84 278.29 75.61 281.23
  Q 76.47 284.51 77.66 287.69
  Q 81.61 298.23 86.72 308.29"
/>
<path stroke="#a0a0a0" vector-effect="non-scaling-stroke" d="
  M 86.72 308.29
  Q 88.91 313.46 90.64 316.10
  C 94.84 322.47 99.88 329.30 104.80 335.27
  Q 122.60 356.91 146.68 372.74
  C 149.95 374.90 153.58 376.62 156.99 378.58
  C 162.53 381.76 168.26 383.95 174.00 386.45
  C 180.65 389.35 187.46 391.20 194.25 393.33
  Q 199.33 394.92 205.07 395.75
  Q 220.27 397.98 229.15 398.29
  Q 245.84 398.87 252.88 397.91
  Q 268.71 395.76 273.51 394.79
  Q 286.78 392.11 305.57 384.04
  Q 314.39 380.25 323.50 374.73
  Q 335.80 367.28 343.92 360.58
  C 360.91 346.57 374.36 330.88 384.95 311.67
  Q 386.11 309.55 387.11 307.40
  C 388.79 303.78 390.95 300.31 392.43 296.75
  Q 398.25 282.70 402.15 267.31
  C 403.47 262.11 404.14 256.99 405.18 251.77
  Q 405.89 248.21 405.99 244.91
  Q 406.11 241.19 405.96 237.71
  Q 405.78 233.63 406.35 230.07
  Q 406.79 227.29 406.18 224.33
  C 405.79 222.46 406.39 220.50 406.58 218.61
  C 406.73 217.20 406.11 215.74 405.83 214.36
  Q 405.52 212.84 405.85 211.18
  Q 406.63 207.15 405.69 204.70
  Q 404.69 202.12 403.33 199.60
  C 402.73 198.49 402.88 197.41 402.89 196.20
  Q 402.90 195.01 402.60 193.73
  Q 401.40 188.64 400.46 184.13
  Q 399.59 179.88 397.70 174.75
  Q 393.41 163.09 389.71 155.37
  Q 382.12 139.56 367.98 120.70
  Q 363.51 114.73 356.59 108.41
  Q 348.12 100.66 344.10 97.49"
/>
<path stroke="#9b9b9b" vector-effect="non-scaling-stroke" d="
  M 344.10 97.49
  Q 337.93 92.54 334.35 90.15
  Q 312.97 75.91 288.81 67.86"
/>
<path stroke="#a0a0a0" vector-effect="non-scaling-stroke" d="
  M 90.48 243.22
  Q 90.50 244.52 90.54 246.04
  Q 90.57 247.44 90.82 248.82
  Q 92.75 259.39 94.21 265.49
  Q 96.28 274.10 100.63 283.67"
/>
<path stroke="#cbcabf" vector-effect="non-scaling-stroke" d="
  M 100.63 283.67
  L 88.77 288.97
  A 0.50 0.50 0.0 0 0 88.77 289.88
  L 103.26 296.17
  A 2.09 2.07 89.5 0 1 104.32 297.22
  L 110.19 310.47
  A 0.68 0.68 0.0 0 0 111.33 310.64
  L 112.31 309.51"
/>
<path stroke="#a0a0a0" vector-effect="non-scaling-stroke" d="
  M 112.31 309.51
  Q 112.72 309.15 113.28 309.24
  Q 113.69 309.31 113.95 309.62
  Q 119.32 315.98 124.15 322.59
  Q 126.07 325.21 128.44 327.76
  Q 130.75 330.24 133.09 332.88
  Q 133.65 333.51 134.36 333.97
  Q 135.12 334.46 135.63 335.19
  Q 136.39 336.26 137.42 337.04
  Q 141.67 340.24 145.48 343.98"
/>
<path stroke="#939393" vector-effect="non-scaling-stroke" d="
  M 145.48 343.98
  Q 144.16 344.03 144.25 343.29
  Q 143.52 342.89 142.76 342.43
  Q 141.11 341.44 141.58 343.27
  Q 141.64 343.52 141.61 343.78
  A 0.89 0.87 -66.0 0 0 141.89 344.53
  C 149.99 351.97 158.67 357.82 168.14 363.27
  Q 171.23 365.05 174.33 366.45
  C 178.70 368.42 182.99 370.57 187.52 372.21
  Q 191.18 373.53 194.51 374.59
  Q 204.20 377.69 217.54 379.64
  C 228.39 381.22 239.67 381.05 250.88 380.89
  Q 256.76 380.81 261.37 379.93
  Q 266.71 378.91 272.36 377.99
  Q 274.67 377.62 276.96 376.83
  C 280.66 375.56 284.41 374.69 288.16 373.41
  Q 315.14 364.22 337.27 344.63
  C 342.91 339.63 348.90 334.09 353.24 328.04
  Q 354.86 325.77 356.74 323.40
  Q 368.91 308.00 376.78 288.06
  Q 377.38 286.55 377.75 284.97
  C 378.28 282.78 379.56 281.03 379.95 278.82
  Q 380.27 276.96 381.15 275.24
  C 382.70 272.20 383.09 269.04 383.18 265.66
  Q 383.24 263.45 383.93 261.34
  Q 386.50 253.45 386.11 245.36
  C 386.04 243.92 387.03 242.64 388.12 241.83
  A 0.72 0.72 0.0 0 0 388.32 240.92
  Q 386.29 237.19 386.53 233.44
  Q 386.65 231.46 386.55 229.47
  Q 386.25 223.64 386.27 217.48
  Q 386.29 212.92 385.33 208.63
  Q 384.35 204.22 383.33 199.94
  C 382.76 197.59 381.59 195.63 381.06 193.20
  Q 380.88 192.36 380.04 192.56
  Q 379.27 192.74 379.37 193.47"
/>
<path stroke="#a0a0a0" vector-effect="non-scaling-stroke" d="
  M 379.37 193.47
  Q 375.14 179.43 369.62 165.84
  Q 367.39 160.35 362.20 152.03
  Q 353.14 137.52 343.25 127.27
  Q 314.52 97.52 275.00 86.93"
/>
<path stroke="#b0b0b0" vector-effect="non-scaling-stroke" d="
  M 265.28 85.00
  Q 266.85 86.43 265.96 87.74
  Q 264.28 90.19 260.21 97.96
  Q 255.58 106.79 240.33 128.14
  Q 237.19 132.54 233.79 137.34"
/>
<path stroke="#a2a2a2" vector-effect="non-scaling-stroke" d="
  M 233.79 137.34
  Q 221.70 138.85 212.01 140.95
  Q 196.34 144.34 184.12 155.38
  C 171.68 166.60 166.83 182.52 166.79 198.95"
/>
<path stroke="#b0b0b0" vector-effect="non-scaling-stroke" d="
  M 166.79 198.95
  Q 166.50 200.21 165.95 200.35
  Q 164.60 200.69 163.43 201.46
  Q 139.22 217.43 112.55 228.83
  Q 101.78 233.43 90.26 236.96"
/>
<path stroke="#a8a8a8" vector-effect="non-scaling-stroke" d="
  M 112.31 151.16
  L 119.31 140.61"
/>
<path stroke="#9b9b9b" vector-effect="non-scaling-stroke" d="
  M 379.37 193.47
  Q 381.00 200.12 382.31 206.84
  C 383.13 211.05 383.22 215.40 383.78 219.75
  Q 384.48 225.16 384.13 231.87
  C 384.05 233.48 383.52 234.72 383.20 236.27
  Q 382.86 237.91 383.24 239.67
  Q 384.26 244.52 383.43 248.26
  Q 381.74 255.85 380.44 263.48
  Q 380.04 265.81 378.82 268.18
  Q 377.69 270.37 377.09 272.67
  Q 374.01 284.57 367.35 297.16
  C 359.59 311.81 349.29 325.73 336.94 336.96
  Q 313.24 358.52 283.53 368.54
  Q 277.15 370.68 269.96 372.36
  Q 261.55 374.31 255.50 375.07
  Q 242.71 376.67 224.26 375.73
  Q 217.89 375.41 212.32 374.24
  Q 206.05 372.92 200.57 371.49
  Q 180.27 366.23 161.85 355.38
  Q 153.20 350.29 145.48 343.98"
/>
<path stroke="#d3d2c7" vector-effect="non-scaling-stroke" d="
  M 112.31 309.51
  Q 114.34 303.68 116.37 297.78
  Q 117.36 294.91 120.24 294.03
  Q 126.63 292.08 132.17 290.34
  Q 135.27 289.38 132.23 288.23
  Q 126.05 285.90 120.30 283.66
  Q 117.97 282.75 117.03 280.49
  Q 114.86 275.24 112.87 269.73
  Q 112.32 268.22 111.54 267.30
  Q 110.82 266.44 110.41 267.48
  Q 107.72 274.16 104.85 280.59
  Q 103.84 282.85 100.63 283.67"
/>
<path stroke="#9b9b9b" vector-effect="non-scaling-stroke" d="
  M 166.79 198.95
  C 166.37 200.59 167.13 202.00 168.82 201.98
  Q 190.24 201.76 210.46 202.03
  A 2.12 2.12 0.0 0 0 212.61 199.77
  C 211.96 189.62 215.08 180.38 224.92 175.89
  Q 234.93 171.32 245.47 174.25
  Q 251.39 175.90 254.77 179.80
  C 258.78 184.42 260.38 192.05 257.55 197.88
  Q 254.82 203.52 250.43 207.60
  Q 239.16 218.08 227.36 227.34
  Q 213.17 238.49 198.34 251.07
  C 183.81 263.39 170.10 276.16 166.93 295.76
  C 166.14 300.65 166.56 307.19 166.38 312.70
  A 1.80 1.80 0.0 0 0 167.86 314.54
  C 169.50 314.84 171.26 314.62 172.97 314.62
  Q 240.23 314.84 309.50 314.72
  A 1.47 1.47 0.0 0 0 310.96 313.27
  Q 311.11 297.35 310.99 283.19
  C 310.96 279.72 311.39 276.54 310.81 273.00
  Q 310.64 271.96 309.58 271.96
  Q 282.68 272.01 255.33 271.99
  C 251.13 271.99 243.04 272.31 236.99 271.99
  Q 235.80 271.93 236.03 270.95
  A 0.75 0.73 -11.9 0 1 236.34 270.49
  C 245.03 264.45 253.90 258.98 262.26 252.93
  C 272.42 245.59 282.46 238.59 291.50 229.76
  Q 293.79 227.52 295.62 224.89
  C 298.67 220.48 302.12 216.29 304.30 211.52
  Q 308.65 202.04 309.03 191.19
  C 309.88 166.67 293.38 148.10 270.48 141.57
  Q 254.45 137.00 238.50 137.43
  Q 236.45 137.48 233.79 137.34"
/>
<path stroke="#f14e4d" vector-effect="non-scaling-stroke" d="
  M 370.81 572.19
  Q 371.34 570.68 370.28 567.77
  Q 364.04 550.61 357.93 536.27
  Q 353.29 525.37 348.26 512.15
  C 345.46 504.79 342.06 497.89 339.26 490.14
  C 336.33 482.07 332.86 474.10 329.66 465.81
  Q 328.00 461.55 326.06 457.56
  C 325.02 455.40 324.57 453.04 323.84 450.77
  Q 323.69 450.28 323.25 450.00
  Q 322.09 449.29 320.25 449.98
  Q 310.77 453.52 298.42 457.11
  Q 288.61 459.96 278.86 461.42
  Q 264.18 463.62 249.57 464.80
  Q 241.25 465.47 233.24 465.18
  A 0.95 0.95 0.0 0 0 232.32 466.47
  L 240.05 486.21"
/>
<path stroke="#f14e4d" vector-effect="non-scaling-stroke" d="
  M 108.03 572.33
  Q 110.79 562.30 116.08 550.76
  Q 120.91 540.20 124.84 526.51
  Q 125.55 524.02 127.01 522.15
  Q 130.91 517.16 133.73 510.18
  C 134.78 507.58 136.71 501.62 135.41 499.05
  A 2.25 2.25 0.0 0 1 137.77 495.81
  C 140.19 496.19 141.21 498.46 143.46 499.16
  C 146.00 499.94 149.42 498.94 151.53 497.59
  C 153.56 496.29 154.68 493.99 156.14 492.12
  A 1.50 1.48 -35.6 0 0 156.38 490.72
  Q 154.91 486.48 149.81 487.63
  Q 147.26 488.21 144.72 487.76
  Q 144.38 487.70 144.13 487.47
  Q 142.52 485.95 141.59 483.71
  Q 141.28 482.94 141.87 482.65
  Q 142.29 482.44 142.48 482.01
  Q 143.57 479.47 145.80 478.05
  A 1.56 1.55 59.9 0 1 148.02 478.65
  Q 148.99 480.51 151.02 481.27
  C 153.67 482.25 156.47 483.73 159.32 483.68
  Q 163.48 483.61 168.38 480.66
  Q 172.51 478.16 173.97 474.70
  C 174.93 472.43 176.17 470.20 176.44 467.71
  Q 176.88 463.55 175.23 459.43
  Q 175.01 458.88 174.51 458.58
  Q 171.32 456.64 168.34 454.47
  Q 166.95 453.45 164.97 452.62
  Q 163.31 451.92 161.67 451.19
  Q 159.40 450.17 156.41 449.92
  Q 154.41 449.76 152.52 449.71
  Q 150.44 449.66 149.07 448.80
  Q 147.01 447.51 144.73 446.43
  C 135.32 442.03 125.57 437.64 116.47 432.16
  Q 98.73 421.45 82.72 408.06
  Q 81.21 406.80 80.28 405.24
  Q 79.46 403.87 78.17 403.14"
/>
<path stroke="#f14e4d" vector-effect="non-scaling-stroke" d="
  M 152.80 471.21
  C 156.35 473.67 162.81 476.81 165.97 471.69
  Q 167.31 469.51 166.76 467.29
  Q 164.79 459.36 155.31 456.91
  Q 154.70 456.75 154.24 457.16
  C 150.66 460.37 147.74 467.70 152.80 471.21"
/>
</g>
<path fill="#b7b7b7" d="
  M 303.43 25.65
  Q 299.70 42.89 294.18 59.72
  Q 292.48 64.91 291.78 66.25
  Q 290.95 67.84 288.81 67.86
  Q 273.64 62.99 252.74 60.62
  C 239.29 59.10 226.23 59.90 212.67 61.59
  Q 207.59 62.22 202.30 63.62
  Q 197.91 64.77 193.18 65.59
  Q 188.63 66.38 181.75 68.87
  C 174.97 71.32 168.42 74.49 161.79 77.33
  Q 157.94 78.97 154.69 81.19
  C 150.40 84.13 145.80 85.65 141.73 89.06
  C 138.89 91.44 135.70 93.32 132.76 95.70
  Q 123.77 102.97 115.72 110.44
  C 113.08 112.89 110.69 117.00 107.75 119.94
  Q 103.32 124.36 99.96 129.50
  C 97.94 132.60 95.19 135.31 93.56 138.50
  Q 90.59 144.35 87.02 149.84
  Q 84.51 153.71 83.07 157.79
  Q 80.80 164.27 78.07 169.75
  C 76.43 173.03 76.18 176.53 74.90 179.86
  Q 73.59 183.27 72.74 186.86
  C 71.52 192.03 70.21 197.03 69.48 202.26
  Q 68.07 212.28 67.78 216.50
  Q 66.36 237.13 69.89 257.56
  Q 69.57 258.97 68.34 259.84
  Q 67.24 260.61 65.82 260.63
  C 60.45 260.71 55.82 262.81 50.32 263.36
  C 44.43 263.94 39.01 265.26 32.88 265.62
  C 30.52 265.76 28.49 264.83 26.06 264.79
  C 25.68 260.99 23.96 258.36 23.92 254.25
  Q 23.59 222.09 23.91 202.75
  Q 23.94 200.85 25.14 198.29
  C 26.87 194.59 24.90 189.43 27.02 185.59
  C 29.07 181.89 27.57 178.18 29.24 174.48
  C 30.71 171.23 30.15 168.18 31.55 165.10
  C 32.66 162.66 32.98 160.03 34.21 157.68
  C 36.59 153.18 37.70 148.39 39.98 143.82
  Q 45.40 133.01 50.63 122.71
  C 51.97 120.06 54.07 117.79 55.43 115.12
  Q 60.50 105.20 67.15 97.99
  C 70.11 94.78 72.20 90.85 75.04 87.98
  Q 86.40 76.52 98.14 64.88
  Q 99.21 63.83 100.40 63.09
  C 104.65 60.48 108.15 57.05 112.28 54.35
  Q 121.05 48.63 129.87 42.63
  Q 132.66 40.72 144.43 35.11
  Q 148.06 33.38 151.73 32.14
  C 155.09 31.01 158.08 29.28 161.49 28.15
  Q 169.79 25.43 178.70 22.38
  C 181.93 21.28 185.01 21.36 188.01 20.05
  C 192.17 18.24 196.58 19.95 200.52 18.24
  C 201.97 17.61 203.33 16.96 204.97 16.90
  C 208.42 16.78 211.46 16.84 214.88 15.65
  Q 218.05 14.54 222.77 14.51
  Q 239.57 14.40 255.00 14.61
  C 258.33 14.66 261.04 16.31 264.40 16.61
  C 267.43 16.89 270.43 16.62 273.28 17.84
  Q 276.48 19.21 280.19 19.11
  C 283.28 19.02 285.84 20.90 289.05 21.26
  Q 291.31 21.52 293.86 22.41
  Q 298.28 23.96 303.43 25.65
  Z"
/>
<path fill="#a8a8a8" d="
  M 303.43 25.65
  Q 307.18 25.80 308.17 26.30
  C 311.26 27.85 314.35 29.40 317.77 30.42
  Q 320.25 31.16 322.70 32.39
  Q 331.24 36.70 339.94 40.96
  Q 345.10 43.48 350.00 46.80
  C 354.57 49.88 358.97 52.69 363.35 56.07
  Q 370.34 61.46 377.47 66.62
  C 383.06 70.67 387.45 75.72 392.29 80.45
  C 394.64 82.74 396.35 85.35 398.17 88.06
  C 400.98 92.21 405.09 95.01 407.91 99.28
  Q 413.94 108.38 419.88 117.25
  C 422.17 120.67 423.73 124.41 426.11 127.71
  Q 430.23 133.43 432.38 139.72
  Q 434.49 145.89 437.53 151.57
  Q 438.93 154.17 439.56 157.25
  Q 440.80 163.34 443.08 169.22
  C 444.20 172.10 444.03 175.37 445.23 178.07
  C 446.67 181.29 446.35 184.52 447.73 187.74
  Q 448.93 190.54 448.74 193.57
  Q 448.47 197.84 449.96 201.25
  Q 450.93 203.46 450.94 205.59
  Q 451.07 227.88 451.01 250.68
  C 451.00 252.54 450.96 254.75 450.24 256.48
  Q 448.62 260.37 448.65 264.75
  C 448.66 266.66 447.77 268.40 447.13 270.16
  C 445.99 273.27 447.04 276.52 445.60 279.56
  C 444.18 282.55 444.34 285.63 443.25 288.77
  C 441.39 294.19 439.83 299.72 437.48 304.94
  Q 434.55 311.47 432.58 318.55
  Q 431.69 321.75 428.79 325.69
  C 425.35 330.38 423.69 335.76 420.45 340.49
  C 416.66 346.02 413.21 351.93 408.90 357.05
  C 406.40 360.03 404.66 363.26 401.91 366.23
  Q 396.04 372.54 392.16 379.29
  Q 388.86 380.94 387.64 382.13
  Q 347.89 420.89 294.98 435.87
  Q 264.28 444.56 230.84 443.56
  Q 221.61 443.29 211.20 442.25
  C 206.73 441.81 202.64 440.89 198.35 440.27
  Q 193.94 439.63 188.74 438.40
  Q 130.62 424.66 87.28 383.22
  Q 86.30 382.06 85.22 380.76
  Q 84.17 379.48 82.95 378.42
  Q 76.18 372.50 72.48 366.57
  C 70.52 363.44 67.60 361.38 65.61 358.42
  C 61.47 352.27 56.97 346.15 53.53 339.62
  C 51.64 336.04 49.08 332.98 47.28 329.34
  C 44.48 323.67 41.13 317.95 39.24 311.91
  C 38.13 308.36 36.15 305.08 34.99 301.45
  Q 33.41 296.49 31.62 291.42
  Q 30.68 288.76 30.37 285.97
  C 30.09 283.39 28.73 281.31 28.39 278.70
  Q 27.91 275.08 26.38 271.27
  Q 25.73 269.63 26.06 264.79
  C 28.49 264.83 30.52 265.76 32.88 265.62
  C 39.01 265.26 44.43 263.94 50.32 263.36
  C 55.82 262.81 60.45 260.71 65.82 260.63
  Q 67.24 260.61 68.34 259.84
  Q 69.57 258.97 69.89 257.56
  C 70.36 260.55 70.73 263.54 71.65 266.43
  Q 72.63 269.53 73.14 272.56
  C 73.65 275.59 74.84 278.29 75.61 281.23
  Q 76.47 284.51 77.66 287.69
  Q 81.61 298.23 86.72 308.29
  Q 88.91 313.46 90.64 316.10
  C 94.84 322.47 99.88 329.30 104.80 335.27
  Q 122.60 356.91 146.68 372.74
  C 149.95 374.90 153.58 376.62 156.99 378.58
  C 162.53 381.76 168.26 383.95 174.00 386.45
  C 180.65 389.35 187.46 391.20 194.25 393.33
  Q 199.33 394.92 205.07 395.75
  Q 220.27 397.98 229.15 398.29
  Q 245.84 398.87 252.88 397.91
  Q 268.71 395.76 273.51 394.79
  Q 286.78 392.11 305.57 384.04
  Q 314.39 380.25 323.50 374.73
  Q 335.80 367.28 343.92 360.58
  C 360.91 346.57 374.36 330.88 384.95 311.67
  Q 386.11 309.55 387.11 307.40
  C 388.79 303.78 390.95 300.31 392.43 296.75
  Q 398.25 282.70 402.15 267.31
  C 403.47 262.11 404.14 256.99 405.18 251.77
  Q 405.89 248.21 405.99 244.91
  Q 406.11 241.19 405.96 237.71
  Q 405.78 233.63 406.35 230.07
  Q 406.79 227.29 406.18 224.33
  C 405.79 222.46 406.39 220.50 406.58 218.61
  C 406.73 217.20 406.11 215.74 405.83 214.36
  Q 405.52 212.84 405.85 211.18
  Q 406.63 207.15 405.69 204.70
  Q 404.69 202.12 403.33 199.60
  C 402.73 198.49 402.88 197.41 402.89 196.20
  Q 402.90 195.01 402.60 193.73
  Q 401.40 188.64 400.46 184.13
  Q 399.59 179.88 397.70 174.75
  Q 393.41 163.09 389.71 155.37
  Q 382.12 139.56 367.98 120.70
  Q 363.51 114.73 356.59 108.41
  Q 348.12 100.66 344.10 97.49
  Q 337.93 92.54 334.35 90.15
  Q 312.97 75.91 288.81 67.86
  Q 290.95 67.84 291.78 66.25
  Q 292.48 64.91 294.18 59.72
  Q 299.70 42.89 303.43 25.65
  Z"
/>
<path fill="#8d8d8d" d="
  M 288.81 67.86
  Q 312.97 75.91 334.35 90.15
  Q 337.93 92.54 344.10 97.49
  Q 346.07 100.40 348.64 102.36
  Q 349.12 102.73 348.83 103.25
  L 348.68 103.51
  Q 348.49 103.85 348.17 103.62
  Q 343.42 100.14 338.91 97.38
  C 334.61 94.75 330.93 91.23 326.68 88.72
  Q 307.10 77.16 285.31 71.12
  Q 283.99 70.76 282.58 70.81
  Q 281.45 70.85 281.08 71.91
  Q 279.12 77.46 277.35 82.52
  Q 276.86 83.92 275.00 86.93
  L 265.28 85.00
  C 248.33 80.99 229.62 81.16 212.71 83.98
  Q 201.97 85.76 193.18 88.64
  Q 169.27 96.46 148.10 111.64
  Q 147.73 111.91 147.30 112.10
  Q 146.98 112.25 146.72 112.48
  Q 135.36 122.82 125.01 133.32
  C 122.84 135.52 121.12 138.10 119.31 140.61
  Q 118.40 140.71 118.42 139.54
  A 0.39 0.39 0.0 0 0 117.99 139.14
  Q 110.64 139.70 105.83 133.56
  A 0.62 0.62 0.0 0 0 105.01 133.42
  C 101.54 135.66 97.89 140.99 102.14 144.34
  Q 104.67 146.34 108.01 147.61
  Q 110.53 148.57 112.31 151.16
  C 110.46 154.17 108.53 156.89 107.00 160.02
  Q 102.59 169.09 99.51 176.68
  Q 94.60 188.83 91.82 203.64
  C 90.40 211.24 90.16 219.79 89.73 227.75
  Q 89.51 231.93 90.26 236.96
  L 90.48 243.22
  Q 86.53 245.54 84.50 245.71
  Q 80.17 246.08 75.80 247.11
  Q 72.39 247.92 72.55 251.11
  Q 72.90 258.57 74.22 265.42
  Q 75.38 271.47 78.59 282.93
  Q 80.15 288.49 82.54 294.22
  Q 84.83 299.73 86.88 305.25
  C 87.17 306.04 87.21 306.93 87.42 307.76
  Q 87.54 308.19 86.72 308.29
  Q 81.61 298.23 77.66 287.69
  Q 76.47 284.51 75.61 281.23
  C 74.84 278.29 73.65 275.59 73.14 272.56
  Q 72.63 269.53 71.65 266.43
  C 70.73 263.54 70.36 260.55 69.89 257.56
  Q 66.36 237.13 67.78 216.50
  Q 68.07 212.28 69.48 202.26
  C 70.21 197.03 71.52 192.03 72.74 186.86
  Q 73.59 183.27 74.90 179.86
  C 76.18 176.53 76.43 173.03 78.07 169.75
  Q 80.80 164.27 83.07 157.79
  Q 84.51 153.71 87.02 149.84
  Q 90.59 144.35 93.56 138.50
  C 95.19 135.31 97.94 132.60 99.96 129.50
  Q 103.32 124.36 107.75 119.94
  C 110.69 117.00 113.08 112.89 115.72 110.44
  Q 123.77 102.97 132.76 95.70
  C 135.70 93.32 138.89 91.44 141.73 89.06
  C 145.80 85.65 150.40 84.13 154.69 81.19
  Q 157.94 78.97 161.79 77.33
  C 168.42 74.49 174.97 71.32 181.75 68.87
  Q 188.63 66.38 193.18 65.59
  Q 197.91 64.77 202.30 63.62
  Q 207.59 62.22 212.67 61.59
  C 226.23 59.90 239.29 59.10 252.74 60.62
  Q 273.64 62.99 288.81 67.86
  Z"
/>
<path fill="#989898" d="
  M 344.10 97.49
  Q 348.12 100.66 356.59 108.41
  Q 363.51 114.73 367.98 120.70
  Q 382.12 139.56 389.71 155.37
  Q 393.41 163.09 397.70 174.75
  Q 399.59 179.88 400.46 184.13
  Q 401.40 188.64 402.60 193.73
  Q 402.90 195.01 402.89 196.20
  C 402.88 197.41 402.73 198.49 403.33 199.60
  Q 404.69 202.12 405.69 204.70
  Q 406.63 207.15 405.85 211.18
  Q 405.52 212.84 405.83 214.36
  C 406.11 215.74 406.73 217.20 406.58 218.61
  C 406.39 220.50 405.79 222.46 406.18 224.33
  Q 406.79 227.29 406.35 230.07
  Q 405.78 233.63 405.96 237.71
  Q 406.11 241.19 405.99 244.91
  Q 405.89 248.21 405.18 251.77
  C 404.14 256.99 403.47 262.11 402.15 267.31
  Q 398.25 282.70 392.43 296.75
  C 390.95 300.31 388.79 303.78 387.11 307.40
  Q 386.11 309.55 384.95 311.67
  C 374.36 330.88 360.91 346.57 343.92 360.58
  Q 335.80 367.28 323.50 374.73
  Q 314.39 380.25 305.57 384.04
  Q 286.78 392.11 273.51 394.79
  Q 268.71 395.76 252.88 397.91
  Q 245.84 398.87 229.15 398.29
  Q 220.27 397.98 205.07 395.75
  Q 199.33 394.92 194.25 393.33
  C 187.46 391.20 180.65 389.35 174.00 386.45
  C 168.26 383.95 162.53 381.76 156.99 378.58
  C 153.58 376.62 149.95 374.90 146.68 372.74
  Q 122.60 356.91 104.80 335.27
  C 99.88 329.30 94.84 322.47 90.64 316.10
  Q 88.91 313.46 86.72 308.29
  Q 87.54 308.19 87.42 307.76
  C 87.21 306.93 87.17 306.04 86.88 305.25
  Q 84.83 299.73 82.54 294.22
  Q 80.15 288.49 78.59 282.93
  Q 75.38 271.47 74.22 265.42
  Q 72.90 258.57 72.55 251.11
  Q 72.39 247.92 75.80 247.11
  Q 80.17 246.08 84.50 245.71
  Q 86.53 245.54 90.48 243.22
  Q 90.50 244.52 90.54 246.04
  Q 90.57 247.44 90.82 248.82
  Q 92.75 259.39 94.21 265.49
  Q 96.28 274.10 100.63 283.67
  L 88.77 288.97
  A 0.50 0.50 0.0 0 0 88.77 289.88
  L 103.26 296.17
  A 2.09 2.07 89.5 0 1 104.32 297.22
  L 110.19 310.47
  A 0.68 0.68 0.0 0 0 111.33 310.64
  L 112.31 309.51
  Q 112.72 309.15 113.28 309.24
  Q 113.69 309.31 113.95 309.62
  Q 119.32 315.98 124.15 322.59
  Q 126.07 325.21 128.44 327.76
  Q 130.75 330.24 133.09 332.88
  Q 133.65 333.51 134.36 333.97
  Q 135.12 334.46 135.63 335.19
  Q 136.39 336.26 137.42 337.04
  Q 141.67 340.24 145.48 343.98
  Q 144.16 344.03 144.25 343.29
  Q 143.52 342.89 142.76 342.43
  Q 141.11 341.44 141.58 343.27
  Q 141.64 343.52 141.61 343.78
  A 0.89 0.87 -66.0 0 0 141.89 344.53
  C 149.99 351.97 158.67 357.82 168.14 363.27
  Q 171.23 365.05 174.33 366.45
  C 178.70 368.42 182.99 370.57 187.52 372.21
  Q 191.18 373.53 194.51 374.59
  Q 204.20 377.69 217.54 379.64
  C 228.39 381.22 239.67 381.05 250.88 380.89
  Q 256.76 380.81 261.37 379.93
  Q 266.71 378.91 272.36 377.99
  Q 274.67 377.62 276.96 376.83
  C 280.66 375.56 284.41 374.69 288.16 373.41
  Q 315.14 364.22 337.27 344.63
  C 342.91 339.63 348.90 334.09 353.24 328.04
  Q 354.86 325.77 356.74 323.40
  Q 368.91 308.00 376.78 288.06
  Q 377.38 286.55 377.75 284.97
  C 378.28 282.78 379.56 281.03 379.95 278.82
  Q 380.27 276.96 381.15 275.24
  C 382.70 272.20 383.09 269.04 383.18 265.66
  Q 383.24 263.45 383.93 261.34
  Q 386.50 253.45 386.11 245.36
  C 386.04 243.92 387.03 242.64 388.12 241.83
  A 0.72 0.72 0.0 0 0 388.32 240.92
  Q 386.29 237.19 386.53 233.44
  Q 386.65 231.46 386.55 229.47
  Q 386.25 223.64 386.27 217.48
  Q 386.29 212.92 385.33 208.63
  Q 384.35 204.22 383.33 199.94
  C 382.76 197.59 381.59 195.63 381.06 193.20
  Q 380.88 192.36 380.04 192.56
  Q 379.27 192.74 379.37 193.47
  Q 375.14 179.43 369.62 165.84
  Q 367.39 160.35 362.20 152.03
  Q 353.14 137.52 343.25 127.27
  Q 314.52 97.52 275.00 86.93
  Q 276.86 83.92 277.35 82.52
  Q 279.12 77.46 281.08 71.91
  Q 281.45 70.85 282.58 70.81
  Q 283.99 70.76 285.31 71.12
  Q 307.10 77.16 326.68 88.72
  C 330.93 91.23 334.61 94.75 338.91 97.38
  Q 343.42 100.14 348.17 103.62
  Q 348.49 103.85 348.68 103.51
  L 348.83 103.25
  Q 349.12 102.73 348.64 102.36
  Q 346.07 100.40 344.10 97.49
  Z"
/>
<path fill="#b7b7b7" d="
  M 265.28 85.00
  Q 266.85 86.43 265.96 87.74
  Q 264.28 90.19 260.21 97.96
  Q 255.58 106.79 240.33 128.14
  Q 237.19 132.54 233.79 137.34
  Q 221.70 138.85 212.01 140.95
  Q 196.34 144.34 184.12 155.38
  C 171.68 166.60 166.83 182.52 166.79 198.95
  Q 166.50 200.21 165.95 200.35
  Q 164.60 200.69 163.43 201.46
  Q 139.22 217.43 112.55 228.83
  Q 101.78 233.43 90.26 236.96
  Q 89.51 231.93 89.73 227.75
  C 90.16 219.79 90.40 211.24 91.82 203.64
  Q 94.60 188.83 99.51 176.68
  Q 102.59 169.09 107.00 160.02
  C 108.53 156.89 110.46 154.17 112.31 151.16
  L 119.31 140.61
  C 121.12 138.10 122.84 135.52 125.01 133.32
  Q 135.36 122.82 146.72 112.48
  Q 146.98 112.25 147.30 112.10
  Q 147.73 111.91 148.10 111.64
  Q 169.27 96.46 193.18 88.64
  Q 201.97 85.76 212.71 83.98
  C 229.62 81.16 248.33 80.99 265.28 85.00
  Z"
/>
<path fill="#a8a8a8" d="
  M 265.28 85.00
  L 275.00 86.93
  Q 314.52 97.52 343.25 127.27
  Q 353.14 137.52 362.20 152.03
  Q 367.39 160.35 369.62 165.84
  Q 375.14 179.43 379.37 193.47
  Q 381.00 200.12 382.31 206.84
  C 383.13 211.05 383.22 215.40 383.78 219.75
  Q 384.48 225.16 384.13 231.87
  C 384.05 233.48 383.52 234.72 383.20 236.27
  Q 382.86 237.91 383.24 239.67
  Q 384.26 244.52 383.43 248.26
  Q 381.74 255.85 380.44 263.48
  Q 380.04 265.81 378.82 268.18
  Q 377.69 270.37 377.09 272.67
  Q 374.01 284.57 367.35 297.16
  C 359.59 311.81 349.29 325.73 336.94 336.96
  Q 313.24 358.52 283.53 368.54
  Q 277.15 370.68 269.96 372.36
  Q 261.55 374.31 255.50 375.07
  Q 242.71 376.67 224.26 375.73
  Q 217.89 375.41 212.32 374.24
  Q 206.05 372.92 200.57 371.49
  Q 180.27 366.23 161.85 355.38
  Q 153.20 350.29 145.48 343.98
  Q 141.67 340.24 137.42 337.04
  Q 136.39 336.26 135.63 335.19
  Q 135.12 334.46 134.36 333.97
  Q 133.65 333.51 133.09 332.88
  Q 130.75 330.24 128.44 327.76
  Q 126.07 325.21 124.15 322.59
  Q 119.32 315.98 113.95 309.62
  Q 113.69 309.31 113.28 309.24
  Q 112.72 309.15 112.31 309.51
  Q 114.34 303.68 116.37 297.78
  Q 117.36 294.91 120.24 294.03
  Q 126.63 292.08 132.17 290.34
  Q 135.27 289.38 132.23 288.23
  Q 126.05 285.90 120.30 283.66
  Q 117.97 282.75 117.03 280.49
  Q 114.86 275.24 112.87 269.73
  Q 112.32 268.22 111.54 267.30
  Q 110.82 266.44 110.41 267.48
  Q 107.72 274.16 104.85 280.59
  Q 103.84 282.85 100.63 283.67
  Q 96.28 274.10 94.21 265.49
  Q 92.75 259.39 90.82 248.82
  Q 90.57 247.44 90.54 246.04
  Q 90.50 244.52 90.48 243.22
  L 90.26 236.96
  Q 101.78 233.43 112.55 228.83
  Q 139.22 217.43 163.43 201.46
  Q 164.60 200.69 165.95 200.35
  Q 166.50 200.21 166.79 198.95
  C 166.37 200.59 167.13 202.00 168.82 201.98
  Q 190.24 201.76 210.46 202.03
  A 2.12 2.12 0.0 0 0 212.61 199.77
  C 211.96 189.62 215.08 180.38 224.92 175.89
  Q 234.93 171.32 245.47 174.25
  Q 251.39 175.90 254.77 179.80
  C 258.78 184.42 260.38 192.05 257.55 197.88
  Q 254.82 203.52 250.43 207.60
  Q 239.16 218.08 227.36 227.34
  Q 213.17 238.49 198.34 251.07
  C 183.81 263.39 170.10 276.16 166.93 295.76
  C 166.14 300.65 166.56 307.19 166.38 312.70
  A 1.80 1.80 0.0 0 0 167.86 314.54
  C 169.50 314.84 171.26 314.62 172.97 314.62
  Q 240.23 314.84 309.50 314.72
  A 1.47 1.47 0.0 0 0 310.96 313.27
  Q 311.11 297.35 310.99 283.19
  C 310.96 279.72 311.39 276.54 310.81 273.00
  Q 310.64 271.96 309.58 271.96
  Q 282.68 272.01 255.33 271.99
  C 251.13 271.99 243.04 272.31 236.99 271.99
  Q 235.80 271.93 236.03 270.95
  A 0.75 0.73 -11.9 0 1 236.34 270.49
  C 245.03 264.45 253.90 258.98 262.26 252.93
  C 272.42 245.59 282.46 238.59 291.50 229.76
  Q 293.79 227.52 295.62 224.89
  C 298.67 220.48 302.12 216.29 304.30 211.52
  Q 308.65 202.04 309.03 191.19
  C 309.88 166.67 293.38 148.10 270.48 141.57
  Q 254.45 137.00 238.50 137.43
  Q 236.45 137.48 233.79 137.34
  Q 237.19 132.54 240.33 128.14
  Q 255.58 106.79 260.21 97.96
  Q 264.28 90.19 265.96 87.74
  Q 266.85 86.43 265.28 85.00
  Z"
/>
<path fill="#989898" d="
  M 119.31 140.61
  L 112.31 151.16
  Q 110.53 148.57 108.01 147.61
  Q 104.67 146.34 102.14 144.34
  C 97.89 140.99 101.54 135.66 105.01 133.42
  A 0.62 0.62 0.0 0 1 105.83 133.56
  Q 110.64 139.70 117.99 139.14
  A 0.39 0.39 0.0 0 1 118.42 139.54
  Q 118.40 140.71 119.31 140.61
  Z"
/>
<path fill="#8d8d8d" d="
  M 233.79 137.34
  Q 236.45 137.48 238.50 137.43
  Q 254.45 137.00 270.48 141.57
  C 293.38 148.10 309.88 166.67 309.03 191.19
  Q 308.65 202.04 304.30 211.52
  C 302.12 216.29 298.67 220.48 295.62 224.89
  Q 293.79 227.52 291.50 229.76
  C 282.46 238.59 272.42 245.59 262.26 252.93
  C 253.90 258.98 245.03 264.45 236.34 270.49
  A 0.75 0.73 -11.9 0 0 236.03 270.95
  Q 235.80 271.93 236.99 271.99
  C 243.04 272.31 251.13 271.99 255.33 271.99
  Q 282.68 272.01 309.58 271.96
  Q 310.64 271.96 310.81 273.00
  C 311.39 276.54 310.96 279.72 310.99 283.19
  Q 311.11 297.35 310.96 313.27
  A 1.47 1.47 0.0 0 1 309.50 314.72
  Q 240.23 314.84 172.97 314.62
  C 171.26 314.62 169.50 314.84 167.86 314.54
  A 1.80 1.80 0.0 0 1 166.38 312.70
  C 166.56 307.19 166.14 300.65 166.93 295.76
  C 170.10 276.16 183.81 263.39 198.34 251.07
  Q 213.17 238.49 227.36 227.34
  Q 239.16 218.08 250.43 207.60
  Q 254.82 203.52 257.55 197.88
  C 260.38 192.05 258.78 184.42 254.77 179.80
  Q 251.39 175.90 245.47 174.25
  Q 234.93 171.32 224.92 175.89
  C 215.08 180.38 211.96 189.62 212.61 199.77
  A 2.12 2.12 0.0 0 1 210.46 202.03
  Q 190.24 201.76 168.82 201.98
  C 167.13 202.00 166.37 200.59 166.79 198.95
  C 166.83 182.52 171.68 166.60 184.12 155.38
  Q 196.34 144.34 212.01 140.95
  Q 221.70 138.85 233.79 137.34
  Z"
/>
<path fill="#8d8d8d" d="
  M 145.48 343.98
  Q 153.20 350.29 161.85 355.38
  Q 180.27 366.23 200.57 371.49
  Q 206.05 372.92 212.32 374.24
  Q 217.89 375.41 224.26 375.73
  Q 242.71 376.67 255.50 375.07
  Q 261.55 374.31 269.96 372.36
  Q 277.15 370.68 283.53 368.54
  Q 313.24 358.52 336.94 336.96
  C 349.29 325.73 359.59 311.81 367.35 297.16
  Q 374.01 284.57 377.09 272.67
  Q 377.69 270.37 378.82 268.18
  Q 380.04 265.81 380.44 263.48
  Q 381.74 255.85 383.43 248.26
  Q 384.26 244.52 383.24 239.67
  Q 382.86 237.91 383.20 236.27
  C 383.52 234.72 384.05 233.48 384.13 231.87
  Q 384.48 225.16 383.78 219.75
  C 383.22 215.40 383.13 211.05 382.31 206.84
  Q 381.00 200.12 379.37 193.47
  Q 379.27 192.74 380.04 192.56
  Q 380.88 192.36 381.06 193.20
  C 381.59 195.63 382.76 197.59 383.33 199.94
  Q 384.35 204.22 385.33 208.63
  Q 386.29 212.92 386.27 217.48
  Q 386.25 223.64 386.55 229.47
  Q 386.65 231.46 386.53 233.44
  Q 386.29 237.19 388.32 240.92
  A 0.72 0.72 0.0 0 1 388.12 241.83
  C 387.03 242.64 386.04 243.92 386.11 245.36
  Q 386.50 253.45 383.93 261.34
  Q 383.24 263.45 383.18 265.66
  C 383.09 269.04 382.70 272.20 381.15 275.24
  Q 380.27 276.96 379.95 278.82
  C 379.56 281.03 378.28 282.78 377.75 284.97
  Q 377.38 286.55 376.78 288.06
  Q 368.91 308.00 356.74 323.40
  Q 354.86 325.77 353.24 328.04
  C 348.90 334.09 342.91 339.63 337.27 344.63
  Q 315.14 364.22 288.16 373.41
  C 284.41 374.69 280.66 375.56 276.96 376.83
  Q 274.67 377.62 272.36 377.99
  Q 266.71 378.91 261.37 379.93
  Q 256.76 380.81 250.88 380.89
  C 239.67 381.05 228.39 381.22 217.54 379.64
  Q 204.20 377.69 194.51 374.59
  Q 191.18 373.53 187.52 372.21
  C 182.99 370.57 178.70 368.42 174.33 366.45
  Q 171.23 365.05 168.14 363.27
  C 158.67 357.82 149.99 351.97 141.89 344.53
  A 0.89 0.87 -66.0 0 1 141.61 343.78
  Q 141.64 343.52 141.58 343.27
  Q 141.11 341.44 142.76 342.43
  Q 143.52 342.89 144.25 343.29
  Q 144.16 344.03 145.48 343.98
  Z"
/>
<path fill="#fefbe6" d="
  M 112.31 309.51
  L 111.33 310.64
  A 0.68 0.68 0.0 0 1 110.19 310.47
  L 104.32 297.22
  A 2.09 2.07 89.5 0 0 103.26 296.17
  L 88.77 289.88
  A 0.50 0.50 0.0 0 1 88.77 288.97
  L 100.63 283.67
  Q 103.84 282.85 104.85 280.59
  Q 107.72 274.16 110.41 267.48
  Q 110.82 266.44 111.54 267.30
  Q 112.32 268.22 112.87 269.73
  Q 114.86 275.24 117.03 280.49
  Q 117.97 282.75 120.30 283.66
  Q 126.05 285.90 132.23 288.23
  Q 135.27 289.38 132.17 290.34
  Q 126.63 292.08 120.24 294.03
  Q 117.36 294.91 116.37 297.78
  Q 114.34 303.68 112.31 309.51
  Z"
/>
<path fill="#e84a49" d="
  M 392.16 379.29
  Q 395.81 391.59 401.04 402.49
  Q 403.27 407.15 404.48 411.28
  Q 406.68 418.77 410.06 425.15
  C 411.90 428.63 412.86 432.44 414.47 435.97
  C 416.68 440.81 418.21 445.94 420.54 450.91
  C 421.76 453.51 422.40 456.44 423.73 459.20
  Q 425.50 462.88 426.60 466.34
  C 428.12 471.09 431.11 475.51 432.75 480.35
  Q 434.17 484.56 435.49 488.65
  C 436.56 492.00 438.43 494.99 439.46 498.34
  C 440.78 502.65 442.97 506.50 444.39 510.78
  Q 445.20 513.23 446.36 515.63
  C 448.14 519.29 449.13 523.12 450.83 526.82
  Q 452.39 530.21 453.44 533.44
  C 454.48 536.63 456.16 539.54 457.21 542.68
  Q 459.01 548.08 461.53 552.81
  Q 463.46 556.45 464.68 560.32
  C 465.83 564.01 467.76 567.39 469.05 571.15
  Q 470.75 576.08 473.47 581.73
  C 474.87 584.64 472.12 586.79 469.37 585.58
  C 466.14 584.17 463.05 583.32 459.49 583.51
  Q 454.29 583.78 450.66 582.82
  C 445.65 581.50 440.50 581.21 435.44 580.19
  C 429.99 579.09 424.48 578.89 419.04 577.75
  C 414.09 576.71 409.27 576.67 404.24 575.73
  C 400.83 575.09 397.40 574.40 393.89 574.42
  Q 389.72 574.44 386.33 573.43
  Q 383.08 572.45 379.37 572.29
  Q 375.35 572.10 370.81 572.19
  Q 371.34 570.68 370.28 567.77
  Q 364.04 550.61 357.93 536.27
  Q 353.29 525.37 348.26 512.15
  C 345.46 504.79 342.06 497.89 339.26 490.14
  C 336.33 482.07 332.86 474.10 329.66 465.81
  Q 328.00 461.55 326.06 457.56
  C 325.02 455.40 324.57 453.04 323.84 450.77
  Q 323.69 450.28 323.25 450.00
  Q 322.09 449.29 320.25 449.98
  Q 310.77 453.52 298.42 457.11
  Q 288.61 459.96 278.86 461.42
  Q 264.18 463.62 249.57 464.80
  Q 241.25 465.47 233.24 465.18
  A 0.95 0.95 0.0 0 0 232.32 466.47
  L 240.05 486.21
  Q 239.79 486.02 239.13 486.48
  Q 238.78 486.74 238.60 487.13
  Q 235.40 494.29 233.13 500.81
  Q 231.84 504.53 230.16 508.06
  C 228.63 511.28 227.94 514.71 226.33 517.87
  Q 224.76 520.96 223.79 524.21
  C 222.72 527.81 220.71 530.96 219.59 534.53
  Q 218.39 538.35 216.74 541.66
  C 215.14 544.86 214.46 548.32 212.87 551.54
  C 210.78 555.77 209.86 560.21 207.62 564.33
  Q 205.10 568.96 203.63 573.39
  Q 202.46 576.89 200.80 580.32
  C 199.30 583.41 198.69 586.68 197.12 589.76
  C 195.24 593.48 194.29 597.34 192.56 601.15
  Q 190.06 606.65 188.13 613.28
  Q 187.38 615.86 185.85 618.05
  C 183.41 621.52 182.69 625.53 180.79 629.28
  C 179.07 632.68 178.42 636.37 176.62 639.76
  C 174.76 643.28 174.49 647.37 171.79 650.33
  Q 171.06 651.14 170.24 650.40
  Q 167.34 647.79 165.53 644.51
  C 163.49 640.84 160.25 638.36 157.78 634.98
  Q 153.52 629.17 149.42 623.61
  C 145.91 618.84 141.59 615.44 138.48 610.61
  C 135.93 606.65 132.42 603.74 129.76 599.79
  Q 127.75 596.80 125.40 593.97
  C 123.31 591.45 121.76 588.47 119.44 586.10
  Q 114.99 581.56 111.79 576.21
  Q 110.14 573.46 108.03 572.33
  Q 110.79 562.30 116.08 550.76
  Q 120.91 540.20 124.84 526.51
  Q 125.55 524.02 127.01 522.15
  Q 130.91 517.16 133.73 510.18
  C 134.78 507.58 136.71 501.62 135.41 499.05
  A 2.25 2.25 0.0 0 1 137.77 495.81
  C 140.19 496.19 141.21 498.46 143.46 499.16
  C 146.00 499.94 149.42 498.94 151.53 497.59
  C 153.56 496.29 154.68 493.99 156.14 492.12
  A 1.50 1.48 -35.6 0 0 156.38 490.72
  Q 154.91 486.48 149.81 487.63
  Q 147.26 488.21 144.72 487.76
  Q 144.38 487.70 144.13 487.47
  Q 142.52 485.95 141.59 483.71
  Q 141.28 482.94 141.87 482.65
  Q 142.29 482.44 142.48 482.01
  Q 143.57 479.47 145.80 478.05
  A 1.56 1.55 59.9 0 1 148.02 478.65
  Q 148.99 480.51 151.02 481.27
  C 153.67 482.25 156.47 483.73 159.32 483.68
  Q 163.48 483.61 168.38 480.66
  Q 172.51 478.16 173.97 474.70
  C 174.93 472.43 176.17 470.20 176.44 467.71
  Q 176.88 463.55 175.23 459.43
  Q 175.01 458.88 174.51 458.58
  Q 171.32 456.64 168.34 454.47
  Q 166.95 453.45 164.97 452.62
  Q 163.31 451.92 161.67 451.19
  Q 159.40 450.17 156.41 449.92
  Q 154.41 449.76 152.52 449.71
  Q 150.44 449.66 149.07 448.80
  Q 147.01 447.51 144.73 446.43
  C 135.32 442.03 125.57 437.64 116.47 432.16
  Q 98.73 421.45 82.72 408.06
  Q 81.21 406.80 80.28 405.24
  Q 79.46 403.87 78.17 403.14
  Q 81.06 397.15 82.70 392.01
  Q 84.20 387.34 87.28 383.22
  Q 130.62 424.66 188.74 438.40
  Q 193.94 439.63 198.35 440.27
  C 202.64 440.89 206.73 441.81 211.20 442.25
  Q 221.61 443.29 230.84 443.56
  Q 264.28 444.56 294.98 435.87
  Q 347.89 420.89 387.64 382.13
  Q 388.86 380.94 392.16 379.29
  Z"
/>
<path fill="#f95150" d="
  M 78.17 403.14
  Q 79.46 403.87 80.28 405.24
  Q 81.21 406.80 82.72 408.06
  Q 98.73 421.45 116.47 432.16
  C 125.57 437.64 135.32 442.03 144.73 446.43
  Q 147.01 447.51 149.07 448.80
  Q 150.44 449.66 152.52 449.71
  Q 154.41 449.76 156.41 449.92
  Q 159.40 450.17 161.67 451.19
  Q 163.31 451.92 164.97 452.62
  Q 166.95 453.45 168.34 454.47
  Q 171.32 456.64 174.51 458.58
  Q 175.01 458.88 175.23 459.43
  Q 176.88 463.55 176.44 467.71
  C 176.17 470.20 174.93 472.43 173.97 474.70
  Q 172.51 478.16 168.38 480.66
  Q 163.48 483.61 159.32 483.68
  C 156.47 483.73 153.67 482.25 151.02 481.27
  Q 148.99 480.51 148.02 478.65
  A 1.56 1.55 59.9 0 0 145.80 478.05
  Q 143.57 479.47 142.48 482.01
  Q 142.29 482.44 141.87 482.65
  Q 141.28 482.94 141.59 483.71
  Q 142.52 485.95 144.13 487.47
  Q 144.38 487.70 144.72 487.76
  Q 147.26 488.21 149.81 487.63
  Q 154.91 486.48 156.38 490.72
  A 1.50 1.48 -35.6 0 1 156.14 492.12
  C 154.68 493.99 153.56 496.29 151.53 497.59
  C 149.42 498.94 146.00 499.94 143.46 499.16
  C 141.21 498.46 140.19 496.19 137.77 495.81
  A 2.25 2.25 0.0 0 0 135.41 499.05
  C 136.71 501.62 134.78 507.58 133.73 510.18
  Q 130.91 517.16 127.01 522.15
  Q 125.55 524.02 124.84 526.51
  Q 120.91 540.20 116.08 550.76
  Q 110.79 562.30 108.03 572.33
  Q 102.77 571.93 97.98 572.27
  C 95.07 572.48 92.86 574.00 90.13 574.22
  C 86.07 574.56 80.97 573.93 77.02 575.12
  C 75.10 575.70 73.26 576.51 71.23 576.58
  Q 67.48 576.71 63.85 576.93
  C 60.46 577.13 57.81 579.07 54.24 578.92
  Q 47.99 578.65 43.49 580.31
  C 39.29 581.86 34.94 580.70 30.66 582.34
  C 28.34 583.22 25.97 583.64 23.50 583.49
  Q 18.16 583.17 13.27 585.08
  Q 10.09 586.32 7.14 585.86
  A 1.78 1.77 -70.9 0 1 5.87 583.23
  Q 8.68 578.23 10.21 573.55
  Q 11.33 570.14 12.90 566.84
  C 14.41 563.66 15.22 560.28 16.74 557.08
  C 18.78 552.75 20.02 548.22 22.11 543.87
  C 23.53 540.89 24.22 537.70 25.67 534.77
  C 27.54 530.98 28.48 527.00 30.28 523.27
  C 32.30 519.08 33.53 514.58 35.48 510.45
  C 37.03 507.18 37.85 503.69 39.50 500.37
  Q 42.30 494.72 45.31 487.04
  Q 48.24 479.54 50.35 473.32
  Q 51.74 469.26 53.14 466.29
  C 54.61 463.20 56.21 460.33 57.28 457.10
  Q 58.39 453.75 59.85 450.56
  C 61.66 446.60 62.94 442.42 64.30 438.23
  C 65.62 434.18 67.67 430.58 68.99 426.53
  C 70.13 423.03 71.89 419.87 73.13 416.35
  Q 74.18 413.38 75.77 409.82
  Q 77.22 406.60 78.17 403.14
  Z
  M 152.80 471.21
  C 156.35 473.67 162.81 476.81 165.97 471.69
  Q 167.31 469.51 166.76 467.29
  Q 164.79 459.36 155.31 456.91
  Q 154.70 456.75 154.24 457.16
  C 150.66 460.37 147.74 467.70 152.80 471.21
  Z"
/>
<path fill="#f95150" d="
  M 370.81 572.19
  Q 368.11 576.93 364.61 581.04
  Q 359.75 586.73 358.25 588.80
  Q 354.78 593.60 351.03 598.54
  Q 349.06 601.12 346.93 603.43
  C 343.95 606.65 341.90 610.53 338.85 613.64
  Q 336.43 616.11 334.36 619.22
  C 331.42 623.65 327.52 626.96 324.65 631.42
  Q 322.58 634.65 319.62 637.47
  C 317.65 639.35 316.25 641.71 314.78 643.98
  C 313.19 646.43 310.99 648.44 308.91 650.47
  Q 308.52 650.85 308.21 650.40
  Q 304.86 645.50 303.16 639.99
  C 301.32 634.05 298.12 629.07 296.05 623.29
  C 293.95 617.44 290.84 611.89 288.64 606.02
  Q 285.83 598.54 282.71 591.15
  Q 281.10 587.32 279.86 583.76
  C 278.67 580.36 276.83 577.26 275.83 573.83
  Q 273.11 564.58 269.03 556.71
  C 267.18 553.14 266.33 549.38 264.61 545.77
  Q 263.10 542.61 261.99 539.21
  C 261.02 536.24 259.54 533.52 258.41 530.54
  Q 254.44 520.10 250.33 510.14
  Q 249.14 507.28 248.27 504.73
  C 247.19 501.56 245.18 498.67 244.34 495.46
  C 243.50 492.30 242.49 488.48 240.05 486.21
  L 232.32 466.47
  A 0.95 0.95 0.0 0 1 233.24 465.18
  Q 241.25 465.47 249.57 464.80
  Q 264.18 463.62 278.86 461.42
  Q 288.61 459.96 298.42 457.11
  Q 310.77 453.52 320.25 449.98
  Q 322.09 449.29 323.25 450.00
  Q 323.69 450.28 323.84 450.77
  C 324.57 453.04 325.02 455.40 326.06 457.56
  Q 328.00 461.55 329.66 465.81
  C 332.86 474.10 336.33 482.07 339.26 490.14
  C 342.06 497.89 345.46 504.79 348.26 512.15
  Q 353.29 525.37 357.93 536.27
  Q 364.04 550.61 370.28 567.77
  Q 371.34 570.68 370.81 572.19
  Z"
/>
<path fill="#e84a49" d="
  M 165.97 471.69
  C 162.81 476.81 156.35 473.67 152.80 471.21
  C 147.74 467.70 150.66 460.37 154.24 457.16
  Q 154.70 456.75 155.31 456.91
  Q 164.79 459.36 166.76 467.29
  Q 167.31 469.51 165.97 471.69
  Z"
/>
</svg>
