<?xml version="1.0" encoding="UTF-8" standalone="no"?>
<!DOCTYPE svg PUBLIC "-//W3C//DTD SVG 1.1//EN" "http://www.w3.org/Graphics/SVG/1.1/DTD/svg11.dtd">
<svg xmlns="http://www.w3.org/2000/svg" version="1.1" viewBox="0.00 0.00 488.00 656.00">
<g stroke-width="2.00" fill="none" stroke-linecap="butt">
<path stroke="#f1a864" vector-effect="non-scaling-stroke" d="
  M 301.23 18.96
  Q 300.20 24.60 296.21 38.00
  Q 290.39 57.60 288.52 62.68"
/>
<path stroke="#da9455" vector-effect="non-scaling-stroke" d="
  M 288.52 62.68
  Q 273.82 58.05 266.00 56.69
  Q 258.38 55.36 246.65 54.37
  C 233.61 53.26 221.58 54.06 208.96 55.72
  C 202.54 56.56 196.23 58.13 189.89 59.74
  Q 174.83 63.57 159.30 71.28
  C 119.03 91.28 88.03 125.93 73.55 168.63
  Q 70.22 178.46 68.17 187.93
  Q 66.47 195.74 65.13 206.39
  Q 63.99 215.39 64.13 223.13
  Q 64.36 236.12 66.64 249.25
  Q 66.99 251.23 67.21 254.72"
/>
<path stroke="#f1a864" vector-effect="non-scaling-stroke" d="
  M 67.21 254.72
  Q 66.46 255.95 65.25 255.61
  Q 62.64 254.86 60.57 255.19
  Q 52.84 256.43 44.36 257.76
  Q 40.09 258.44 36.24 259.26
  Q 32.29 260.10 27.94 260.63
  Q 27.38 260.70 26.90 260.40
  L 24.75 259.03
  Q 24.30 258.74 23.77 258.74
  Q 21.98 258.73 21.41 256.34"
/>
<path stroke="#ec7754" vector-effect="non-scaling-stroke" d="
  M 387.63 372.57
  Q 376.58 384.23 370.04 389.54
  Q 330.62 421.58 281.10 432.87
  C 276.48 433.93 271.68 434.58 266.99 435.48
  Q 262.10 436.42 256.43 436.82
  Q 238.50 438.08 227.61 437.63
  Q 221.84 437.40 215.16 437.02
  Q 208.77 436.65 202.74 435.68
  Q 193.49 434.19 190.49 433.55
  Q 136.13 422.02 93.95 386.05
  Q 90.88 383.43 86.02 378.53
  Q 84.92 377.42 82.52 377.68"
/>
<path stroke="#d98f51" vector-effect="non-scaling-stroke" d="
  M 67.21 254.72
  Q 70.61 269.55 75.58 284.08"
/>
<path stroke="#e39855" vector-effect="non-scaling-stroke" d="
  M 75.58 284.08
  Q 81.13 299.37 90.67 314.09
  Q 98.94 326.87 108.26 337.09
  C 110.34 339.38 112.69 341.21 114.80 343.45
  Q 116.99 345.80 119.81 348.34
  Q 147.02 372.87 180.52 383.98
  Q 213.38 394.86 249.01 392.08
  C 254.39 391.67 259.48 390.69 264.88 389.87
  Q 270.64 388.99 276.58 387.39
  Q 329.55 373.09 364.67 331.38
  C 372.15 322.50 378.07 311.95 383.97 301.94
  Q 389.16 293.13 393.08 282.17
  Q 398.58 266.80 401.16 252.45
  C 402.54 244.77 402.96 236.43 403.39 228.59
  Q 403.90 219.21 402.65 206.15
  Q 402.10 200.36 400.97 194.12
  C 397.01 172.16 388.81 150.63 377.45 133.49
  Q 373.38 127.35 370.21 121.79
  Q 366.59 115.43 357.52 106.87"
/>
<path stroke="#f7cea3" vector-effect="non-scaling-stroke" d="
  M 357.52 106.87
  Q 358.72 104.92 363.77 103.39
  Q 368.99 101.82 374.27 100.16
  A 0.51 0.51 0.0 0 0 374.46 99.30
  Q 373.55 98.45 372.26 97.96
  Q 366.00 95.55 360.12 93.24
  A 2.83 2.81 0.6 0 1 358.50 91.60
  L 353.32 77.94
  Q 352.95 76.98 352.10 77.55
  Q 351.68 77.84 351.43 78.44
  Q 348.35 85.93 344.94 91.91
  Q 344.11 93.35 342.37 93.68"
/>
<path stroke="#e39855" vector-effect="non-scaling-stroke" d="
  M 342.37 93.68
  Q 340.73 90.56 338.42 88.83
  Q 336.08 87.08 327.51 81.30
  Q 325.73 80.10 323.85 79.21"
/>
<path stroke="#d98f51" vector-effect="non-scaling-stroke" d="
  M 323.85 79.21
  Q 306.01 68.84 288.52 62.68"
/>
<path stroke="#cc8347" vector-effect="non-scaling-stroke" d="
  M 323.85 79.21
  Q 323.69 80.22 324.31 80.34
  A 1.35 1.34 25.9 0 1 325.08 82.54
  Q 323.95 83.85 322.41 82.62
  C 318.39 79.41 313.94 76.61 309.03 74.78
  Q 303.24 72.61 297.49 70.09
  C 293.09 68.15 288.43 67.09 284.01 65.51
  C 280.50 64.25 276.90 64.23 273.24 63.32
  Q 269.45 62.37 264.97 61.76
  C 260.38 61.13 255.80 60.28 251.18 59.95
  Q 237.35 58.98 223.52 60.21
  Q 216.50 60.83 207.94 62.00
  C 204.60 62.46 201.67 63.60 198.38 64.24
  Q 194.79 64.95 191.06 66.02
  Q 164.73 73.62 141.11 89.75
  C 138.07 91.82 135.37 94.20 132.37 96.34
  Q 129.17 98.60 126.22 101.34
  Q 113.03 113.57 105.87 122.69
  Q 96.46 134.70 91.31 143.52
  Q 80.62 161.82 74.09 184.77
  C 73.08 188.32 72.58 191.96 71.67 195.61
  Q 70.73 199.41 70.24 203.87
  Q 68.63 218.42 68.64 232.25
  C 68.65 239.22 69.74 245.73 70.26 252.52
  C 70.70 258.21 72.16 263.75 73.59 269.29
  Q 73.84 270.25 73.96 271.35
  Q 74.11 272.67 74.59 274.09
  Q 75.49 276.76 75.61 279.99
  Q 75.62 280.49 75.87 280.92
  Q 77.60 283.92 75.58 284.08"
/>
<path stroke="#eac399" vector-effect="non-scaling-stroke" d="
  M 342.37 93.68
  L 330.54 98.72
  A 0.79 0.79 0.0 0 0 330.27 99.98
  Q 330.81 100.56 331.66 100.85
  Q 338.40 103.13 344.27 106.29
  A 1.70 1.70 0.0 0 1 344.95 106.97
  Q 348.75 113.84 351.18 120.07
  Q 352.51 123.51 353.58 119.98
  L 357.52 106.87"
/>
<path stroke="#f14e4d" vector-effect="non-scaling-stroke" d="
  M 368.17 567.19
  Q 368.54 563.37 367.68 561.25
  Q 362.56 548.65 357.51 536.02
  Q 350.88 519.47 345.08 505.83
  C 343.91 503.08 340.91 500.41 342.07 496.94
  Q 342.28 496.30 341.99 495.69
  C 340.97 493.56 339.91 489.28 336.61 489.93
  C 331.29 490.98 326.33 487.03 324.46 482.31
  Q 323.55 480.03 325.05 477.87
  Q 327.37 474.51 331.80 474.11
  A 0.62 0.62 0.0 0 0 332.28 473.18
  Q 330.67 470.39 330.47 466.74
  Q 330.45 466.25 330.07 465.93
  C 328.29 464.47 326.68 463.09 326.27 460.64
  C 325.38 455.19 322.99 450.53 321.44 445.39
  A 2.52 2.52 0.0 0 0 318.04 443.81
  Q 315.27 444.98 312.33 445.99
  Q 295.34 451.81 277.75 455.31
  Q 271.39 456.58 264.19 457.42
  C 252.91 458.73 241.54 459.65 230.15 459.33
  A 0.62 0.62 0.0 0 0 229.51 459.91
  Q 229.47 460.62 229.76 461.21
  Q 233.63 469.02 235.53 477.00
  Q 236.02 479.08 237.27 480.08"
/>
<path stroke="#f14e4d" vector-effect="non-scaling-stroke" d="
  M 104.53 566.34
  C 105.71 566.18 106.47 565.43 106.46 564.18
  Q 106.43 561.93 106.90 560.59
  Q 110.20 551.22 113.77 543.08
  Q 115.66 538.75 117.33 534.30
  C 119.89 527.46 122.90 520.70 125.55 513.69
  C 128.87 504.89 133.00 495.83 136.41 486.86
  C 140.81 475.26 145.50 463.72 150.32 452.30
  Q 151.43 449.69 153.11 446.97
  A 1.75 1.75 0.0 0 0 152.23 444.41
  Q 147.96 442.82 143.53 441.09
  Q 130.89 436.14 118.48 429.19
  Q 114.13 426.75 110.42 424.26
  C 104.02 419.98 97.67 416.11 91.40 411.38
  Q 84.39 406.09 80.83 402.92
  Q 79.00 401.30 75.86 396.43"
/>
<path stroke="#e39855" vector-effect="non-scaling-stroke" d="
  M 87.26 230.22
  Q 87.65 237.24 88.35 244.20
  C 88.80 248.79 90.05 253.52 91.10 258.14
  C 97.01 284.26 112.02 308.92 130.96 327.33
  Q 134.94 331.20 139.37 335.33
  Q 139.43 335.38 139.51 335.37
  Q 139.68 335.35 139.84 335.41
  Q 140.09 335.50 140.13 335.77
  Q 140.24 336.56 141.02 336.68
  A 0.61 0.59 66.5 0 1 141.31 336.80
  L 152.03 344.99"
/>
<path stroke="#cc8347" vector-effect="non-scaling-stroke" d="
  M 152.03 344.99
  Q 149.37 344.63 147.49 342.22
  A 1.14 1.14 0.0 0 0 146.70 341.78
  Q 145.42 341.67 144.57 340.72
  Q 144.23 340.35 143.74 340.36
  Q 143.20 340.37 142.73 340.10
  Q 142.23 339.80 142.38 340.36
  Q 142.45 340.62 142.69 340.61
  Q 143.12 340.59 143.17 341.02
  Q 143.32 342.34 144.22 343.08
  Q 149.51 347.42 154.55 350.80
  Q 164.42 357.41 178.14 363.55
  Q 186.05 367.08 198.70 370.81
  C 204.03 372.37 209.59 372.77 215.10 373.87
  Q 220.30 374.92 227.19 375.18
  C 240.73 375.71 252.00 375.62 264.14 373.18
  Q 267.58 372.48 270.90 371.71
  C 280.49 369.49 290.19 366.19 299.09 362.05
  C 314.69 354.79 329.37 344.89 341.29 332.54
  C 348.13 325.46 354.15 318.60 359.42 310.20
  Q 362.83 304.75 365.89 299.48
  Q 370.35 291.78 373.40 283.46
  Q 375.38 278.05 377.40 272.91
  Q 378.50 270.12 378.96 267.49
  Q 379.48 264.50 380.55 261.71
  C 381.45 259.38 381.57 256.75 381.83 254.31
  Q 382.13 251.50 382.57 248.71
  Q 383.95 239.96 384.31 231.67
  C 384.49 227.47 383.72 223.26 383.68 219.03
  Q 383.66 215.70 383.21 212.53
  Q 382.75 209.22 382.19 206.00
  Q 382.10 205.47 382.17 204.94
  Q 382.24 204.41 381.82 204.15
  Q 381.53 203.97 381.46 203.64
  Q 381.07 201.64 380.74 199.40
  Q 380.60 198.48 379.84 198.23
  Q 379.33 198.06 379.36 198.60
  L 379.77 205.71"
/>
<path stroke="#e39855" vector-effect="non-scaling-stroke" d="
  M 379.77 205.71
  Q 376.18 184.80 370.99 169.75
  Q 364.31 150.34 348.75 130.78
  Q 341.79 122.04 333.83 115.83
  C 332.11 114.49 331.16 112.53 329.49 111.05
  C 328.65 110.30 327.47 110.11 326.42 109.80
  Q 325.30 109.48 324.25 108.67
  C 321.22 106.36 318.27 104.16 315.44 101.54
  Q 312.04 98.39 306.68 95.31
  C 293.10 87.50 277.86 81.48 262.59 78.98"
/>
<path stroke="#e49d5a" vector-effect="non-scaling-stroke" d="
  M 262.59 78.98
  Q 250.08 76.23 242.75 76.24
  C 234.30 76.25 225.74 75.86 217.34 76.99
  Q 201.87 79.07 190.99 82.46
  Q 150.04 95.24 121.76 128.06
  Q 98.89 154.60 90.07 191.54
  C 87.56 202.05 87.05 213.23 86.84 224.25
  Q 86.78 227.72 87.26 230.22"
/>
<path stroke="#f1a864" vector-effect="non-scaling-stroke" d="
  M 262.59 78.98
  Q 263.62 81.29 262.89 82.56
  Q 258.67 89.91 255.23 95.57
  Q 247.74 107.91 239.40 119.95
  Q 237.25 123.05 234.88 125.91
  Q 232.83 128.40 233.22 131.52"
/>
<path stroke="#da9455" vector-effect="non-scaling-stroke" d="
  M 233.22 131.52
  Q 218.82 131.66 205.28 135.30
  C 187.24 140.14 169.01 153.06 165.92 172.30
  Q 164.93 178.49 165.33 184.84
  A 0.98 0.97 86.1 0 0 166.36 185.75
  L 171.00 185.46"
/>
<path stroke="#f1a864" vector-effect="non-scaling-stroke" d="
  M 171.00 185.46
  Q 170.33 189.72 166.36 191.86
  Q 158.99 195.83 154.48 198.99
  C 144.79 205.77 134.65 211.21 123.83 216.36
  Q 107.57 224.11 93.95 228.37
  Q 93.11 228.64 90.91 230.49
  Q 90.51 230.82 90.00 230.73
  L 87.26 230.22"
/>
<path stroke="#d98f51" vector-effect="non-scaling-stroke" d="
  M 379.77 205.71
  Q 382.19 221.91 380.34 238.26
  Q 378.67 252.93 374.91 265.46
  Q 373.77 269.26 372.43 273.40
  Q 371.15 277.38 369.55 281.02
  Q 353.83 316.98 322.95 340.39
  Q 299.50 358.16 270.76 365.60
  Q 258.86 368.69 250.32 369.42
  Q 236.70 370.60 219.53 369.55
  Q 214.58 369.25 209.71 368.19
  Q 204.75 367.10 199.68 365.91
  Q 173.89 359.88 152.03 344.99"
/>
<path stroke="#d98f51" vector-effect="non-scaling-stroke" d="
  M 171.00 185.46
  L 206.98 185.54
  Q 208.53 185.55 208.32 184.01
  C 207.81 180.33 209.58 175.91 212.35 173.23
  C 219.55 166.28 227.68 165.51 236.95 166.80
  C 239.85 167.20 241.90 168.91 244.44 170.10
  Q 247.02 171.30 249.03 173.73
  Q 253.88 179.61 252.94 187.73
  Q 252.66 190.12 252.38 192.43
  C 252.05 195.14 250.83 197.09 248.87 198.70
  Q 242.68 203.77 235.48 204.62
  C 231.79 205.05 228.08 204.22 224.23 204.75
  C 223.36 204.87 222.62 204.44 221.85 204.18
  Q 220.79 203.83 220.79 204.95
  Q 220.71 218.38 220.84 231.25
  Q 220.86 232.90 221.07 234.41
  A 1.21 1.21 0.0 0 0 222.31 235.44
  Q 233.71 235.02 241.79 235.65
  C 257.58 236.89 260.47 253.78 254.61 265.92
  C 248.99 277.55 232.70 278.10 221.17 276.04
  Q 205.44 273.23 204.47 257.47
  A 1.36 1.36 0.0 0 0 203.11 256.20
  L 161.18 256.28
  Q 159.67 256.29 159.68 257.80
  Q 159.74 263.52 160.56 269.45
  C 164.01 294.49 190.04 307.21 212.37 310.23
  Q 231.00 312.75 252.72 310.66
  C 257.85 310.17 262.70 309.05 267.67 307.66
  C 285.21 302.76 300.02 291.09 305.64 273.44
  C 308.12 265.66 308.38 256.51 306.41 248.91
  Q 300.55 226.29 278.88 218.85
  Q 276.06 217.88 278.74 216.57
  Q 294.81 208.71 300.48 192.24
  Q 301.99 187.88 302.19 184.36
  C 302.67 176.07 302.46 166.90 297.57 159.81
  Q 295.64 157.01 294.15 154.24
  C 292.33 150.86 288.90 148.46 286.03 146.03
  C 282.48 143.01 277.92 141.33 273.68 139.11
  Q 271.12 137.77 268.50 136.85
  Q 254.05 131.82 242.00 131.72
  Q 235.30 131.66 233.22 131.52"
/>
</g>
<path fill="#f2ad68" d="
  M 301.23 18.96
  Q 300.20 24.60 296.21 38.00
  Q 290.39 57.60 288.52 62.68
  Q 273.82 58.05 266.00 56.69
  Q 258.38 55.36 246.65 54.37
  C 233.61 53.26 221.58 54.06 208.96 55.72
  C 202.54 56.56 196.23 58.13 189.89 59.74
  Q 174.83 63.57 159.30 71.28
  C 119.03 91.28 88.03 125.93 73.55 168.63
  Q 70.22 178.46 68.17 187.93
  Q 66.47 195.74 65.13 206.39
  Q 63.99 215.39 64.13 223.13
  Q 64.36 236.12 66.64 249.25
  Q 66.99 251.23 67.21 254.72
  Q 66.46 255.95 65.25 255.61
  Q 62.64 254.86 60.57 255.19
  Q 52.84 256.43 44.36 257.76
  Q 40.09 258.44 36.24 259.26
  Q 32.29 260.10 27.94 260.63
  Q 27.38 260.70 26.90 260.40
  L 24.75 259.03
  Q 24.30 258.74 23.77 258.74
  Q 21.98 258.73 21.41 256.34
  Q 21.34 252.14 21.13 248.00
  C 20.96 244.73 19.69 241.95 19.54 238.78
  Q 18.76 222.99 19.46 206.14
  C 19.57 203.45 20.64 201.32 20.87 198.75
  Q 21.30 193.96 21.49 189.33
  Q 21.62 186.17 22.65 183.28
  C 23.68 180.40 23.69 177.41 24.84 174.51
  C 26.17 171.16 25.62 167.71 26.74 164.15
  Q 28.34 159.01 30.04 155.33
  Q 31.82 151.46 33.12 147.51
  C 34.28 143.98 35.28 140.37 36.99 136.94
  Q 40.86 129.14 44.79 121.15
  Q 48.47 113.64 53.73 106.01
  Q 60.18 96.67 67.01 87.95
  C 69.57 84.68 72.85 82.29 75.10 78.64
  C 77.91 74.10 81.99 69.88 86.63 67.05
  C 92.64 63.40 96.46 57.29 102.52 53.41
  C 105.75 51.33 108.40 48.66 111.63 46.56
  C 117.60 42.67 123.40 38.37 129.90 35.19
  Q 138.31 31.09 146.44 26.97
  C 150.84 24.75 155.79 23.39 160.43 21.82
  C 163.21 20.89 165.67 19.49 168.37 18.42
  C 170.94 17.40 173.64 17.70 176.23 16.54
  C 179.31 15.17 182.46 15.50 185.54 14.21
  C 189.39 12.58 193.39 13.48 197.36 11.77
  C 201.32 10.06 205.90 11.53 210.00 9.83
  Q 212.24 8.90 214.57 8.83
  Q 232.38 8.27 251.75 8.90
  Q 255.20 9.01 258.21 9.91
  C 262.43 11.17 266.86 10.64 271.21 12.02
  C 275.09 13.25 279.11 12.86 282.94 14.38
  Q 285.18 15.28 287.66 15.31
  Q 290.37 15.34 293.25 16.30
  Q 297.66 17.77 301.23 18.96
  Z"
/>
<path fill="#f0a35f" d="
  M 301.23 18.96
  C 303.34 19.72 305.27 20.17 307.18 21.08
  C 312.23 23.50 317.34 24.87 322.27 27.36
  Q 330.42 31.47 338.11 35.22
  C 345.15 38.65 351.31 43.29 357.85 47.60
  C 359.91 48.95 361.57 50.62 363.36 52.29
  C 366.22 54.98 369.86 56.70 372.64 59.44
  Q 385.83 72.45 397.98 84.68
  C 400.62 87.34 402.42 90.76 404.82 93.64
  C 409.24 98.92 412.38 105.00 416.69 110.13
  Q 419.39 113.34 421.07 116.87
  Q 424.02 123.05 427.11 128.89
  Q 429.42 133.25 430.73 137.27
  C 432.01 141.22 434.03 144.91 435.34 148.80
  Q 438.16 157.14 441.13 166.01
  C 442.19 169.20 442.32 172.40 443.55 175.57
  C 444.66 178.39 444.48 181.35 445.69 184.24
  C 448.00 189.77 445.66 196.07 447.77 201.76
  Q 448.82 204.58 448.86 207.39
  Q 449.08 223.72 448.89 240.08
  Q 448.85 243.14 447.44 246.01
  Q 446.95 246.99 446.83 248.30
  C 446.39 253.25 447.42 257.84 445.71 262.71
  Q 444.10 267.31 442.68 271.43
  C 441.83 273.88 442.65 276.42 441.86 278.72
  Q 438.64 288.10 435.42 297.94
  C 433.61 303.49 430.36 308.28 428.55 313.89
  Q 426.60 319.91 423.66 324.28
  Q 421.23 327.89 419.41 331.19
  C 415.88 337.58 411.62 343.54 407.63 349.51
  C 405.41 352.85 402.30 355.32 400.01 358.65
  Q 394.85 366.13 387.63 372.57
  Q 376.58 384.23 370.04 389.54
  Q 330.62 421.58 281.10 432.87
  C 276.48 433.93 271.68 434.58 266.99 435.48
  Q 262.10 436.42 256.43 436.82
  Q 238.50 438.08 227.61 437.63
  Q 221.84 437.40 215.16 437.02
  Q 208.77 436.65 202.74 435.68
  Q 193.49 434.19 190.49 433.55
  Q 136.13 422.02 93.95 386.05
  Q 90.88 383.43 86.02 378.53
  Q 84.92 377.42 82.52 377.68
  Q 82.39 374.44 79.95 372.04
  C 74.11 366.31 67.54 360.41 62.86 353.35
  Q 54.51 340.74 46.99 329.33
  Q 42.90 323.11 39.08 313.06
  Q 38.35 311.12 37.43 309.59
  C 36.62 308.22 35.65 306.97 35.14 305.44
  Q 31.42 294.21 27.68 283.24
  C 26.28 279.15 25.71 275.15 24.46 271.03
  Q 23.76 268.73 23.40 265.59
  Q 22.86 260.97 21.41 256.34
  Q 21.98 258.73 23.77 258.74
  Q 24.30 258.74 24.75 259.03
  L 26.90 260.40
  Q 27.38 260.70 27.94 260.63
  Q 32.29 260.10 36.24 259.26
  Q 40.09 258.44 44.36 257.76
  Q 52.84 256.43 60.57 255.19
  Q 62.64 254.86 65.25 255.61
  Q 66.46 255.95 67.21 254.72
  Q 70.61 269.55 75.58 284.08
  Q 81.13 299.37 90.67 314.09
  Q 98.94 326.87 108.26 337.09
  C 110.34 339.38 112.69 341.21 114.80 343.45
  Q 116.99 345.80 119.81 348.34
  Q 147.02 372.87 180.52 383.98
  Q 213.38 394.86 249.01 392.08
  C 254.39 391.67 259.48 390.69 264.88 389.87
  Q 270.64 388.99 276.58 387.39
  Q 329.55 373.09 364.67 331.38
  C 372.15 322.50 378.07 311.95 383.97 301.94
  Q 389.16 293.13 393.08 282.17
  Q 398.58 266.80 401.16 252.45
  C 402.54 244.77 402.96 236.43 403.39 228.59
  Q 403.90 219.21 402.65 206.15
  Q 402.10 200.36 400.97 194.12
  C 397.01 172.16 388.81 150.63 377.45 133.49
  Q 373.38 127.35 370.21 121.79
  Q 366.59 115.43 357.52 106.87
  Q 358.72 104.92 363.77 103.39
  Q 368.99 101.82 374.27 100.16
  A 0.51 0.51 0.0 0 0 374.46 99.30
  Q 373.55 98.45 372.26 97.96
  Q 366.00 95.55 360.12 93.24
  A 2.83 2.81 0.6 0 1 358.50 91.60
  L 353.32 77.94
  Q 352.95 76.98 352.10 77.55
  Q 351.68 77.84 351.43 78.44
  Q 348.35 85.93 344.94 91.91
  Q 344.11 93.35 342.37 93.68
  Q 340.73 90.56 338.42 88.83
  Q 336.08 87.08 327.51 81.30
  Q 325.73 80.10 323.85 79.21
  Q 306.01 68.84 288.52 62.68
  Q 290.39 57.60 296.21 38.00
  Q 300.20 24.60 301.23 18.96
  Z"
/>
<path fill="#c17a42" d="
  M 288.52 62.68
  Q 306.01 68.84 323.85 79.21
  Q 323.69 80.22 324.31 80.34
  A 1.35 1.34 25.9 0 1 325.08 82.54
  Q 323.95 83.85 322.41 82.62
  C 318.39 79.41 313.94 76.61 309.03 74.78
  Q 303.24 72.61 297.49 70.09
  C 293.09 68.15 288.43 67.09 284.01 65.51
  C 280.50 64.25 276.90 64.23 273.24 63.32
  Q 269.45 62.37 264.97 61.76
  C 260.38 61.13 255.80 60.28 251.18 59.95
  Q 237.35 58.98 223.52 60.21
  Q 216.50 60.83 207.94 62.00
  C 204.60 62.46 201.67 63.60 198.38 64.24
  Q 194.79 64.95 191.06 66.02
  Q 164.73 73.62 141.11 89.75
  C 138.07 91.82 135.37 94.20 132.37 96.34
  Q 129.17 98.60 126.22 101.34
  Q 113.03 113.57 105.87 122.69
  Q 96.46 134.70 91.31 143.52
  Q 80.62 161.82 74.09 184.77
  C 73.08 188.32 72.58 191.96 71.67 195.61
  Q 70.73 199.41 70.24 203.87
  Q 68.63 218.42 68.64 232.25
  C 68.65 239.22 69.74 245.73 70.26 252.52
  C 70.70 258.21 72.16 263.75 73.59 269.29
  Q 73.84 270.25 73.96 271.35
  Q 74.11 272.67 74.59 274.09
  Q 75.49 276.76 75.61 279.99
  Q 75.62 280.49 75.87 280.92
  Q 77.60 283.92 75.58 284.08
  Q 70.61 269.55 67.21 254.72
  Q 66.99 251.23 66.64 249.25
  Q 64.36 236.12 64.13 223.13
  Q 63.99 215.39 65.13 206.39
  Q 66.47 195.74 68.17 187.93
  Q 70.22 178.46 73.55 168.63
  C 88.03 125.93 119.03 91.28 159.30 71.28
  Q 174.83 63.57 189.89 59.74
  C 196.23 58.13 202.54 56.56 208.96 55.72
  C 221.58 54.06 233.61 53.26 246.65 54.37
  Q 258.38 55.36 266.00 56.69
  Q 273.82 58.05 288.52 62.68
  Z"
/>
<path fill="#d68c4b" d="
  M 323.85 79.21
  Q 325.73 80.10 327.51 81.30
  Q 336.08 87.08 338.42 88.83
  Q 340.73 90.56 342.37 93.68
  L 330.54 98.72
  A 0.79 0.79 0.0 0 0 330.27 99.98
  Q 330.81 100.56 331.66 100.85
  Q 338.40 103.13 344.27 106.29
  A 1.70 1.70 0.0 0 1 344.95 106.97
  Q 348.75 113.84 351.18 120.07
  Q 352.51 123.51 353.58 119.98
  L 357.52 106.87
  Q 366.59 115.43 370.21 121.79
  Q 373.38 127.35 377.45 133.49
  C 388.81 150.63 397.01 172.16 400.97 194.12
  Q 402.10 200.36 402.65 206.15
  Q 403.90 219.21 403.39 228.59
  C 402.96 236.43 402.54 244.77 401.16 252.45
  Q 398.58 266.80 393.08 282.17
  Q 389.16 293.13 383.97 301.94
  C 378.07 311.95 372.15 322.50 364.67 331.38
  Q 329.55 373.09 276.58 387.39
  Q 270.64 388.99 264.88 389.87
  C 259.48 390.69 254.39 391.67 249.01 392.08
  Q 213.38 394.86 180.52 383.98
  Q 147.02 372.87 119.81 348.34
  Q 116.99 345.80 114.80 343.45
  C 112.69 341.21 110.34 339.38 108.26 337.09
  Q 98.94 326.87 90.67 314.09
  Q 81.13 299.37 75.58 284.08
  Q 77.60 283.92 75.87 280.92
  Q 75.62 280.49 75.61 279.99
  Q 75.49 276.76 74.59 274.09
  Q 74.11 272.67 73.96 271.35
  Q 73.84 270.25 73.59 269.29
  C 72.16 263.75 70.70 258.21 70.26 252.52
  C 69.74 245.73 68.65 239.22 68.64 232.25
  Q 68.63 218.42 70.24 203.87
  Q 70.73 199.41 71.67 195.61
  C 72.58 191.96 73.08 188.32 74.09 184.77
  Q 80.62 161.82 91.31 143.52
  Q 96.46 134.70 105.87 122.69
  Q 113.03 113.57 126.22 101.34
  Q 129.17 98.60 132.37 96.34
  C 135.37 94.20 138.07 91.82 141.11 89.75
  Q 164.73 73.62 191.06 66.02
  Q 194.79 64.95 198.38 64.24
  C 201.67 63.60 204.60 62.46 207.94 62.00
  Q 216.50 60.83 223.52 60.21
  Q 237.35 58.98 251.18 59.95
  C 255.80 60.28 260.38 61.13 264.97 61.76
  Q 269.45 62.37 273.24 63.32
  C 276.90 64.23 280.50 64.25 284.01 65.51
  C 288.43 67.09 293.09 68.15 297.49 70.09
  Q 303.24 72.61 309.03 74.78
  C 313.94 76.61 318.39 79.41 322.41 82.62
  Q 323.95 83.85 325.08 82.54
  A 1.35 1.34 25.9 0 0 324.31 80.34
  Q 323.69 80.22 323.85 79.21
  Z
  M 87.26 230.22
  Q 87.65 237.24 88.35 244.20
  C 88.80 248.79 90.05 253.52 91.10 258.14
  C 97.01 284.26 112.02 308.92 130.96 327.33
  Q 134.94 331.20 139.37 335.33
  Q 139.43 335.38 139.51 335.37
  Q 139.68 335.35 139.84 335.41
  Q 140.09 335.50 140.13 335.77
  Q 140.24 336.56 141.02 336.68
  A 0.61 0.59 66.5 0 1 141.31 336.80
  L 152.03 344.99
  Q 149.37 344.63 147.49 342.22
  A 1.14 1.14 0.0 0 0 146.70 341.78
  Q 145.42 341.67 144.57 340.72
  Q 144.23 340.35 143.74 340.36
  Q 143.20 340.37 142.73 340.10
  Q 142.23 339.80 142.38 340.36
  Q 142.45 340.62 142.69 340.61
  Q 143.12 340.59 143.17 341.02
  Q 143.32 342.34 144.22 343.08
  Q 149.51 347.42 154.55 350.80
  Q 164.42 357.41 178.14 363.55
  Q 186.05 367.08 198.70 370.81
  C 204.03 372.37 209.59 372.77 215.10 373.87
  Q 220.30 374.92 227.19 375.18
  C 240.73 375.71 252.00 375.62 264.14 373.18
  Q 267.58 372.48 270.90 371.71
  C 280.49 369.49 290.19 366.19 299.09 362.05
  C 314.69 354.79 329.37 344.89 341.29 332.54
  C 348.13 325.46 354.15 318.60 359.42 310.20
  Q 362.83 304.75 365.89 299.48
  Q 370.35 291.78 373.40 283.46
  Q 375.38 278.05 377.40 272.91
  Q 378.50 270.12 378.96 267.49
  Q 379.48 264.50 380.55 261.71
  C 381.45 259.38 381.57 256.75 381.83 254.31
  Q 382.13 251.50 382.57 248.71
  Q 383.95 239.96 384.31 231.67
  C 384.49 227.47 383.72 223.26 383.68 219.03
  Q 383.66 215.70 383.21 212.53
  Q 382.75 209.22 382.19 206.00
  Q 382.10 205.47 382.17 204.94
  Q 382.24 204.41 381.82 204.15
  Q 381.53 203.97 381.46 203.64
  Q 381.07 201.64 380.74 199.40
  Q 380.60 198.48 379.84 198.23
  Q 379.33 198.06 379.36 198.60
  L 379.77 205.71
  Q 376.18 184.80 370.99 169.75
  Q 364.31 150.34 348.75 130.78
  Q 341.79 122.04 333.83 115.83
  C 332.11 114.49 331.16 112.53 329.49 111.05
  C 328.65 110.30 327.47 110.11 326.42 109.80
  Q 325.30 109.48 324.25 108.67
  C 321.22 106.36 318.27 104.16 315.44 101.54
  Q 312.04 98.39 306.68 95.31
  C 293.10 87.50 277.86 81.48 262.59 78.98
  Q 250.08 76.23 242.75 76.24
  C 234.30 76.25 225.74 75.86 217.34 76.99
  Q 201.87 79.07 190.99 82.46
  Q 150.04 95.24 121.76 128.06
  Q 98.89 154.60 90.07 191.54
  C 87.56 202.05 87.05 213.23 86.84 224.25
  Q 86.78 227.72 87.26 230.22
  Z"
/>
<path fill="#f2ad68" d="
  M 262.59 78.98
  Q 263.62 81.29 262.89 82.56
  Q 258.67 89.91 255.23 95.57
  Q 247.74 107.91 239.40 119.95
  Q 237.25 123.05 234.88 125.91
  Q 232.83 128.40 233.22 131.52
  Q 218.82 131.66 205.28 135.30
  C 187.24 140.14 169.01 153.06 165.92 172.30
  Q 164.93 178.49 165.33 184.84
  A 0.98 0.97 86.1 0 0 166.36 185.75
  L 171.00 185.46
  Q 170.33 189.72 166.36 191.86
  Q 158.99 195.83 154.48 198.99
  C 144.79 205.77 134.65 211.21 123.83 216.36
  Q 107.57 224.11 93.95 228.37
  Q 93.11 228.64 90.91 230.49
  Q 90.51 230.82 90.00 230.73
  L 87.26 230.22
  Q 86.78 227.72 86.84 224.25
  C 87.05 213.23 87.56 202.05 90.07 191.54
  Q 98.89 154.60 121.76 128.06
  Q 150.04 95.24 190.99 82.46
  Q 201.87 79.07 217.34 76.99
  C 225.74 75.86 234.30 76.25 242.75 76.24
  Q 250.08 76.23 262.59 78.98
  Z"
/>
<path fill="#fdf9e6" d="
  M 357.52 106.87
  L 353.58 119.98
  Q 352.51 123.51 351.18 120.07
  Q 348.75 113.84 344.95 106.97
  A 1.70 1.70 0.0 0 0 344.27 106.29
  Q 338.40 103.13 331.66 100.85
  Q 330.81 100.56 330.27 99.98
  A 0.79 0.79 0.0 0 1 330.54 98.72
  L 342.37 93.68
  Q 344.11 93.35 344.94 91.91
  Q 348.35 85.93 351.43 78.44
  Q 351.68 77.84 352.10 77.55
  Q 352.95 76.98 353.32 77.94
  L 358.50 91.60
  A 2.83 2.81 0.6 0 0 360.12 93.24
  Q 366.00 95.55 372.26 97.96
  Q 373.55 98.45 374.46 99.30
  A 0.51 0.51 0.0 0 1 374.27 100.16
  Q 368.99 101.82 363.77 103.39
  Q 358.72 104.92 357.52 106.87
  Z"
/>
<path fill="#f0a35f" d="
  M 262.59 78.98
  C 277.86 81.48 293.10 87.50 306.68 95.31
  Q 312.04 98.39 315.44 101.54
  C 318.27 104.16 321.22 106.36 324.25 108.67
  Q 325.30 109.48 326.42 109.80
  C 327.47 110.11 328.65 110.30 329.49 111.05
  C 331.16 112.53 332.11 114.49 333.83 115.83
  Q 341.79 122.04 348.75 130.78
  Q 364.31 150.34 370.99 169.75
  Q 376.18 184.80 379.77 205.71
  Q 382.19 221.91 380.34 238.26
  Q 378.67 252.93 374.91 265.46
  Q 373.77 269.26 372.43 273.40
  Q 371.15 277.38 369.55 281.02
  Q 353.83 316.98 322.95 340.39
  Q 299.50 358.16 270.76 365.60
  Q 258.86 368.69 250.32 369.42
  Q 236.70 370.60 219.53 369.55
  Q 214.58 369.25 209.71 368.19
  Q 204.75 367.10 199.68 365.91
  Q 173.89 359.88 152.03 344.99
  L 141.31 336.80
  A 0.61 0.59 66.5 0 0 141.02 336.68
  Q 140.24 336.56 140.13 335.77
  Q 140.09 335.50 139.84 335.41
  Q 139.68 335.35 139.51 335.37
  Q 139.43 335.38 139.37 335.33
  Q 134.94 331.20 130.96 327.33
  C 112.02 308.92 97.01 284.26 91.10 258.14
  C 90.05 253.52 88.80 248.79 88.35 244.20
  Q 87.65 237.24 87.26 230.22
  L 90.00 230.73
  Q 90.51 230.82 90.91 230.49
  Q 93.11 228.64 93.95 228.37
  Q 107.57 224.11 123.83 216.36
  C 134.65 211.21 144.79 205.77 154.48 198.99
  Q 158.99 195.83 166.36 191.86
  Q 170.33 189.72 171.00 185.46
  L 206.98 185.54
  Q 208.53 185.55 208.32 184.01
  C 207.81 180.33 209.58 175.91 212.35 173.23
  C 219.55 166.28 227.68 165.51 236.95 166.80
  C 239.85 167.20 241.90 168.91 244.44 170.10
  Q 247.02 171.30 249.03 173.73
  Q 253.88 179.61 252.94 187.73
  Q 252.66 190.12 252.38 192.43
  C 252.05 195.14 250.83 197.09 248.87 198.70
  Q 242.68 203.77 235.48 204.62
  C 231.79 205.05 228.08 204.22 224.23 204.75
  C 223.36 204.87 222.62 204.44 221.85 204.18
  Q 220.79 203.83 220.79 204.95
  Q 220.71 218.38 220.84 231.25
  Q 220.86 232.90 221.07 234.41
  A 1.21 1.21 0.0 0 0 222.31 235.44
  Q 233.71 235.02 241.79 235.65
  C 257.58 236.89 260.47 253.78 254.61 265.92
  C 248.99 277.55 232.70 278.10 221.17 276.04
  Q 205.44 273.23 204.47 257.47
  A 1.36 1.36 0.0 0 0 203.11 256.20
  L 161.18 256.28
  Q 159.67 256.29 159.68 257.80
  Q 159.74 263.52 160.56 269.45
  C 164.01 294.49 190.04 307.21 212.37 310.23
  Q 231.00 312.75 252.72 310.66
  C 257.85 310.17 262.70 309.05 267.67 307.66
  C 285.21 302.76 300.02 291.09 305.64 273.44
  C 308.12 265.66 308.38 256.51 306.41 248.91
  Q 300.55 226.29 278.88 218.85
  Q 276.06 217.88 278.74 216.57
  Q 294.81 208.71 300.48 192.24
  Q 301.99 187.88 302.19 184.36
  C 302.67 176.07 302.46 166.90 297.57 159.81
  Q 295.64 157.01 294.15 154.24
  C 292.33 150.86 288.90 148.46 286.03 146.03
  C 282.48 143.01 277.92 141.33 273.68 139.11
  Q 271.12 137.77 268.50 136.85
  Q 254.05 131.82 242.00 131.72
  Q 235.30 131.66 233.22 131.52
  Q 232.83 128.40 234.88 125.91
  Q 237.25 123.05 239.40 119.95
  Q 247.74 107.91 255.23 95.57
  Q 258.67 89.91 262.89 82.56
  Q 263.62 81.29 262.59 78.98
  Z"
/>
<path fill="#c17a42" d="
  M 233.22 131.52
  Q 235.30 131.66 242.00 131.72
  Q 254.05 131.82 268.50 136.85
  Q 271.12 137.77 273.68 139.11
  C 277.92 141.33 282.48 143.01 286.03 146.03
  C 288.90 148.46 292.33 150.86 294.15 154.24
  Q 295.64 157.01 297.57 159.81
  C 302.46 166.90 302.67 176.07 302.19 184.36
  Q 301.99 187.88 300.48 192.24
  Q 294.81 208.71 278.74 216.57
  Q 276.06 217.88 278.88 218.85
  Q 300.55 226.29 306.41 248.91
  C 308.38 256.51 308.12 265.66 305.64 273.44
  C 300.02 291.09 285.21 302.76 267.67 307.66
  C 262.70 309.05 257.85 310.17 252.72 310.66
  Q 231.00 312.75 212.37 310.23
  C 190.04 307.21 164.01 294.49 160.56 269.45
  Q 159.74 263.52 159.68 257.80
  Q 159.67 256.29 161.18 256.28
  L 203.11 256.20
  A 1.36 1.36 0.0 0 1 204.47 257.47
  Q 205.44 273.23 221.17 276.04
  C 232.70 278.10 248.99 277.55 254.61 265.92
  C 260.47 253.78 257.58 236.89 241.79 235.65
  Q 233.71 235.02 222.31 235.44
  A 1.21 1.21 0.0 0 1 221.07 234.41
  Q 220.86 232.90 220.84 231.25
  Q 220.71 218.38 220.79 204.95
  Q 220.79 203.83 221.85 204.18
  C 222.62 204.44 223.36 204.87 224.23 204.75
  C 228.08 204.22 231.79 205.05 235.48 204.62
  Q 242.68 203.77 248.87 198.70
  C 250.83 197.09 252.05 195.14 252.38 192.43
  Q 252.66 190.12 252.94 187.73
  Q 253.88 179.61 249.03 173.73
  Q 247.02 171.30 244.44 170.10
  C 241.90 168.91 239.85 167.20 236.95 166.80
  C 227.68 165.51 219.55 166.28 212.35 173.23
  C 209.58 175.91 207.81 180.33 208.32 184.01
  Q 208.53 185.55 206.98 185.54
  L 171.00 185.46
  L 166.36 185.75
  A 0.98 0.97 86.1 0 1 165.33 184.84
  Q 164.93 178.49 165.92 172.30
  C 169.01 153.06 187.24 140.14 205.28 135.30
  Q 218.82 131.66 233.22 131.52
  Z"
/>
<path fill="#c17a42" d="
  M 152.03 344.99
  Q 173.89 359.88 199.68 365.91
  Q 204.75 367.10 209.71 368.19
  Q 214.58 369.25 219.53 369.55
  Q 236.70 370.60 250.32 369.42
  Q 258.86 368.69 270.76 365.60
  Q 299.50 358.16 322.95 340.39
  Q 353.83 316.98 369.55 281.02
  Q 371.15 277.38 372.43 273.40
  Q 373.77 269.26 374.91 265.46
  Q 378.67 252.93 380.34 238.26
  Q 382.19 221.91 379.77 205.71
  L 379.36 198.60
  Q 379.33 198.06 379.84 198.23
  Q 380.60 198.48 380.74 199.40
  Q 381.07 201.64 381.46 203.64
  Q 381.53 203.97 381.82 204.15
  Q 382.24 204.41 382.17 204.94
  Q 382.10 205.47 382.19 206.00
  Q 382.75 209.22 383.21 212.53
  Q 383.66 215.70 383.68 219.03
  C 383.72 223.26 384.49 227.47 384.31 231.67
  Q 383.95 239.96 382.57 248.71
  Q 382.13 251.50 381.83 254.31
  C 381.57 256.75 381.45 259.38 380.55 261.71
  Q 379.48 264.50 378.96 267.49
  Q 378.50 270.12 377.40 272.91
  Q 375.38 278.05 373.40 283.46
  Q 370.35 291.78 365.89 299.48
  Q 362.83 304.75 359.42 310.20
  C 354.15 318.60 348.13 325.46 341.29 332.54
  C 329.37 344.89 314.69 354.79 299.09 362.05
  C 290.19 366.19 280.49 369.49 270.90 371.71
  Q 267.58 372.48 264.14 373.18
  C 252.00 375.62 240.73 375.71 227.19 375.18
  Q 220.30 374.92 215.10 373.87
  C 209.59 372.77 204.03 372.37 198.70 370.81
  Q 186.05 367.08 178.14 363.55
  Q 164.42 357.41 154.55 350.80
  Q 149.51 347.42 144.22 343.08
  Q 143.32 342.34 143.17 341.02
  Q 143.12 340.59 142.69 340.61
  Q 142.45 340.62 142.38 340.36
  Q 142.23 339.80 142.73 340.10
  Q 143.20 340.37 143.74 340.36
  Q 144.23 340.35 144.57 340.72
  Q 145.42 341.67 146.70 341.78
  A 1.14 1.14 0.0 0 1 147.49 342.22
  Q 149.37 344.63 152.03 344.99
  Z"
/>
<path fill="#e84a49" d="
  M 387.63 372.57
  Q 391.24 378.22 391.78 379.97
  Q 395.94 393.32 399.07 399.34
  C 401.32 403.66 402.52 408.20 404.06 412.75
  C 405.14 415.93 407.54 418.09 408.47 421.29
  Q 410.49 428.26 413.00 433.82
  C 414.55 437.25 415.52 440.65 417.06 444.14
  C 419.21 448.98 420.76 453.88 423.03 458.66
  C 424.21 461.14 424.68 463.89 425.98 466.43
  Q 427.52 469.42 428.39 472.28
  C 429.72 476.61 431.93 480.30 433.27 484.57
  C 434.29 487.83 436.71 490.14 437.76 493.45
  Q 440.37 501.60 443.15 509.39
  C 444.05 511.90 445.46 514.21 446.27 516.83
  Q 447.32 520.21 448.73 523.18
  C 450.58 527.06 451.62 531.13 453.50 535.02
  C 455.18 538.49 456.03 542.16 457.70 545.58
  Q 459.33 548.93 460.51 552.62
  C 461.56 555.90 463.30 558.86 464.39 562.16
  Q 465.98 566.96 468.37 571.72
  Q 469.30 573.57 469.55 575.62
  A 1.73 1.72 -5.1 0 1 467.93 577.55
  C 462.06 577.85 456.29 577.82 450.39 576.50
  C 445.99 575.51 441.44 575.49 436.90 574.81
  Q 426.52 573.26 416.68 571.67
  Q 395.31 568.21 380.00 566.53
  Q 373.87 565.86 368.17 567.19
  Q 368.54 563.37 367.68 561.25
  Q 362.56 548.65 357.51 536.02
  Q 350.88 519.47 345.08 505.83
  C 343.91 503.08 340.91 500.41 342.07 496.94
  Q 342.28 496.30 341.99 495.69
  C 340.97 493.56 339.91 489.28 336.61 489.93
  C 331.29 490.98 326.33 487.03 324.46 482.31
  Q 323.55 480.03 325.05 477.87
  Q 327.37 474.51 331.80 474.11
  A 0.62 0.62 0.0 0 0 332.28 473.18
  Q 330.67 470.39 330.47 466.74
  Q 330.45 466.25 330.07 465.93
  C 328.29 464.47 326.68 463.09 326.27 460.64
  C 325.38 455.19 322.99 450.53 321.44 445.39
  A 2.52 2.52 0.0 0 0 318.04 443.81
  Q 315.27 444.98 312.33 445.99
  Q 295.34 451.81 277.75 455.31
  Q 271.39 456.58 264.19 457.42
  C 252.91 458.73 241.54 459.65 230.15 459.33
  A 0.62 0.62 0.0 0 0 229.51 459.91
  Q 229.47 460.62 229.76 461.21
  Q 233.63 469.02 235.53 477.00
  Q 236.02 479.08 237.27 480.08
  Q 233.47 484.87 231.39 491.10
  C 229.66 496.27 228.13 501.79 225.74 506.53
  Q 224.58 508.84 223.48 511.16
  C 221.68 514.93 220.53 519.07 219.25 523.03
  C 217.58 528.20 214.49 532.74 212.82 537.82
  Q 211.57 541.58 209.93 544.98
  C 208.38 548.19 207.65 551.64 206.07 554.82
  Q 204.52 557.94 203.50 561.20
  C 202.39 564.77 200.49 567.86 199.36 571.41
  Q 198.21 575.00 196.61 578.26
  C 195.10 581.32 194.35 584.66 192.93 587.66
  Q 190.98 591.79 189.54 596.15
  C 188.48 599.33 186.76 602.24 185.75 605.49
  C 184.02 611.07 180.74 615.80 178.90 621.29
  C 176.31 628.98 173.55 636.46 169.53 643.89
  Q 168.90 645.05 167.83 644.27
  Q 164.23 641.63 161.98 637.88
  C 159.73 634.13 156.81 631.23 154.44 627.68
  C 150.79 622.21 145.65 618.33 141.77 613.12
  Q 134.47 603.33 126.58 592.84
  Q 124.28 589.77 121.96 587.07
  C 118.67 583.24 116.09 579.17 112.50 575.51
  Q 109.38 572.33 107.13 567.38
  Q 106.65 566.32 104.53 566.34
  C 105.71 566.18 106.47 565.43 106.46 564.18
  Q 106.43 561.93 106.90 560.59
  Q 110.20 551.22 113.77 543.08
  Q 115.66 538.75 117.33 534.30
  C 119.89 527.46 122.90 520.70 125.55 513.69
  C 128.87 504.89 133.00 495.83 136.41 486.86
  C 140.81 475.26 145.50 463.72 150.32 452.30
  Q 151.43 449.69 153.11 446.97
  A 1.75 1.75 0.0 0 0 152.23 444.41
  Q 147.96 442.82 143.53 441.09
  Q 130.89 436.14 118.48 429.19
  Q 114.13 426.75 110.42 424.26
  C 104.02 419.98 97.67 416.11 91.40 411.38
  Q 84.39 406.09 80.83 402.92
  Q 79.00 401.30 75.86 396.43
  Q 76.94 394.05 78.09 390.87
  Q 78.51 389.71 80.48 385.40
  Q 82.16 381.72 82.52 377.68
  Q 84.92 377.42 86.02 378.53
  Q 90.88 383.43 93.95 386.05
  Q 136.13 422.02 190.49 433.55
  Q 193.49 434.19 202.74 435.68
  Q 208.77 436.65 215.16 437.02
  Q 221.84 437.40 227.61 437.63
  Q 238.50 438.08 256.43 436.82
  Q 262.10 436.42 266.99 435.48
  C 271.68 434.58 276.48 433.93 281.10 432.87
  Q 330.62 421.58 370.04 389.54
  Q 376.58 384.23 387.63 372.57
  Z"
/>
<path fill="#f95150" d="
  M 75.86 396.43
  Q 79.00 401.30 80.83 402.92
  Q 84.39 406.09 91.40 411.38
  C 97.67 416.11 104.02 419.98 110.42 424.26
  Q 114.13 426.75 118.48 429.19
  Q 130.89 436.14 143.53 441.09
  Q 147.96 442.82 152.23 444.41
  A 1.75 1.75 0.0 0 1 153.11 446.97
  Q 151.43 449.69 150.32 452.30
  C 145.50 463.72 140.81 475.26 136.41 486.86
  C 133.00 495.83 128.87 504.89 125.55 513.69
  C 122.90 520.70 119.89 527.46 117.33 534.30
  Q 115.66 538.75 113.77 543.08
  Q 110.20 551.22 106.90 560.59
  Q 106.43 561.93 106.46 564.18
  C 106.47 565.43 105.71 566.18 104.53 566.34
  Q 94.80 565.94 91.99 566.76
  C 88.99 567.64 85.79 568.64 82.66 568.59
  Q 77.46 568.53 73.12 569.84
  C 68.96 571.11 64.61 570.84 60.34 571.10
  C 57.83 571.25 55.69 571.91 53.31 572.56
  C 48.92 573.75 44.26 572.68 39.88 574.16
  C 38.12 574.76 36.02 575.42 34.18 575.39
  Q 29.19 575.30 25.32 576.75
  C 20.50 578.56 15.36 576.77 10.64 578.57
  C 8.93 579.23 5.97 580.83 4.24 579.85
  C 2.23 578.70 3.55 575.02 4.32 573.45
  C 6.52 568.93 8.90 564.79 10.44 559.86
  Q 12.45 553.48 14.64 547.23
  C 15.69 544.22 17.74 541.91 18.82 538.94
  Q 20.15 535.28 21.29 531.69
  C 22.94 526.50 25.94 521.96 27.69 516.91
  Q 28.95 513.26 30.61 509.55
  C 33.10 503.96 34.36 497.79 37.02 492.34
  C 38.54 489.23 40.16 486.33 41.28 483.02
  C 42.89 478.30 44.20 473.41 46.41 469.04
  C 47.92 466.07 49.39 463.22 50.46 460.06
  C 52.07 455.23 53.38 450.50 55.77 445.94
  C 58.55 440.62 59.94 435.42 62.42 430.14
  C 63.81 427.19 64.57 423.98 65.97 421.05
  C 67.91 417.01 69.17 412.73 70.94 408.58
  Q 73.33 403.00 75.86 396.43
  Z"
/>
<path fill="#f95150" d="
  M 368.17 567.19
  Q 364.37 570.92 361.53 574.92
  Q 358.68 578.95 356.94 581.11
  C 354.77 583.79 352.92 586.73 350.61 589.32
  Q 347.51 592.81 344.89 596.50
  C 342.28 600.17 338.97 603.35 336.45 607.04
  C 333.67 611.09 330.05 614.37 327.27 618.49
  C 324.88 622.05 321.57 624.78 319.28 628.31
  Q 316.53 632.55 313.33 635.78
  C 310.53 638.61 308.77 641.93 306.35 645.01
  A 0.51 0.50 -49.5 0 1 305.61 645.07
  C 303.44 643.06 303.01 640.48 302.09 637.85
  Q 301.41 635.88 300.38 633.95
  Q 297.55 628.62 295.84 623.57
  C 294.59 619.85 292.67 616.42 291.47 612.64
  C 289.76 607.29 286.53 602.60 284.80 597.22
  C 283.24 592.35 281.89 587.92 279.41 583.04
  Q 276.12 576.55 273.50 567.72
  C 272.63 564.79 270.13 561.94 268.99 558.68
  C 267.58 554.67 266.49 550.45 264.60 546.66
  C 262.68 542.80 261.67 538.69 259.80 534.82
  C 258.31 531.75 257.58 528.40 256.13 525.37
  C 253.94 520.81 252.69 516.17 250.54 511.65
  C 249.06 508.53 248.35 505.22 246.83 502.16
  Q 245.17 498.79 243.99 495.11
  C 242.97 491.95 240.21 489.82 239.65 486.59
  C 239.16 483.75 240.31 482.24 237.27 480.08
  Q 236.02 479.08 235.53 477.00
  Q 233.63 469.02 229.76 461.21
  Q 229.47 460.62 229.51 459.91
  A 0.62 0.62 0.0 0 1 230.15 459.33
  C 241.54 459.65 252.91 458.73 264.19 457.42
  Q 271.39 456.58 277.75 455.31
  Q 295.34 451.81 312.33 445.99
  Q 315.27 444.98 318.04 443.81
  A 2.52 2.52 0.0 0 1 321.44 445.39
  C 322.99 450.53 325.38 455.19 326.27 460.64
  C 326.68 463.09 328.29 464.47 330.07 465.93
  Q 330.45 466.25 330.47 466.74
  Q 330.67 470.39 332.28 473.18
  A 0.62 0.62 0.0 0 1 331.80 474.11
  Q 327.37 474.51 325.05 477.87
  Q 323.55 480.03 324.46 482.31
  C 326.33 487.03 331.29 490.98 336.61 489.93
  C 339.91 489.28 340.97 493.56 341.99 495.69
  Q 342.28 496.30 342.07 496.94
  C 340.91 500.41 343.91 503.08 345.08 505.83
  Q 350.88 519.47 357.51 536.02
  Q 362.56 548.65 367.68 561.25
  Q 368.54 563.37 368.17 567.19
  Z"
/>
</svg>
