<?xml version="1.0" encoding="UTF-8" standalone="no"?>
<!DOCTYPE svg PUBLIC "-//W3C//DTD SVG 1.1//EN" "http://www.w3.org/Graphics/SVG/1.1/DTD/svg11.dtd">
<svg xmlns="http://www.w3.org/2000/svg" version="1.1" viewBox="0.00 0.00 546.00 457.00">
<g stroke-width="2.00" fill="none" stroke-linecap="butt">
<path stroke="#808080" vector-effect="non-scaling-stroke" d="
  M 274.47 97.91
  L 267.02 104.64"
/>
<path stroke="#f7decb" vector-effect="non-scaling-stroke" d="
  M 267.02 104.64
  Q 264.63 116.37 263.90 128.50
  C 263.59 133.72 265.74 139.92 271.12 140.87
  Q 276.78 141.86 276.87 144.45"
/>
<path stroke="#87a3e1" vector-effect="non-scaling-stroke" d="
  M 276.87 144.45
  L 276.44 146.26"
/>
<path stroke="#808080" vector-effect="non-scaling-stroke" d="
  M 276.44 146.26
  Q 276.12 146.75 275.28 146.99"
/>
<path stroke="#87a3e1" vector-effect="non-scaling-stroke" d="
  M 275.28 146.99
  L 269.17 148.64"
/>
<path stroke="#f0a0a0" vector-effect="non-scaling-stroke" d="
  M 269.17 148.64
  L 264.45 150.75"
/>
<path stroke="#a39496" vector-effect="non-scaling-stroke" d="
  M 264.45 150.75
  Q 262.87 151.24 262.53 152.23"
/>
<path stroke="#f0a0a0" vector-effect="non-scaling-stroke" d="
  M 262.53 152.23
  Q 251.70 160.09 242.48 168.81"
/>
<path stroke="#ff9381" vector-effect="non-scaling-stroke" d="
  M 242.48 168.81
  C 242.35 165.62 243.18 163.08 239.34 161.39"
/>
<path stroke="#808080" vector-effect="non-scaling-stroke" d="
  M 239.34 161.39
  L 239.26 150.03
  Q 239.26 149.31 238.54 149.28
  L 238.20 149.26
  A 0.44 0.43 1.3 0 0 237.74 149.69
  L 237.65 161.42"
/>
<path stroke="#ff9381" vector-effect="non-scaling-stroke" d="
  M 237.65 161.42
  L 235.93 162.20"
/>
<path stroke="#f0a0a0" vector-effect="non-scaling-stroke" d="
  M 235.93 162.20
  Q 234.68 160.32 234.05 157.07"
/>
<path stroke="#f7decb" vector-effect="non-scaling-stroke" d="
  M 234.05 157.07
  L 228.29 138.07"
/>
<path stroke="#a39496" vector-effect="non-scaling-stroke" d="
  M 228.29 138.07
  Q 228.36 136.67 227.63 136.28"
/>
<path stroke="#f7decb" vector-effect="non-scaling-stroke" d="
  M 227.63 136.28
  Q 226.30 131.98 225.09 127.73
  Q 224.08 124.18 222.61 121.68
  C 220.33 117.78 218.49 113.41 214.99 110.48
  A 1.55 1.55 0.0 0 0 212.47 111.43
  C 211.93 114.89 214.16 120.36 215.70 123.34
  A 0.75 0.75 0.0 0 1 215.15 124.42
  Q 212.63 124.79 210.17 126.21"
/>
<path stroke="#b0e6ff" vector-effect="non-scaling-stroke" d="
  M 210.17 126.21
  Q 209.36 125.58 208.91 124.81"
/>
<path stroke="#a39496" vector-effect="non-scaling-stroke" d="
  M 208.91 124.81
  L 208.82 113.31
  Q 208.82 112.52 208.03 112.52
  L 207.68 112.52
  A 0.51 0.51 0.0 0 0 207.17 113.02
  L 207.08 124.36"
/>
<path stroke="#b0e6ff" vector-effect="non-scaling-stroke" d="
  M 207.08 124.36
  Q 202.93 126.77 204.34 130.97"
/>
<path stroke="#f7decb" vector-effect="non-scaling-stroke" d="
  M 204.34 130.97
  Q 200.46 136.03 202.34 141.73
  C 202.87 143.32 204.46 143.96 204.39 145.85
  Q 204.37 146.32 204.54 146.75
  L 207.33 153.74"
/>
<path stroke="#808080" vector-effect="non-scaling-stroke" d="
  M 207.33 153.74
  L 207.19 160.99
  A 0.45 0.45 0.0 0 0 207.66 161.45
  L 208.04 161.44
  A 0.76 0.76 0.0 0 0 208.77 160.68
  L 208.75 155.21"
/>
<path stroke="#f7decb" vector-effect="non-scaling-stroke" d="
  M 208.75 155.21
  Q 210.06 154.80 210.13 156.37
  Q 210.24 159.28 210.42 163.21"
/>
<path stroke="#f0a0a0" vector-effect="non-scaling-stroke" d="
  M 210.42 163.21
  Q 209.53 176.16 213.45 189.50
  C 215.59 196.78 220.82 204.82 228.97 206.07
  C 240.65 207.86 252.72 201.63 261.42 193.77
  A 0.85 0.85 0.0 0 1 262.83 194.31
  L 263.77 203.28"
/>
<path stroke="#f7decb" vector-effect="non-scaling-stroke" d="
  M 263.77 203.28
  L 263.39 204.69
  A 1.35 1.34 80.5 0 1 262.85 205.45
  C 260.53 206.98 258.83 208.08 256.39 210.20
  Q 253.46 212.75 249.33 213.70"
/>
<path stroke="#f7eeeb" vector-effect="non-scaling-stroke" d="
  M 102.82 158.07
  Q 104.70 155.19 107.08 152.73
  Q 110.38 149.31 111.28 147.75
  Q 113.04 144.69 113.30 141.71
  Q 114.06 132.93 112.60 121.18
  A 0.92 0.91 7.3 0 0 112.03 120.45
  L 110.76 119.96"
/>
<path stroke="#f0a0a0" vector-effect="non-scaling-stroke" d="
  M 110.76 119.96
  Q 110.84 118.60 110.27 117.79
  A 1.03 1.01 72.1 0 0 109.47 117.37
  Q 107.95 117.31 107.12 116.88"
/>
<path stroke="#7f82ac" vector-effect="non-scaling-stroke" d="
  M 304.04 144.47
  L 276.87 144.45"
/>
<path stroke="#786e6b" vector-effect="non-scaling-stroke" d="
  M 292.00 151.95
  L 289.04 148.66
  A 0.62 0.62 0.0 0 0 288.07 148.73
  L 285.67 152.21"
/>
<path stroke="#072461" vector-effect="non-scaling-stroke" d="
  M 285.67 152.21
  Q 284.06 153.19 283.71 154.03
  A 1.28 1.28 0.0 0 1 281.51 154.32
  Q 279.25 151.34 276.43 148.37
  Q 276.04 147.96 276.29 147.48
  Q 276.56 146.94 275.97 146.87
  Q 275.61 146.82 275.28 146.99"
/>
<path stroke="#547b96" vector-effect="non-scaling-stroke" d="
  M 208.91 124.81
  Q 208.19 124.88 207.08 124.36"
/>
<path stroke="#e88f8c" vector-effect="non-scaling-stroke" d="
  M 110.76 119.96
  Q 110.73 133.87 110.38 137.63
  C 109.60 146.09 103.72 151.60 96.36 154.86
  Q 93.66 156.05 89.59 155.33"
/>
<path stroke="#943537" vector-effect="non-scaling-stroke" d="
  M 325.26 223.71
  Q 311.58 223.27 298.62 220.29
  Q 297.81 220.10 297.65 220.91
  L 297.57 221.27
  A 0.37 0.36 -76.6 0 0 297.83 221.70
  Q 309.27 224.93 321.50 225.04
  Q 323.23 225.06 324.90 224.78"
/>
<path stroke="#e87f6c" vector-effect="non-scaling-stroke" d="
  M 339.55 367.42
  L 330.17 367.48"
/>
<path stroke="#943537" vector-effect="non-scaling-stroke" d="
  M 330.17 367.48
  C 329.88 363.94 329.55 360.29 328.83 356.80
  Q 324.09 333.94 319.58 312.98
  Q 317.87 305.07 317.52 295.50
  Q 316.70 273.50 317.12 248.09
  Q 317.13 247.59 317.63 247.62
  Q 322.23 247.90 327.78 248.59
  Q 328.48 248.68 328.81 248.06
  L 328.97 247.78
  A 0.42 0.42 0.0 0 0 328.62 247.16
  C 313.63 246.76 298.38 242.24 286.71 232.69
  Q 286.33 232.38 286.31 231.88
  L 285.98 221.28
  A 0.39 0.39 0.0 0 0 285.55 220.91
  L 285.17 220.96
  A 0.67 0.66 -3.8 0 0 284.58 221.63
  L 284.67 231.98
  A 1.05 1.04 70.9 0 1 284.26 232.83
  Q 270.85 243.28 253.88 244.91
  Q 252.84 245.01 252.57 245.96"
/>
<path stroke="#e87f6c" vector-effect="non-scaling-stroke" d="
  M 257.32 228.74
  Q 260.85 228.19 263.21 225.63
  Q 266.16 222.43 266.55 222.11
  Q 269.55 219.57 272.58 216.87
  Q 273.10 216.40 273.73 216.71
  L 273.95 216.82
  A 0.36 0.36 0.0 0 1 274.04 217.41
  Q 269.20 222.04 263.95 226.23
  C 262.60 227.31 262.29 229.08 262.89 230.65
  A 0.85 0.84 68.4 0 0 264.00 231.14
  C 268.55 229.30 272.09 225.70 275.76 222.51
  A 3.19 3.19 0.0 0 1 277.85 221.73
  Q 282.98 221.72 288.65 218.87
  Q 289.61 218.39 290.58 218.74
  Q 293.49 219.77 296.30 220.45
  Q 298.02 220.87 298.15 219.11
  L 299.74 197.89"
/>
<path stroke="#943537" vector-effect="non-scaling-stroke" d="
  M 299.74 197.89
  L 322.02 197.40
  A 0.58 0.57 3.5 0 0 322.58 196.91
  L 322.62 196.59
  A 0.42 0.42 0.0 0 0 322.21 196.11
  L 316.54 196.13
  Q 315.30 196.13 314.86 194.98
  L 312.05 187.64
  Q 311.83 187.08 311.25 187.23
  L 311.00 187.29
  Q 310.61 187.39 310.75 187.77
  L 313.61 195.37
  Q 313.81 195.91 313.23 195.94
  L 298.84 196.59"
/>
<path stroke="#e87f6c" vector-effect="non-scaling-stroke" d="
  M 298.84 196.59
  Q 295.17 197.98 290.72 197.41"
/>
<path stroke="#943537" vector-effect="non-scaling-stroke" d="
  M 290.72 197.41
  L 310.83 177.76
  A 1.21 1.21 0.0 0 0 311.11 176.43
  L 307.67 167.98
  A 0.60 0.60 0.0 0 1 308.30 167.15
  L 313.93 167.80
  A 1.74 1.73 3.1 0 0 315.87 166.06
  L 315.72 150.75
  Q 315.71 150.04 315.04 149.82
  L 314.78 149.73
  Q 314.13 149.51 314.15 150.19
  L 314.61 165.49
  Q 314.64 166.36 313.77 166.31
  L 306.74 165.90
  A 0.75 0.75 0.0 0 0 306.00 166.93
  L 309.66 176.18
  A 1.33 1.32 -32.7 0 1 309.34 177.63
  Q 299.07 187.30 288.54 197.04
  Q 288.15 197.40 288.26 198.07"
/>
<path stroke="#e87f6c" vector-effect="non-scaling-stroke" d="
  M 288.26 198.07
  Q 285.54 198.44 282.76 198.80
  Q 273.10 200.04 264.31 204.25
  Q 263.87 204.46 263.77 203.28"
/>
<path stroke="#f03422" vector-effect="non-scaling-stroke" d="
  M 235.93 162.20
  Q 236.24 166.86 238.18 171.26
  Q 238.40 171.75 238.84 171.44
  L 242.48 168.81"
/>
<path stroke="#943537" vector-effect="non-scaling-stroke" d="
  M 262.53 152.23
  L 261.69 165.55
  A 0.67 0.67 0.0 0 0 262.47 166.25
  L 268.56 165.23
  A 0.83 0.83 0.0 0 1 269.49 166.32
  L 266.90 173.84
  A 2.47 2.46 31.9 0 0 267.51 176.42
  L 283.59 191.98
  Q 283.97 192.34 283.99 192.87
  L 284.16 197.53
  Q 284.18 198.14 284.78 198.09
  L 285.20 198.06
  Q 285.47 198.04 285.48 197.77
  Q 285.53 195.77 285.56 193.93
  Q 285.57 192.39 286.59 190.30
  Q 287.93 187.56 289.15 184.75"
/>
<path stroke="#e88f8c" vector-effect="non-scaling-stroke" d="
  M 289.15 184.75
  L 295.15 172.86"
/>
<path stroke="#547b96" vector-effect="non-scaling-stroke" d="
  M 210.59 126.68
  Q 209.55 127.01 209.86 127.81"
/>
<path stroke="#a8c5cb" vector-effect="non-scaling-stroke" d="
  M 209.86 127.81
  Q 205.94 127.68 205.24 131.43"
/>
<path stroke="#547b96" vector-effect="non-scaling-stroke" d="
  M 205.24 131.43
  Q 204.82 131.50 205.07 131.79"
/>
<path stroke="#a8c5cb" vector-effect="non-scaling-stroke" d="
  M 205.07 131.79
  Q 203.23 131.02 204.34 130.97"
/>
<path stroke="#7f92cc" vector-effect="non-scaling-stroke" d="
  M 285.67 152.21
  Q 285.09 163.27 282.40 173.83"
/>
<path stroke="#784482" vector-effect="non-scaling-stroke" d="
  M 282.40 173.83
  Q 282.02 174.02 281.86 173.69
  Q 275.70 161.14 269.17 148.64"
/>
<path stroke="#784482" vector-effect="non-scaling-stroke" d="
  M 309.50 147.90
  Q 302.42 160.46 295.69 172.73
  Q 295.59 172.92 295.15 172.86"
/>
<path stroke="#7f92cc" vector-effect="non-scaling-stroke" d="
  M 295.15 172.86
  Q 292.55 162.56 292.00 151.95"
/>
<path stroke="#072461" vector-effect="non-scaling-stroke" d="
  M 292.00 151.95
  L 294.13 154.16
  Q 295.52 155.62 297.01 154.27
  L 304.11 147.89
  A 0.39 0.38 -43.4 0 0 304.13 147.34
  L 303.90 147.09
  A 0.63 0.63 0.0 0 0 303.02 147.05
  L 296.31 153.01
  A 0.88 0.88 0.0 0 1 295.08 152.95
  L 289.83 147.40
  Q 288.60 146.10 287.44 147.47
  L 283.35 152.32
  A 1.09 1.09 0.0 0 1 281.69 152.33
  Q 279.47 149.78 277.52 147.23
  Q 277.37 147.03 277.38 146.76
  Q 277.40 146.02 276.89 146.58
  Q 276.84 146.63 276.79 146.67
  Q 276.48 146.92 276.39 146.54
  Q 276.35 146.40 276.44 146.26"
/>
<path stroke="#9b7362" vector-effect="non-scaling-stroke" d="
  M 254.38 227.24
  L 271.12 213.66
  A 0.59 0.59 0.0 0 0 271.18 212.81
  L 270.95 212.56
  Q 270.66 212.24 270.32 212.49
  Q 261.21 218.98 253.18 226.55"
/>
<path stroke="#9b7362" vector-effect="non-scaling-stroke" d="
  M 250.75 223.57
  Q 258.35 215.63 267.70 209.51
  A 0.38 0.37 -37.2 0 0 267.78 208.94
  L 267.55 208.68
  A 0.85 0.84 -38.0 0 0 266.45 208.55
  Q 257.97 214.25 251.12 221.31
  C 250.63 221.81 250.59 222.35 250.54 223.03"
/>
<path stroke="#9b7362" vector-effect="non-scaling-stroke" d="
  M 228.29 138.07
  Q 222.28 135.05 216.55 133.05
  Q 214.60 132.37 212.51 132.59
  A 0.94 0.93 66.3 0 0 211.91 134.14
  Q 214.71 137.32 218.06 139.46
  A 1.84 1.84 0.0 0 1 218.61 142.01
  Q 215.30 147.11 216.03 152.89
  Q 216.10 153.42 215.56 153.40
  L 215.27 153.39
  A 0.78 0.78 0.0 0 1 214.54 152.73
  Q 213.67 146.74 217.07 141.55
  Q 217.38 141.07 216.94 140.70
  L 213.86 138.17
  A 0.55 0.54 -60.0 0 0 213.01 138.40
  Q 212.01 140.97 209.28 141.23
  Q 208.75 141.28 208.36 141.65
  L 205.64 144.31
  A 0.42 0.42 0.0 0 1 205.04 144.29
  L 204.84 144.09
  Q 204.47 143.68 204.84 143.28
  L 206.57 141.41
  Q 207.13 140.80 206.73 140.07
  Q 204.56 136.11 205.07 131.79"
/>
<path stroke="#9b7362" vector-effect="non-scaling-stroke" d="
  M 205.24 131.43
  Q 206.14 131.43 206.17 132.24
  Q 206.28 135.39 207.56 138.34
  A 2.03 2.02 65.7 0 0 210.27 139.37
  C 212.26 138.44 211.76 136.19 210.79 134.70
  Q 210.45 134.19 210.39 133.58
  L 209.86 127.81"
/>
<path stroke="#e87f6c" vector-effect="non-scaling-stroke" d="
  M 234.05 157.07
  L 210.42 163.21"
/>
<path stroke="#785f4b" vector-effect="non-scaling-stroke" d="
  M 208.75 155.21
  Q 208.40 154.06 207.33 153.74"
/>
<path stroke="#9b7362" vector-effect="non-scaling-stroke" d="
  M 227.63 136.28
  L 220.00 132.70
  A 1.69 1.69 0.0 0 1 219.07 131.49
  Q 218.37 127.82 216.72 124.74
  A 0.26 0.26 0.0 0 0 216.29 124.71
  L 216.14 124.93
  A 1.09 1.09 0.0 0 0 215.98 125.89
  L 217.52 130.60
  Q 217.92 131.83 216.64 131.66
  L 212.68 131.13
  Q 211.46 130.97 211.48 129.75
  Q 211.49 128.52 210.59 126.68"
/>
<path stroke="#a8c5cb" vector-effect="non-scaling-stroke" d="
  M 210.59 126.68
  Q 210.24 126.73 210.17 126.21"
/>
<path stroke="#785f4b" vector-effect="non-scaling-stroke" d="
  M 304.11 138.94
  Q 297.03 138.62 291.89 135.45
  A 0.55 0.54 44.9 0 1 291.88 134.52
  Q 295.52 132.24 298.13 129.07
  C 300.48 126.22 300.69 121.57 296.94 119.86
  C 293.97 118.52 290.23 119.37 287.26 120.57
  A 0.92 0.91 68.8 0 1 286.07 120.04
  Q 284.40 115.63 283.98 110.58
  Q 283.93 110.05 283.40 110.05
  Q 280.48 110.02 277.75 109.90
  Q 271.78 109.62 267.02 104.64"
/>
<path stroke="#801302" vector-effect="non-scaling-stroke" d="
  M 239.34 161.39
  Q 238.41 161.77 237.65 161.42"
/>
<path stroke="#e88f8c" vector-effect="non-scaling-stroke" d="
  M 282.40 173.83
  C 282.54 174.40 282.44 174.78 282.72 175.35
  Q 285.18 180.42 287.88 185.37"
/>
<path stroke="#943537" vector-effect="non-scaling-stroke" d="
  M 287.88 185.37
  Q 286.14 187.43 284.99 190.58
  A 0.49 0.49 0.0 0 1 284.19 190.77
  L 268.22 175.57
  A 1.22 1.22 0.0 0 1 267.91 174.31
  L 270.98 164.95
  A 0.92 0.92 0.0 0 0 269.92 163.77
  L 264.01 165.02
  A 0.87 0.87 0.0 0 1 262.96 164.08
  L 264.45 150.75"
/>
<path stroke="#9b8382" vector-effect="non-scaling-stroke" d="
  M 289.15 184.75
  L 287.88 185.37"
/>
<path stroke="#a187a0" vector-effect="non-scaling-stroke" d="
  M 341.83 187.00
  L 332.53 165.14"
/>
<path stroke="#7f82ac" vector-effect="non-scaling-stroke" d="
  M 338.64 385.29
  Q 331.31 385.54 327.78 392.75
  Q 327.68 392.95 327.45 392.95
  L 317.44 392.99
  A 0.14 0.13 7.6 0 1 317.30 392.82
  Q 318.30 389.02 319.65 385.47
  C 321.08 381.75 320.75 377.14 316.22 376.30
  Q 313.01 375.70 304.88 376.31"
/>
<path stroke="#9b7362" vector-effect="non-scaling-stroke" d="
  M 299.74 197.89
  Q 299.23 197.63 298.84 196.59"
/>
<path stroke="#9b7362" vector-effect="non-scaling-stroke" d="
  M 290.72 197.41
  Q 289.63 197.91 288.26 198.07"
/>
<path stroke="#9b7362" vector-effect="non-scaling-stroke" d="
  M 330.17 367.48
  Q 329.43 367.91 328.71 367.48"
/>
<path stroke="#943537" vector-effect="non-scaling-stroke" d="
  M 328.71 367.48
  Q 327.32 355.71 326.03 349.74
  Q 322.93 335.41 319.96 321.52
  Q 317.87 311.72 317.19 305.87
  Q 316.25 297.82 316.12 290.03
  Q 315.81 270.86 315.84 251.28
  Q 315.84 249.50 316.07 247.83
  Q 316.17 247.16 315.51 247.01
  C 304.80 244.52 294.93 240.91 286.36 234.03
  A 1.32 1.32 0.0 0 0 284.75 234.01
  Q 270.22 244.98 252.55 246.35"
/>
<path stroke="#e87f6c" vector-effect="non-scaling-stroke" d="
  M 328.71 367.48
  L 304.07 367.56"
/>
<path stroke="#943537" vector-effect="non-scaling-stroke" d="
  M 289.01 285.74
  Q 289.34 282.84 288.79 277.00
  Q 287.98 268.24 287.33 258.69
  Q 287.17 256.44 286.11 258.40
  Q 285.76 259.03 285.90 260.50
  Q 286.77 270.25 287.77 280.00
  C 287.94 281.68 287.71 283.98 288.21 285.97"
/>
<path stroke="#e87f6c" vector-effect="non-scaling-stroke" d="
  M 277.57 367.51
  L 242.55 367.45"
/>
<path stroke="#a187a0" vector-effect="non-scaling-stroke" d="
  M 242.29 363.80
  Q 240.55 329.34 240.47 318.00
  Q 240.31 295.77 246.48 270.09"
/>
<path stroke="#072461" vector-effect="non-scaling-stroke" d="
  M 334.76 404.19
  L 286.26 403.92"
/>
<path stroke="#072461" vector-effect="non-scaling-stroke" d="
  M 300.62 391.50
  L 305.32 394.81
  A 0.53 0.53 0.0 0 0 306.14 394.52
  L 306.23 394.23
  A 0.60 0.59 24.5 0 0 305.98 393.57
  L 301.54 390.65"
/>
<path stroke="#7f82ac" vector-effect="non-scaling-stroke" d="
  M 276.27 384.89
  Q 268.83 385.43 265.33 391.94
  Q 264.89 392.76 263.96 392.76
  L 255.27 392.73
  Q 254.65 392.73 254.80 392.13
  Q 255.61 388.78 257.03 384.98
  C 261.07 374.14 248.60 375.63 242.94 376.14"
/>
<path stroke="#316680" vector-effect="non-scaling-stroke" d="
  M 236.77 365.27
  L 227.24 365.19"
/>
<path stroke="#388ae1" vector-effect="non-scaling-stroke" d="
  M 183.11 365.17
  Q 185.43 357.65 183.03 350.25
  Q 182.89 349.84 183.25 349.58
  Q 183.38 349.49 183.55 349.43"
/>
<path stroke="#316680" vector-effect="non-scaling-stroke" d="
  M 183.55 349.43
  L 233.36 349.38
  Q 237.25 349.38 237.25 345.50
  L 237.26 286.22
  A 3.30 3.29 -90.0 0 0 233.97 282.92
  L 174.16 282.93
  A 3.41 3.40 -90.0 0 0 170.76 286.34
  L 170.76 295.20
  Q 170.77 295.77 170.20 295.83
  C 166.96 296.19 164.72 297.86 165.37 301.43
  Q 166.04 305.11 169.76 305.18
  A 1.01 1.01 0.0 0 1 170.76 306.20
  L 170.74 326.28
  Q 170.74 326.92 170.12 327.12
  C 169.48 327.33 168.74 327.15 168.03 327.42
  C 164.32 328.81 164.55 333.15 167.23 335.66"
/>
<path stroke="#388ae1" vector-effect="non-scaling-stroke" d="
  M 167.23 335.66
  Q 161.57 334.95 159.75 335.32
  Q 157.41 335.81 155.05 335.95"
/>
<path stroke="#072461" vector-effect="non-scaling-stroke" d="
  M 272.31 404.20
  Q 250.71 404.26 229.25 404.21
  Q 226.58 404.20 224.24 403.57"
/>
<path stroke="#072461" vector-effect="non-scaling-stroke" d="
  M 238.58 391.31
  Q 240.16 393.85 242.78 394.85
  Q 243.41 395.09 243.69 394.47
  L 243.80 394.22
  A 0.43 0.43 0.0 0 0 243.58 393.65
  Q 241.19 392.63 239.36 390.53"
/>
<path stroke="#072461" vector-effect="non-scaling-stroke" d="
  M 183.55 349.43
  Q 182.55 348.80 182.51 348.03"
/>
<path stroke="#316680" vector-effect="non-scaling-stroke" d="
  M 182.51 348.03
  L 234.10 347.95
  A 1.69 1.69 0.0 0 0 235.79 346.26
  L 235.78 286.45
  Q 235.78 284.36 233.69 284.36
  L 174.06 284.35
  A 1.84 1.83 -90.0 0 0 172.23 286.19
  L 172.21 295.04
  Q 172.21 295.84 173.01 295.92
  C 179.98 296.60 178.74 305.50 173.08 305.20
  A 0.82 0.82 0.0 0 0 172.21 306.03
  L 172.25 326.50
  A 0.72 0.72 0.0 0 0 173.00 327.22
  Q 177.02 327.07 177.56 331.03
  Q 178.24 336.06 171.47 336.88"
/>
<path stroke="#072461" vector-effect="non-scaling-stroke" d="
  M 171.47 336.88
  L 167.23 335.66"
/>
<path stroke="#b07981" vector-effect="non-scaling-stroke" d="
  M 186.24 266.99
  Q 184.48 268.47 182.14 270.64
  Q 176.81 275.59 169.50 275.72
  Q 160.25 275.89 153.45 269.18"
/>
<path stroke="#388ae1" vector-effect="non-scaling-stroke" d="
  M 182.51 348.03
  Q 178.44 341.58 171.47 336.88"
/>
<path stroke="#784482" vector-effect="non-scaling-stroke" d="
  M 482.94 158.44
  Q 481.12 158.27 479.29 158.14
  Q 477.13 157.98 475.79 157.32
  Q 470.10 154.55 469.47 147.33"
/>
<path stroke="#388ae1" vector-effect="non-scaling-stroke" d="
  M 453.49 176.20
  Q 452.14 176.18 451.14 177.31
  Q 450.81 177.69 450.31 177.74
  Q 450.02 177.77 449.85 177.52
  Q 449.66 177.22 449.59 176.84
  Q 449.45 176.01 448.88 175.92"
/>
<path stroke="#a8d4eb" vector-effect="non-scaling-stroke" d="
  M 437.41 228.33
  Q 421.79 227.97 412.76 228.15
  Q 402.70 228.34 399.84 219.21
  C 399.76 218.93 399.49 218.67 399.24 218.60"
/>
<path stroke="#a39496" vector-effect="non-scaling-stroke" d="
  M 126.32 303.86
  L 98.30 315.25"
/>
<path stroke="#a39496" vector-effect="non-scaling-stroke" d="
  M 125.78 306.01
  L 101.25 315.64
  A 0.87 0.86 68.1 0 0 100.77 316.78
  C 101.48 318.52 103.60 320.77 101.76 322.71"
/>
<path stroke="#a39496" vector-effect="non-scaling-stroke" d="
  M 100.45 321.41
  Q 99.98 320.20 99.12 319.38"
/>
<path stroke="#b0e6ff" vector-effect="non-scaling-stroke" d="
  M 160.93 127.98
  Q 160.64 128.79 160.07 129.55
  C 158.97 131.00 158.27 133.56 158.22 135.02
  Q 157.61 150.97 157.83 175.25
  Q 157.91 184.17 160.36 190.10"
/>
<path stroke="#a39496" vector-effect="non-scaling-stroke" d="
  M 160.36 190.10
  Q 161.45 194.62 161.03 200.00
  Q 160.95 201.00 161.79 201.17
  A 0.47 0.46 6.9 0 0 162.35 200.74
  L 162.59 194.49"
/>
<path stroke="#b0e6ff" vector-effect="non-scaling-stroke" d="
  M 162.59 194.49
  L 162.69 191.48
  A 1.80 1.77 -27.4 0 1 162.99 190.56
  Q 164.67 188.04 164.86 185.74
  C 165.41 178.92 165.70 171.93 165.61 164.82
  Q 165.48 155.33 165.48 146.70
  C 165.47 142.30 165.05 137.71 164.90 133.26
  Q 164.83 131.00 162.80 128.97"
/>
<path stroke="#a39496" vector-effect="non-scaling-stroke" d="
  M 162.80 128.97
  L 162.33 118.77
  Q 162.32 118.48 162.03 118.49
  L 161.74 118.51
  Q 161.18 118.53 161.17 119.09
  L 160.93 127.98"
/>
<path stroke="#547b96" vector-effect="non-scaling-stroke" d="
  M 162.80 128.97
  Q 162.26 129.27 161.61 129.21
  Q 161.09 129.17 160.97 128.66
  Q 160.88 128.29 160.93 127.98"
/>
<path stroke="#547b96" vector-effect="non-scaling-stroke" d="
  M 162.59 194.49
  Q 162.62 193.15 162.61 191.81
  Q 162.61 190.76 162.28 190.27
  Q 161.64 189.34 160.36 190.10"
/>
<path stroke="#b0e6ff" vector-effect="non-scaling-stroke" d="
  M 191.70 135.47
  Q 190.68 137.36 189.88 139.27
  Q 189.12 141.10 188.94 143.33
  Q 187.55 160.33 189.49 177.25
  Q 189.70 179.13 191.71 181.57"
/>
<path stroke="#808080" vector-effect="non-scaling-stroke" d="
  M 191.71 181.57
  L 191.97 193.19
  A 0.41 0.41 0.0 0 0 192.37 193.59
  L 192.72 193.59
  Q 192.97 193.59 192.97 193.34
  L 193.09 182.39"
/>
<path stroke="#b0e6ff" vector-effect="non-scaling-stroke" d="
  M 193.09 182.39
  Q 195.75 178.27 195.98 175.77
  Q 197.22 162.48 196.01 142.01
  Q 195.81 138.68 193.39 136.62"
/>
<path stroke="#808080" vector-effect="non-scaling-stroke" d="
  M 193.39 136.62
  L 193.14 124.93
  A 0.31 0.30 88.1 0 0 192.83 124.63
  L 192.50 124.63
  A 0.64 0.64 0.0 0 0 191.88 125.26
  L 191.70 135.47"
/>
<path stroke="#316680" vector-effect="non-scaling-stroke" d="
  M 193.39 136.62
  Q 193.18 137.56 192.80 137.73
  Q 192.39 137.91 192.09 137.23
  Q 191.76 136.50 191.70 135.47"
/>
<path stroke="#316680" vector-effect="non-scaling-stroke" d="
  M 193.09 182.39
  L 192.88 181.00
  Q 192.80 180.47 192.32 180.69
  Q 191.88 180.88 191.71 181.57"
/>
<path stroke="#87a3e1" vector-effect="non-scaling-stroke" d="
  M 148.02 165.81
  C 149.08 164.60 149.69 163.21 149.77 161.61
  Q 150.23 152.29 149.64 143.95
  C 149.48 141.69 147.65 140.45 147.51 138.15
  Q 147.25 133.79 147.10 129.22
  A 0.29 0.28 -6.1 0 0 146.76 128.95
  L 146.50 129.00
  Q 145.98 129.09 145.99 129.62
  Q 146.02 134.35 145.30 138.64
  C 144.97 140.59 143.25 141.58 143.10 143.63
  Q 142.46 152.36 142.93 161.66
  C 143.04 163.74 144.42 164.96 145.42 166.62
  A 1.92 1.89 -61.7 0 1 145.70 167.58
  L 145.96 176.30
  A 0.40 0.40 0.0 0 0 146.56 176.64
  L 146.88 176.46
  Q 147.00 176.39 147.01 176.26
  L 147.27 167.70
  Q 147.30 166.62 148.02 165.81"
/>
<path stroke="#808080" vector-effect="non-scaling-stroke" d="
  M 177.8936 135.5066
  A 0.58 0.58 0.0 0 0 177.3197 134.9205
  L 177.2797 134.9201
  A 0.58 0.58 0.0 0 0 176.6936 135.4940
  L 176.5864 145.7334
  A 0.58 0.58 0.0 0 0 177.1603 146.3195
  L 177.2003 146.3199
  A 0.58 0.58 0.0 0 0 177.7864 145.7460
  L 177.8936 135.5066"
/>
<path stroke="#808080" vector-effect="non-scaling-stroke" d="
  M 177.78 171.57
  A 0.47 0.47 0.0 0 0 177.31 171.10
  L 177.27 171.10
  A 0.47 0.47 0.0 0 0 176.80 171.57
  L 176.80 181.87
  A 0.47 0.47 0.0 0 0 177.27 182.34
  L 177.31 182.34
  A 0.47 0.47 0.0 0 0 177.78 181.87
  L 177.78 171.57"
/>
<path stroke="#785f4b" vector-effect="non-scaling-stroke" d="
  M 269.16 119.24
  A 1.10 1.10 0.0 0 0 268.06 118.14
  A 1.10 1.10 0.0 0 0 266.96 119.24
  A 1.10 1.10 0.0 0 0 268.06 120.34
  A 1.10 1.10 0.0 0 0 269.16 119.24"
/>
<path stroke="#785f4b" vector-effect="non-scaling-stroke" d="
  M 277.82 119.86
  A 1.12 1.12 0.0 0 0 276.70 118.74
  A 1.12 1.12 0.0 0 0 275.58 119.86
  A 1.12 1.12 0.0 0 0 276.70 120.98
  A 1.12 1.12 0.0 0 0 277.82 119.86"
/>
<path stroke="#9b7362" vector-effect="non-scaling-stroke" d="
  M 271.7613 121.7166
  A 0.58 0.58 0.0 0 0 271.1357 121.1861
  L 270.8766 121.2074
  A 0.58 0.58 0.0 0 0 270.3460 121.8330
  L 270.5787 124.6634
  A 0.58 0.58 0.0 0 0 271.2043 125.1939
  L 271.4634 125.1726
  A 0.58 0.58 0.0 0 0 271.9940 124.5470
  L 271.7613 121.7166"
/>
<path stroke="#785f4b" vector-effect="non-scaling-stroke" d="
  M 293.8566 124.7381
  A 0.48 0.48 0.0 0 0 293.2220 124.4970
  L 289.0080 126.3909
  A 0.48 0.48 0.0 0 0 288.7670 127.0254
  L 288.7834 127.0619
  A 0.48 0.48 0.0 0 0 289.4180 127.3030
  L 293.6320 125.4091
  A 0.48 0.48 0.0 0 0 293.8730 124.7746
  L 293.8566 124.7381"
/>
<path stroke="#785f4b" vector-effect="non-scaling-stroke" d="
  M 272.47 130.33
  Q 275.17 129.94 276.03 127.88
  Q 276.09 127.75 276.04 127.60
  Q 275.98 127.43 275.77 127.38
  Q 275.34 127.29 275.07 127.63
  Q 273.76 129.31 271.80 129.07
  Q 271.40 129.01 271.24 129.39
  Q 271.06 129.83 271.94 130.25
  A 0.94 0.91 -35.4 0 0 272.47 130.33"
/>
<path stroke="#785f4b" vector-effect="non-scaling-stroke" d="
  M 283.4800 140.0317
  A 0.53 0.53 0.0 0 0 282.8594 139.6115
  L 277.0462 140.7309
  A 0.53 0.53 0.0 0 0 276.6259 141.3516
  L 276.6600 141.5283
  A 0.53 0.53 0.0 0 0 277.2806 141.9485
  L 283.0938 140.8291
  A 0.53 0.53 0.0 0 0 283.5141 140.2084
  L 283.4800 140.0317"
/>
<path stroke="#712121" vector-effect="non-scaling-stroke" d="
  M 91.90 133.90
  Q 91.05 133.35 90.41 132.51
  Q 90.22 132.26 89.91 132.22
  Q 89.76 132.20 89.63 132.26
  Q 89.02 132.51 89.34 133.08
  Q 90.18 134.53 91.71 135.65
  A 1.21 1.20 -52.0 0 0 93.35 135.44
  Q 94.96 133.47 96.49 131.61
  Q 96.83 131.19 96.39 130.74
  A 0.57 0.56 43.7 0 0 95.56 130.75
  L 92.81 133.79
  A 0.72 0.70 37.5 0 1 91.90 133.90"
/>
<path stroke="#388ae1" vector-effect="non-scaling-stroke" d="
  M 364.74 159.69
  C 365.16 156.90 363.42 154.69 360.57 154.69
  Q 353.92 154.68 348.53 154.72
  A 3.66 3.66 0.0 0 0 344.89 158.38
  L 344.89 170.12
  A 3.71 3.70 -89.5 0 0 348.53 173.83
  Q 354.50 173.93 360.05 173.90
  Q 364.76 173.88 364.75 169.31
  Q 364.74 168.15 365.63 168.90
  Q 366.98 170.05 368.48 171.18
  C 369.77 172.17 371.75 171.90 371.86 170.00
  Q 372.19 164.60 371.86 158.63
  A 1.62 1.61 -84.6 0 0 370.65 157.16
  C 368.85 156.71 366.84 159.21 365.36 160.10
  Q 364.61 160.56 364.74 159.69"
/>
<path stroke="#87a3e1" vector-effect="non-scaling-stroke" d="
  M 455.41 159.47
  A 1.61 1.61 0.0 0 0 453.80 157.86
  A 1.61 1.61 0.0 0 0 452.19 159.47
  A 1.61 1.61 0.0 0 0 453.80 161.08
  A 1.61 1.61 0.0 0 0 455.41 159.47"
/>
<path stroke="#87a3e1" vector-effect="non-scaling-stroke" d="
  M 462.46 159.46
  A 1.60 1.60 0.0 0 0 460.86 157.86
  A 1.60 1.60 0.0 0 0 459.26 159.46
  A 1.60 1.60 0.0 0 0 460.86 161.06
  A 1.60 1.60 0.0 0 0 462.46 159.46"
/>
<path stroke="#87a3e1" vector-effect="non-scaling-stroke" d="
  M 469.51 159.46
  A 1.60 1.60 0.0 0 0 467.91 157.86
  A 1.60 1.60 0.0 0 0 466.31 159.46
  A 1.60 1.60 0.0 0 0 467.91 161.06
  A 1.60 1.60 0.0 0 0 469.51 159.46"
/>
<path stroke="#712121" vector-effect="non-scaling-stroke" d="
  M 237.0743 177.3209
  A 2.76 0.42 104.6 0 0 238.1764 174.7559
  A 2.76 0.42 104.6 0 0 238.4657 171.9791
  A 2.76 0.42 104.6 0 0 237.3636 174.5441
  A 2.76 0.42 104.6 0 0 237.0743 177.3209"
/>
<path stroke="#943537" vector-effect="non-scaling-stroke" d="
  M 262.3073 184.4779
  A 0.74 0.74 0.0 0 0 261.4639 183.8584
  L 261.4045 183.8675
  A 0.74 0.74 0.0 0 0 260.7850 184.7109
  L 261.9527 192.3421
  A 0.74 0.74 0.0 0 0 262.7961 192.9616
  L 262.8555 192.9525
  A 0.74 0.74 0.0 0 0 263.4750 192.1091
  L 262.3073 184.4779"
/>
<path stroke="#e88f8c" vector-effect="non-scaling-stroke" d="
  M 312.23 213.36
  A 3.26 3.26 0.0 0 0 308.97 210.10
  A 3.26 3.26 0.0 0 0 305.71 213.36
  A 3.26 3.26 0.0 0 0 308.97 216.62
  A 3.26 3.26 0.0 0 0 312.23 213.36"
/>
<path stroke="#7f92cc" vector-effect="non-scaling-stroke" d="
  M 412.62 242.29
  A 0.70 0.70 0.0 0 0 411.92 241.59
  L 379.04 241.59
  A 0.70 0.70 0.0 0 0 378.34 242.29
  L 378.34 242.31
  A 0.70 0.70 0.0 0 0 379.04 243.01
  L 411.92 243.01
  A 0.70 0.70 0.0 0 0 412.62 242.31
  L 412.62 242.29"
/>
<path stroke="#7f92cc" vector-effect="non-scaling-stroke" d="
  M 412.57 269.69
  A 0.70 0.70 0.0 0 0 411.87 268.99
  L 379.09 268.99
  A 0.70 0.70 0.0 0 0 378.39 269.69
  L 378.39 269.71
  A 0.70 0.70 0.0 0 0 379.09 270.41
  L 411.87 270.41
  A 0.70 0.70 0.0 0 0 412.57 269.71
  L 412.57 269.69"
/>
<path stroke="#7f92cc" vector-effect="non-scaling-stroke" d="
  M 412.5499 297.4802
  A 0.63 0.63 0.0 0 0 411.9188 296.8513
  L 378.9789 296.9087
  A 0.63 0.63 0.0 0 0 378.3500 297.5398
  L 378.3501 297.5798
  A 0.63 0.63 0.0 0 0 378.9812 298.2087
  L 411.9211 298.1513
  A 0.63 0.63 0.0 0 0 412.5500 297.5202
  L 412.5499 297.4802"
/>
<path stroke="#801302" vector-effect="non-scaling-stroke" d="
  M 159.46 255.46
  A 0.29 0.29 0.0 0 0 159.75 255.72
  L 175.10 255.81
  A 0.29 0.29 0.0 0 1 175.30 256.30
  L 169.31 262.36
  A 0.29 0.29 0.0 0 0 169.28 262.73
  L 169.72 263.36
  A 0.29 0.29 0.0 0 0 170.16 263.40
  L 178.29 255.32
  A 0.29 0.29 0.0 0 0 178.29 254.90
  L 170.37 246.99
  A 0.29 0.29 0.0 0 0 169.98 246.98
  L 169.42 247.48
  A 0.29 0.29 0.0 0 0 169.40 247.90
  L 175.09 253.79
  A 0.29 0.29 0.0 0 1 174.88 254.28
  L 159.65 254.29
  A 0.29 0.29 0.0 0 0 159.37 254.61
  L 159.46 255.46"
/>
<path stroke="#90dbff" vector-effect="non-scaling-stroke" d="
  M 223.04 316.12
  A 18.99 18.99 0.0 0 0 204.05 297.13
  A 18.99 18.99 0.0 0 0 185.06 316.12
  A 18.99 18.99 0.0 0 0 204.05 335.11
  A 18.99 18.99 0.0 0 0 223.04 316.12"
/>
<path stroke="#5f7580" vector-effect="non-scaling-stroke" d="
  M 210.43 316.17
  A 6.39 6.39 0.0 0 0 204.04 309.78
  A 6.39 6.39 0.0 0 0 197.65 316.17
  A 6.39 6.39 0.0 0 0 204.04 322.56
  A 6.39 6.39 0.0 0 0 210.43 316.17"
/>
<path stroke="#356ce1" vector-effect="non-scaling-stroke" d="
  M 175.30 357.75
  A 13.57 13.57 0.0 0 0 161.73 344.18
  A 13.57 13.57 0.0 0 0 148.16 357.75
  A 13.57 13.57 0.0 0 0 161.73 371.32
  A 13.57 13.57 0.0 0 0 175.30 357.75"
/>
<path stroke="#2e4880" vector-effect="non-scaling-stroke" d="
  M 162.74 357.79
  A 0.27 0.27 0.0 0 1 162.73 357.48
  L 167.00 350.74
  A 0.27 0.27 0.0 0 0 166.97 350.41
  L 166.46 349.86
  A 0.27 0.27 0.0 0 0 166.04 349.89
  L 160.81 357.67
  A 0.27 0.27 0.0 0 0 160.83 358.00
  L 165.10 362.87
  A 0.27 0.27 0.0 0 0 165.54 362.82
  L 165.87 362.22
  A 0.27 0.27 0.0 0 0 165.85 361.93
  L 162.74 357.79"
/>
</g>
<path fill="#ff2603" d="
  M 296.45 57.48
  Q 294.72 54.35 293.96 50.84
  C 293.00 46.32 296.58 44.32 300.39 45.75
  Q 304.25 47.20 307.34 49.36
  Q 307.76 49.65 308.16 49.32
  Q 317.62 41.46 326.99 49.23
  Q 331.03 52.58 332.84 58.20
  Q 333.00 58.71 333.52 58.81
  Q 337.27 59.53 339.95 60.93
  Q 352.56 67.56 345.63 81.65
  Q 345.42 82.07 345.59 82.50
  C 349.89 93.96 340.97 99.16 331.44 93.98
  Q 330.21 93.32 328.91 93.60
  Q 321.87 95.14 314.46 90.52
  C 313.55 89.95 312.77 89.76 311.72 90.15
  Q 307.95 91.54 303.21 90.86
  C 296.35 89.86 291.68 84.48 290.27 77.69
  C 288.82 70.65 292.11 65.22 297.88 61.63
  Q 298.41 61.31 298.26 60.71
  Q 298.13 60.19 297.71 59.89
  Q 297.28 59.58 296.74 59.69
  Q 294.26 60.20 291.63 60.16
  A 0.59 0.59 0.0 0 1 291.18 59.21
  C 292.11 57.99 294.79 58.06 296.19 57.96
  A 0.32 0.32 0.0 0 0 296.45 57.48
  Z
  M 295.55 49.40
  Q 296.17 53.48 298.23 57.35
  Q 298.55 57.94 299.21 57.89
  L 302.12 57.70
  Q 302.77 57.66 302.99 57.05
  Q 304.13 53.82 306.25 51.28
  A 0.58 0.58 0.0 0 0 306.13 50.42
  C 304.06 49.02 299.88 46.62 297.34 46.99
  A 2.11 2.11 0.0 0 0 295.55 49.40
  Z
  M 321.20 56.83
  Q 325.68 57.01 330.47 58.21
  A 0.41 0.41 0.0 0 0 330.95 57.67
  C 327.47 48.71 318.08 43.10 309.42 50.30
  A 0.43 0.42 -47.1 0 0 309.44 50.98
  Q 312.65 53.25 315.37 56.31
  Q 315.75 56.74 316.32 56.74
  Q 318.72 56.72 321.20 56.83
  Z
  M 304.53 57.25
  A 0.49 0.49 0.0 0 0 305.02 57.97
  L 313.14 57.09
  A 0.49 0.49 0.0 0 0 313.41 56.24
  L 308.19 51.62
  A 0.49 0.49 0.0 0 0 307.43 51.76
  L 304.53 57.25
  Z
  M 323.41 58.73
  C 321.74 58.66 320.26 58.05 318.57 58.36
  Q 316.35 58.78 318.52 59.41
  Q 322.29 60.51 326.19 62.19
  C 328.37 63.13 330.27 64.73 332.43 65.92
  Q 333.12 66.30 333.00 65.52
  L 332.33 61.02
  Q 332.22 60.31 331.54 60.10
  Q 327.54 58.89 323.41 58.73
  Z
  M 300.61 59.37
  L 299.98 59.48
  A 0.34 0.33 56.5 0 0 299.86 60.09
  Q 300.56 60.56 301.30 59.70
  A 0.32 0.32 0.0 0 0 301.12 59.18
  Q 300.98 59.15 300.87 59.25
  Q 300.75 59.34 300.61 59.37
  Z
  M 303.14 64.97
  A 1.86 1.83 26.2 0 0 303.47 65.92
  Q 309.91 75.34 318.42 83.15
  Q 318.89 83.58 319.31 83.10
  Q 320.97 81.23 321.46 78.89
  Q 323.48 69.07 317.25 61.09
  Q 317.00 60.77 316.61 60.65
  Q 310.31 58.69 304.33 60.36
  Q 303.80 60.51 303.64 61.03
  Q 303.01 63.01 303.14 64.97
  Z
  M 346.36 71.34
  C 345.47 65.04 340.14 62.06 334.41 60.60
  A 0.52 0.52 0.0 0 0 333.78 61.24
  Q 334.59 64.25 334.39 66.98
  Q 334.35 67.49 334.74 67.84
  Q 340.54 72.95 344.10 79.26
  A 0.52 0.51 -47.8 0 0 345.02 79.21
  Q 346.88 74.99 346.36 71.34
  Z
  M 330.05 78.64
  A 0.40 0.40 0.0 0 1 329.76 78.04
  Q 332.46 73.49 332.84 69.15
  Q 332.92 68.21 332.16 67.66
  Q 326.73 63.73 320.57 61.65
  Q 319.25 61.21 320.02 62.37
  Q 325.08 69.94 322.95 79.24
  Q 322.34 81.91 320.55 83.87
  Q 320.04 84.43 320.62 84.92
  Q 324.51 88.19 328.75 91.08
  C 330.03 91.95 330.92 91.59 332.19 91.08
  Q 339.38 88.19 343.46 82.10
  Q 343.71 81.72 343.49 81.31
  Q 340.00 75.02 335.04 70.10
  A 0.45 0.45 0.0 0 0 334.28 70.35
  Q 333.61 74.32 331.59 78.09
  Q 331.22 78.78 330.44 78.69
  L 330.05 78.64
  Z
  M 310.76 88.79
  Q 311.71 88.54 310.99 87.88
  Q 302.21 79.91 301.66 67.44
  C 301.57 65.61 300.54 64.49 299.59 63.05
  Q 299.28 62.58 298.80 62.86
  Q 292.23 66.67 291.57 72.78
  C 290.96 78.52 293.83 85.22 299.32 87.91
  Q 304.50 90.45 310.76 88.79
  Z
  M 317.54 84.23
  C 312.52 79.56 307.40 74.39 303.74 69.11
  Q 303.19 68.31 303.31 69.28
  Q 304.77 80.66 312.88 87.57
  Q 313.48 88.09 314.12 87.63
  L 317.48 85.24
  A 0.65 0.65 0.0 0 0 317.54 84.23
  Z
  M 339.06 94.19
  C 345.64 94.03 345.13 89.60 344.62 84.36
  A 0.45 0.45 0.0 0 0 343.81 84.14
  Q 339.78 89.40 333.93 92.05
  Q 333.48 92.25 332.99 92.22
  Q 332.22 92.17 332.62 92.83
  Q 332.73 93.00 332.92 93.08
  Q 335.91 94.26 339.06 94.19
  Z
  M 321.48 92.08
  A 0.33 0.33 0.0 0 0 321.58 92.10
  L 326.56 92.39
  A 0.33 0.33 0.0 0 0 326.78 91.80
  L 319.37 85.93
  A 0.33 0.33 0.0 0 0 318.97 85.93
  L 314.88 88.88
  A 0.33 0.33 0.0 0 0 314.95 89.45
  L 321.48 92.08
  Z"
/>
<path fill="#ffffff" d="
  M 274.47 97.91
  L 267.02 104.64
  Q 264.63 116.37 263.90 128.50
  C 263.59 133.72 265.74 139.92 271.12 140.87
  Q 276.78 141.86 276.87 144.45
  L 276.44 146.26
  Q 276.12 146.75 275.28 146.99
  L 269.17 148.64
  L 264.45 150.75
  Q 262.87 151.24 262.53 152.23
  Q 251.70 160.09 242.48 168.81
  C 242.35 165.62 243.18 163.08 239.34 161.39
  L 239.26 150.03
  Q 239.26 149.31 238.54 149.28
  L 238.20 149.26
  A 0.44 0.43 1.3 0 0 237.74 149.69
  L 237.65 161.42
  L 235.93 162.20
  Q 234.68 160.32 234.05 157.07
  L 228.29 138.07
  Q 228.36 136.67 227.63 136.28
  Q 226.30 131.98 225.09 127.73
  Q 224.08 124.18 222.61 121.68
  C 220.33 117.78 218.49 113.41 214.99 110.48
  A 1.55 1.55 0.0 0 0 212.47 111.43
  C 211.93 114.89 214.16 120.36 215.70 123.34
  A 0.75 0.75 0.0 0 1 215.15 124.42
  Q 212.63 124.79 210.17 126.21
  Q 209.36 125.58 208.91 124.81
  L 208.82 113.31
  Q 208.82 112.52 208.03 112.52
  L 207.68 112.52
  A 0.51 0.51 0.0 0 0 207.17 113.02
  L 207.08 124.36
  Q 202.93 126.77 204.34 130.97
  Q 200.46 136.03 202.34 141.73
  C 202.87 143.32 204.46 143.96 204.39 145.85
  Q 204.37 146.32 204.54 146.75
  L 207.33 153.74
  L 207.19 160.99
  A 0.45 0.45 0.0 0 0 207.66 161.45
  L 208.04 161.44
  A 0.76 0.76 0.0 0 0 208.77 160.68
  L 208.75 155.21
  Q 210.06 154.80 210.13 156.37
  Q 210.24 159.28 210.42 163.21
  Q 209.53 176.16 213.45 189.50
  C 215.59 196.78 220.82 204.82 228.97 206.07
  C 240.65 207.86 252.72 201.63 261.42 193.77
  A 0.85 0.85 0.0 0 1 262.83 194.31
  L 263.77 203.28
  L 263.39 204.69
  A 1.35 1.34 80.5 0 1 262.85 205.45
  C 260.53 206.98 258.83 208.08 256.39 210.20
  Q 253.46 212.75 249.33 213.70
  Q 245.72 213.63 241.93 213.33
  Q 238.15 213.03 234.82 213.01
  Q 178.18 212.76 121.18 212.81
  Q 114.73 212.81 112.04 211.64
  C 105.82 208.94 105.05 203.90 105.03 197.43
  Q 104.94 178.76 105.25 160.01
  Q 105.28 158.06 102.82 158.07
  Q 104.70 155.19 107.08 152.73
  Q 110.38 149.31 111.28 147.75
  Q 113.04 144.69 113.30 141.71
  Q 114.06 132.93 112.60 121.18
  A 0.92 0.91 7.3 0 0 112.03 120.45
  L 110.76 119.96
  Q 110.84 118.60 110.27 117.79
  A 1.03 1.01 72.1 0 0 109.47 117.37
  Q 107.95 117.31 107.12 116.88
  Q 105.03 111.93 105.15 107.01
  Q 105.29 101.23 105.09 95.07
  Q 104.80 86.38 106.21 83.57
  Q 109.52 76.93 117.57 76.92
  Q 190.70 76.79 260.99 76.82
  Q 266.99 76.83 270.50 80.18
  C 274.94 84.43 275.56 91.96 274.47 97.91
  Z
  M 160.93 127.98
  Q 160.64 128.79 160.07 129.55
  C 158.97 131.00 158.27 133.56 158.22 135.02
  Q 157.61 150.97 157.83 175.25
  Q 157.91 184.17 160.36 190.10
  Q 161.45 194.62 161.03 200.00
  Q 160.95 201.00 161.79 201.17
  A 0.47 0.46 6.9 0 0 162.35 200.74
  L 162.59 194.49
  L 162.69 191.48
  A 1.80 1.77 -27.4 0 1 162.99 190.56
  Q 164.67 188.04 164.86 185.74
  C 165.41 178.92 165.70 171.93 165.61 164.82
  Q 165.48 155.33 165.48 146.70
  C 165.47 142.30 165.05 137.71 164.90 133.26
  Q 164.83 131.00 162.80 128.97
  L 162.33 118.77
  Q 162.32 118.48 162.03 118.49
  L 161.74 118.51
  Q 161.18 118.53 161.17 119.09
  L 160.93 127.98
  Z
  M 191.70 135.47
  Q 190.68 137.36 189.88 139.27
  Q 189.12 141.10 188.94 143.33
  Q 187.55 160.33 189.49 177.25
  Q 189.70 179.13 191.71 181.57
  L 191.97 193.19
  A 0.41 0.41 0.0 0 0 192.37 193.59
  L 192.72 193.59
  Q 192.97 193.59 192.97 193.34
  L 193.09 182.39
  Q 195.75 178.27 195.98 175.77
  Q 197.22 162.48 196.01 142.01
  Q 195.81 138.68 193.39 136.62
  L 193.14 124.93
  A 0.31 0.30 88.1 0 0 192.83 124.63
  L 192.50 124.63
  A 0.64 0.64 0.0 0 0 191.88 125.26
  L 191.70 135.47
  Z
  M 148.02 165.81
  C 149.08 164.60 149.69 163.21 149.77 161.61
  Q 150.23 152.29 149.64 143.95
  C 149.48 141.69 147.65 140.45 147.51 138.15
  Q 147.25 133.79 147.10 129.22
  A 0.29 0.28 -6.1 0 0 146.76 128.95
  L 146.50 129.00
  Q 145.98 129.09 145.99 129.62
  Q 146.02 134.35 145.30 138.64
  C 144.97 140.59 143.25 141.58 143.10 143.63
  Q 142.46 152.36 142.93 161.66
  C 143.04 163.74 144.42 164.96 145.42 166.62
  A 1.92 1.89 -61.7 0 1 145.70 167.58
  L 145.96 176.30
  A 0.40 0.40 0.0 0 0 146.56 176.64
  L 146.88 176.46
  Q 147.00 176.39 147.01 176.26
  L 147.27 167.70
  Q 147.30 166.62 148.02 165.81
  Z
  M 177.8936 135.5066
  A 0.58 0.58 0.0 0 0 177.3197 134.9205
  L 177.2797 134.9201
  A 0.58 0.58 0.0 0 0 176.6936 135.4940
  L 176.5864 145.7334
  A 0.58 0.58 0.0 0 0 177.1603 146.3195
  L 177.2003 146.3199
  A 0.58 0.58 0.0 0 0 177.7864 145.7460
  L 177.8936 135.5066
  Z
  M 177.78 171.57
  A 0.47 0.47 0.0 0 0 177.31 171.10
  L 177.27 171.10
  A 0.47 0.47 0.0 0 0 176.80 171.57
  L 176.80 181.87
  A 0.47 0.47 0.0 0 0 177.27 182.34
  L 177.31 182.34
  A 0.47 0.47 0.0 0 0 177.78 181.87
  L 177.78 171.57
  Z"
/>
<path fill="#000000" d="
  M 304.11 138.94
  Q 297.03 138.62 291.89 135.45
  A 0.55 0.54 44.9 0 1 291.88 134.52
  Q 295.52 132.24 298.13 129.07
  C 300.48 126.22 300.69 121.57 296.94 119.86
  C 293.97 118.52 290.23 119.37 287.26 120.57
  A 0.92 0.91 68.8 0 1 286.07 120.04
  Q 284.40 115.63 283.98 110.58
  Q 283.93 110.05 283.40 110.05
  Q 280.48 110.02 277.75 109.90
  Q 271.78 109.62 267.02 104.64
  L 274.47 97.91
  Q 281.14 95.19 288.25 95.27
  Q 296.80 95.37 301.94 102.07
  Q 305.20 106.32 305.35 111.75
  Q 305.56 119.28 304.11 138.94
  Z"
/>
<path fill="#e14141" d="
  M 376.15 99.27
  C 374.72 108.37 376.02 118.30 382.64 124.93
  A 0.35 0.35 0.0 0 1 382.39 125.53
  L 353.73 125.48
  A 1.05 1.04 68.2 0 1 352.97 125.15
  C 346.45 118.19 345.06 108.87 346.37 99.39
  A 0.67 0.67 0.0 0 1 347.03 98.81
  L 375.75 98.81
  A 0.40 0.40 0.0 0 1 376.15 99.27
  Z"
/>
<path fill="#efbd96" d="
  M 267.02 104.64
  Q 271.78 109.62 277.75 109.90
  Q 280.48 110.02 283.40 110.05
  Q 283.93 110.05 283.98 110.58
  Q 284.40 115.63 286.07 120.04
  A 0.92 0.91 68.8 0 0 287.26 120.57
  C 290.23 119.37 293.97 118.52 296.94 119.86
  C 300.69 121.57 300.48 126.22 298.13 129.07
  Q 295.52 132.24 291.88 134.52
  A 0.55 0.54 44.9 0 0 291.89 135.45
  Q 297.03 138.62 304.11 138.94
  L 304.04 144.47
  L 276.87 144.45
  Q 276.78 141.86 271.12 140.87
  C 265.74 139.92 263.59 133.72 263.90 128.50
  Q 264.63 116.37 267.02 104.64
  Z
  M 269.16 119.24
  A 1.10 1.10 0.0 0 0 268.06 118.14
  A 1.10 1.10 0.0 0 0 266.96 119.24
  A 1.10 1.10 0.0 0 0 268.06 120.34
  A 1.10 1.10 0.0 0 0 269.16 119.24
  Z
  M 277.82 119.86
  A 1.12 1.12 0.0 0 0 276.70 118.74
  A 1.12 1.12 0.0 0 0 275.58 119.86
  A 1.12 1.12 0.0 0 0 276.70 120.98
  A 1.12 1.12 0.0 0 0 277.82 119.86
  Z
  M 271.7613 121.7166
  A 0.58 0.58 0.0 0 0 271.1357 121.1861
  L 270.8766 121.2074
  A 0.58 0.58 0.0 0 0 270.3460 121.8330
  L 270.5787 124.6634
  A 0.58 0.58 0.0 0 0 271.2043 125.1939
  L 271.4634 125.1726
  A 0.58 0.58 0.0 0 0 271.9940 124.5470
  L 271.7613 121.7166
  Z
  M 293.8566 124.7381
  A 0.48 0.48 0.0 0 0 293.2220 124.4970
  L 289.0080 126.3909
  A 0.48 0.48 0.0 0 0 288.7670 127.0254
  L 288.7834 127.0619
  A 0.48 0.48 0.0 0 0 289.4180 127.3030
  L 293.6320 125.4091
  A 0.48 0.48 0.0 0 0 293.8730 124.7746
  L 293.8566 124.7381
  Z
  M 272.47 130.33
  Q 275.17 129.94 276.03 127.88
  Q 276.09 127.75 276.04 127.60
  Q 275.98 127.43 275.77 127.38
  Q 275.34 127.29 275.07 127.63
  Q 273.76 129.31 271.80 129.07
  Q 271.40 129.01 271.24 129.39
  Q 271.06 129.83 271.94 130.25
  A 0.94 0.91 -35.4 0 0 272.47 130.33
  Z
  M 283.4800 140.0317
  A 0.53 0.53 0.0 0 0 282.8594 139.6115
  L 277.0462 140.7309
  A 0.53 0.53 0.0 0 0 276.6259 141.3516
  L 276.6600 141.5283
  A 0.53 0.53 0.0 0 0 277.2806 141.9485
  L 283.0938 140.8291
  A 0.53 0.53 0.0 0 0 283.5141 140.2084
  L 283.4800 140.0317
  Z"
/>
<path fill="#efbd96" d="
  M 227.63 136.28
  L 220.00 132.70
  A 1.69 1.69 0.0 0 1 219.07 131.49
  Q 218.37 127.82 216.72 124.74
  A 0.26 0.26 0.0 0 0 216.29 124.71
  L 216.14 124.93
  A 1.09 1.09 0.0 0 0 215.98 125.89
  L 217.52 130.60
  Q 217.92 131.83 216.64 131.66
  L 212.68 131.13
  Q 211.46 130.97 211.48 129.75
  Q 211.49 128.52 210.59 126.68
  Q 210.24 126.73 210.17 126.21
  Q 212.63 124.79 215.15 124.42
  A 0.75 0.75 0.0 0 0 215.70 123.34
  C 214.16 120.36 211.93 114.89 212.47 111.43
  A 1.55 1.55 0.0 0 1 214.99 110.48
  C 218.49 113.41 220.33 117.78 222.61 121.68
  Q 224.08 124.18 225.09 127.73
  Q 226.30 131.98 227.63 136.28
  Z"
/>
<path fill="#e14141" d="
  M 107.12 116.88
  Q 107.95 117.31 109.47 117.37
  A 1.03 1.01 72.1 0 1 110.27 117.79
  Q 110.84 118.60 110.76 119.96
  Q 110.73 133.87 110.38 137.63
  C 109.60 146.09 103.72 151.60 96.36 154.86
  Q 93.66 156.05 89.59 155.33
  Q 82.23 152.21 78.06 145.93
  C 75.94 142.74 75.30 138.54 75.27 134.21
  Q 75.20 126.33 75.25 118.03
  A 0.73 0.73 0.0 0 1 75.99 117.30
  Q 85.27 117.43 92.37 111.21
  Q 92.76 110.88 93.14 111.21
  Q 99.35 116.43 107.12 116.88
  Z
  M 91.90 133.90
  Q 91.05 133.35 90.41 132.51
  Q 90.22 132.26 89.91 132.22
  Q 89.76 132.20 89.63 132.26
  Q 89.02 132.51 89.34 133.08
  Q 90.18 134.53 91.71 135.65
  A 1.21 1.20 -52.0 0 0 93.35 135.44
  Q 94.96 133.47 96.49 131.61
  Q 96.83 131.19 96.39 130.74
  A 0.57 0.56 43.7 0 0 95.56 130.75
  L 92.81 133.79
  A 0.72 0.70 37.5 0 1 91.90 133.90
  Z"
/>
<path fill="#46292d" d="
  M 208.91 124.81
  Q 208.19 124.88 207.08 124.36
  L 207.17 113.02
  A 0.51 0.51 0.0 0 1 207.68 112.52
  L 208.03 112.52
  Q 208.82 112.52 208.82 113.31
  L 208.91 124.81
  Z"
/>
<path fill="#efdcd6" d="
  M 417.46 114.77
  C 416.90 121.87 417.40 132.05 421.82 137.20
  Q 422.85 138.40 423.68 139.66
  Q 424.22 140.48 423.24 140.51
  Q 410.45 140.98 397.84 140.88
  Q 395.04 140.86 393.29 138.86
  Q 389.76 134.82 388.10 129.63
  C 386.80 125.58 387.46 120.59 387.78 116.21
  Q 387.97 113.67 390.51 113.67
  L 416.47 113.70
  Q 417.54 113.70 417.46 114.77
  Z"
/>
<circle fill="#000000" cx="268.06" cy="119.24" r="1.10"/>
<path fill="#46292d" d="
  M 162.80 128.97
  Q 162.26 129.27 161.61 129.21
  Q 161.09 129.17 160.97 128.66
  Q 160.88 128.29 160.93 127.98
  L 161.17 119.09
  Q 161.18 118.53 161.74 118.51
  L 162.03 118.49
  Q 162.32 118.48 162.33 118.77
  L 162.80 128.97
  Z"
/>
<circle fill="#000000" cx="276.70" cy="119.86" r="1.12"/>
<path fill="#efdcd6" d="
  M 110.76 119.96
  L 112.03 120.45
  A 0.92 0.91 7.3 0 1 112.60 121.18
  Q 114.06 132.93 113.30 141.71
  Q 113.04 144.69 111.28 147.75
  Q 110.38 149.31 107.08 152.73
  Q 104.70 155.19 102.82 158.07
  Q 100.08 158.06 96.25 158.49
  Q 92.93 158.87 89.59 155.33
  Q 93.66 156.05 96.36 154.86
  C 103.72 151.60 109.60 146.09 110.38 137.63
  Q 110.73 133.87 110.76 119.96
  Z"
/>
<rect fill="#46292d" x="-0.71" y="-2.00" transform="translate(271.17,123.19) rotate(-4.7)" width="1.42" height="4.00" rx="0.58"/>
<path fill="#61ccff" d="
  M 207.08 124.36
  Q 208.19 124.88 208.91 124.81
  Q 209.36 125.58 210.17 126.21
  Q 210.24 126.73 210.59 126.68
  Q 209.55 127.01 209.86 127.81
  Q 205.94 127.68 205.24 131.43
  Q 204.82 131.50 205.07 131.79
  Q 203.23 131.02 204.34 130.97
  Q 202.93 126.77 207.08 124.36
  Z"
/>
<path fill="#000000" d="
  M 193.39 136.62
  Q 193.18 137.56 192.80 137.73
  Q 192.39 137.91 192.09 137.23
  Q 191.76 136.50 191.70 135.47
  L 191.88 125.26
  A 0.64 0.64 0.0 0 1 192.50 124.63
  L 192.83 124.63
  A 0.31 0.30 88.1 0 1 193.14 124.93
  L 193.39 136.62
  Z"
/>
<rect fill="#000000" x="-2.79" y="-0.50" transform="translate(291.32,125.90) rotate(-24.2)" width="5.58" height="1.00" rx="0.48"/>
<path fill="#46292d" d="
  M 227.63 136.28
  Q 228.36 136.67 228.29 138.07
  Q 222.28 135.05 216.55 133.05
  Q 214.60 132.37 212.51 132.59
  A 0.94 0.93 66.3 0 0 211.91 134.14
  Q 214.71 137.32 218.06 139.46
  A 1.84 1.84 0.0 0 1 218.61 142.01
  Q 215.30 147.11 216.03 152.89
  Q 216.10 153.42 215.56 153.40
  L 215.27 153.39
  A 0.78 0.78 0.0 0 1 214.54 152.73
  Q 213.67 146.74 217.07 141.55
  Q 217.38 141.07 216.94 140.70
  L 213.86 138.17
  A 0.55 0.54 -60.0 0 0 213.01 138.40
  Q 212.01 140.97 209.28 141.23
  Q 208.75 141.28 208.36 141.65
  L 205.64 144.31
  A 0.42 0.42 0.0 0 1 205.04 144.29
  L 204.84 144.09
  Q 204.47 143.68 204.84 143.28
  L 206.57 141.41
  Q 207.13 140.80 206.73 140.07
  Q 204.56 136.11 205.07 131.79
  Q 204.82 131.50 205.24 131.43
  Q 206.14 131.43 206.17 132.24
  Q 206.28 135.39 207.56 138.34
  A 2.03 2.02 65.7 0 0 210.27 139.37
  C 212.26 138.44 211.76 136.19 210.79 134.70
  Q 210.45 134.19 210.39 133.58
  L 209.86 127.81
  Q 209.55 127.01 210.59 126.68
  Q 211.49 128.52 211.48 129.75
  Q 211.46 130.97 212.68 131.13
  L 216.64 131.66
  Q 217.92 131.83 217.52 130.60
  L 215.98 125.89
  A 1.09 1.09 0.0 0 1 216.14 124.93
  L 216.29 124.71
  A 0.26 0.26 0.0 0 1 216.72 124.74
  Q 218.37 127.82 219.07 131.49
  A 1.69 1.69 0.0 0 0 220.00 132.70
  L 227.63 136.28
  Z"
/>
<path fill="#000000" d="
  M 272.47 130.33
  A 0.94 0.91 -35.4 0 1 271.94 130.25
  Q 271.06 129.83 271.24 129.39
  Q 271.40 129.01 271.80 129.07
  Q 273.76 129.31 275.07 127.63
  Q 275.34 127.29 275.77 127.38
  Q 275.98 127.43 276.04 127.60
  Q 276.09 127.75 276.03 127.88
  Q 275.17 129.94 272.47 130.33
  Z"
/>
<path fill="#efbd96" d="
  M 209.86 127.81
  L 210.39 133.58
  Q 210.45 134.19 210.79 134.70
  C 211.76 136.19 212.26 138.44 210.27 139.37
  A 2.03 2.02 65.7 0 1 207.56 138.34
  Q 206.28 135.39 206.17 132.24
  Q 206.14 131.43 205.24 131.43
  Q 205.94 127.68 209.86 127.81
  Z"
/>
<path fill="#61ccff" d="
  M 160.93 127.98
  Q 160.88 128.29 160.97 128.66
  Q 161.09 129.17 161.61 129.21
  Q 162.26 129.27 162.80 128.97
  Q 164.83 131.00 164.90 133.26
  C 165.05 137.71 165.47 142.30 165.48 146.70
  Q 165.48 155.33 165.61 164.82
  C 165.70 171.93 165.41 178.92 164.86 185.74
  Q 164.67 188.04 162.99 190.56
  A 1.80 1.77 -27.4 0 0 162.69 191.48
  L 162.59 194.49
  Q 162.62 193.15 162.61 191.81
  Q 162.61 190.76 162.28 190.27
  Q 161.64 189.34 160.36 190.10
  Q 157.91 184.17 157.83 175.25
  Q 157.61 150.97 158.22 135.02
  C 158.27 133.56 158.97 131.00 160.07 129.55
  Q 160.64 128.79 160.93 127.98
  Z"
/>
<path fill="#0e47c2" d="
  M 148.02 165.81
  Q 147.30 166.62 147.27 167.70
  L 147.01 176.26
  Q 147.00 176.39 146.88 176.46
  L 146.56 176.64
  A 0.40 0.40 0.0 0 1 145.96 176.30
  L 145.70 167.58
  A 1.92 1.89 -61.7 0 0 145.42 166.62
  C 144.42 164.96 143.04 163.74 142.93 161.66
  Q 142.46 152.36 143.10 143.63
  C 143.25 141.58 144.97 140.59 145.30 138.64
  Q 146.02 134.35 145.99 129.62
  Q 145.98 129.09 146.50 129.00
  L 146.76 128.95
  A 0.29 0.28 -6.1 0 1 147.10 129.22
  Q 147.25 133.79 147.51 138.15
  C 147.65 140.45 149.48 141.69 149.64 143.95
  Q 150.23 152.29 149.77 161.61
  C 149.69 163.21 149.08 164.60 148.02 165.81
  Z"
/>
<path fill="#e14141" d="
  M 482.94 158.44
  Q 481.12 158.27 479.29 158.14
  Q 477.13 157.98 475.79 157.32
  Q 470.10 154.55 469.47 147.33
  Q 470.30 139.88 475.57 134.06
  Q 476.35 133.19 476.20 134.35
  Q 475.87 137.00 475.78 139.67
  Q 475.77 140.06 476.04 140.31
  Q 476.49 140.72 476.65 140.14
  C 477.65 136.55 480.23 134.04 481.31 130.44
  A 0.30 0.30 0.0 0 1 481.86 130.37
  Q 484.83 135.37 483.85 140.76
  Q 483.40 143.22 484.21 145.31
  Q 484.89 147.05 485.35 145.24
  Q 485.97 142.81 485.76 140.22
  Q 485.64 138.83 486.66 139.78
  C 491.13 143.95 491.53 150.73 487.15 155.14
  C 485.85 156.44 484.28 157.21 482.94 158.44
  Z"
/>
<path fill="#000000" d="
  M 91.90 133.90
  A 0.72 0.70 37.5 0 0 92.81 133.79
  L 95.56 130.75
  A 0.57 0.56 43.7 0 1 96.39 130.74
  Q 96.83 131.19 96.49 131.61
  Q 94.96 133.47 93.35 135.44
  A 1.21 1.20 -52.0 0 1 91.71 135.65
  Q 90.18 134.53 89.34 133.08
  Q 89.02 132.51 89.63 132.26
  Q 89.76 132.20 89.91 132.22
  Q 90.22 132.26 90.41 132.51
  Q 91.05 133.35 91.90 133.90
  Z"
/>
<path fill="#efbd96" d="
  M 204.34 130.97
  Q 203.23 131.02 205.07 131.79
  Q 204.56 136.11 206.73 140.07
  Q 207.13 140.80 206.57 141.41
  L 204.84 143.28
  Q 204.47 143.68 204.84 144.09
  L 205.04 144.29
  A 0.42 0.42 0.0 0 0 205.64 144.31
  L 208.36 141.65
  Q 208.75 141.28 209.28 141.23
  Q 212.01 140.97 213.01 138.40
  A 0.55 0.54 -60.0 0 1 213.86 138.17
  L 216.94 140.70
  Q 217.38 141.07 217.07 141.55
  Q 213.67 146.74 214.54 152.73
  A 0.78 0.78 0.0 0 0 215.27 153.39
  L 215.56 153.40
  Q 216.10 153.42 216.03 152.89
  Q 215.30 147.11 218.61 142.01
  A 1.84 1.84 0.0 0 0 218.06 139.46
  Q 214.71 137.32 211.91 134.14
  A 0.94 0.93 66.3 0 1 212.51 132.59
  Q 214.60 132.37 216.55 133.05
  Q 222.28 135.05 228.29 138.07
  L 234.05 157.07
  L 210.42 163.21
  Q 210.24 159.28 210.13 156.37
  Q 210.06 154.80 208.75 155.21
  Q 208.40 154.06 207.33 153.74
  L 204.54 146.75
  Q 204.37 146.32 204.39 145.85
  C 204.46 143.96 202.87 143.32 202.34 141.73
  Q 200.46 136.03 204.34 130.97
  Z"
/>
<rect fill="#000000" x="-0.60" y="-5.70" transform="translate(177.24,140.62) rotate(0.6)" width="1.20" height="11.40" rx="0.58"/>
<path fill="#61ccff" d="
  M 191.70 135.47
  Q 191.76 136.50 192.09 137.23
  Q 192.39 137.91 192.80 137.73
  Q 193.18 137.56 193.39 136.62
  Q 195.81 138.68 196.01 142.01
  Q 197.22 162.48 195.98 175.77
  Q 195.75 178.27 193.09 182.39
  L 192.88 181.00
  Q 192.80 180.47 192.32 180.69
  Q 191.88 180.88 191.71 181.57
  Q 189.70 179.13 189.49 177.25
  Q 187.55 160.33 188.94 143.33
  Q 189.12 141.10 189.88 139.27
  Q 190.68 137.36 191.70 135.47
  Z"
/>
<rect fill="#000000" x="-3.49" y="-0.62" transform="translate(280.07,140.78) rotate(-10.9)" width="6.98" height="1.24" rx="0.53"/>
<path fill="#61ccff" d="
  M 341.83 187.00
  L 332.53 165.14
  Q 332.98 158.63 332.95 152.44
  Q 332.92 147.61 333.96 145.81
  C 335.41 143.29 338.16 141.47 341.13 141.47
  Q 356.99 141.43 373.89 141.38
  C 380.15 141.36 383.27 145.74 383.21 151.64
  Q 383.08 164.36 383.17 177.65
  Q 383.22 183.21 379.13 185.78
  Q 376.80 187.25 371.08 187.29
  Q 356.40 187.39 341.83 187.00
  Z
  M 364.74 159.69
  C 365.16 156.90 363.42 154.69 360.57 154.69
  Q 353.92 154.68 348.53 154.72
  A 3.66 3.66 0.0 0 0 344.89 158.38
  L 344.89 170.12
  A 3.71 3.70 -89.5 0 0 348.53 173.83
  Q 354.50 173.93 360.05 173.90
  Q 364.76 173.88 364.75 169.31
  Q 364.74 168.15 365.63 168.90
  Q 366.98 170.05 368.48 171.18
  C 369.77 172.17 371.75 171.90 371.86 170.00
  Q 372.19 164.60 371.86 158.63
  A 1.62 1.61 -84.6 0 0 370.65 157.16
  C 368.85 156.71 366.84 159.21 365.36 160.10
  Q 364.61 160.56 364.74 159.69
  Z"
/>
<path fill="#0e47c2" d="
  M 304.04 144.47
  Q 303.87 145.48 304.04 146.27
  Q 304.16 146.79 304.68 146.90
  L 309.50 147.90
  Q 302.42 160.46 295.69 172.73
  Q 295.59 172.92 295.15 172.86
  Q 292.55 162.56 292.00 151.95
  L 294.13 154.16
  Q 295.52 155.62 297.01 154.27
  L 304.11 147.89
  A 0.39 0.38 -43.4 0 0 304.13 147.34
  L 303.90 147.09
  A 0.63 0.63 0.0 0 0 303.02 147.05
  L 296.31 153.01
  A 0.88 0.88 0.0 0 1 295.08 152.95
  L 289.83 147.40
  Q 288.60 146.10 287.44 147.47
  L 283.35 152.32
  A 1.09 1.09 0.0 0 1 281.69 152.33
  Q 279.47 149.78 277.52 147.23
  Q 277.37 147.03 277.38 146.76
  Q 277.40 146.02 276.89 146.58
  Q 276.84 146.63 276.79 146.67
  Q 276.48 146.92 276.39 146.54
  Q 276.35 146.40 276.44 146.26
  L 276.87 144.45
  L 304.04 144.47
  Z"
/>
<path fill="#000000" d="
  M 276.44 146.26
  Q 276.35 146.40 276.39 146.54
  Q 276.48 146.92 276.79 146.67
  Q 276.84 146.63 276.89 146.58
  Q 277.40 146.02 277.38 146.76
  Q 277.37 147.03 277.52 147.23
  Q 279.47 149.78 281.69 152.33
  A 1.09 1.09 0.0 0 0 283.35 152.32
  L 287.44 147.47
  Q 288.60 146.10 289.83 147.40
  L 295.08 152.95
  A 0.88 0.88 0.0 0 0 296.31 153.01
  L 303.02 147.05
  A 0.63 0.63 0.0 0 1 303.90 147.09
  L 304.13 147.34
  A 0.39 0.38 -43.4 0 1 304.11 147.89
  L 297.01 154.27
  Q 295.52 155.62 294.13 154.16
  L 292.00 151.95
  L 289.04 148.66
  A 0.62 0.62 0.0 0 0 288.07 148.73
  L 285.67 152.21
  Q 284.06 153.19 283.71 154.03
  A 1.28 1.28 0.0 0 1 281.51 154.32
  Q 279.25 151.34 276.43 148.37
  Q 276.04 147.96 276.29 147.48
  Q 276.56 146.94 275.97 146.87
  Q 275.61 146.82 275.28 146.99
  Q 276.12 146.75 276.44 146.26
  Z"
/>
<path fill="#0e47c2" d="
  M 275.28 146.99
  Q 275.61 146.82 275.97 146.87
  Q 276.56 146.94 276.29 147.48
  Q 276.04 147.96 276.43 148.37
  Q 279.25 151.34 281.51 154.32
  A 1.28 1.28 0.0 0 0 283.71 154.03
  Q 284.06 153.19 285.67 152.21
  Q 285.09 163.27 282.40 173.83
  Q 282.02 174.02 281.86 173.69
  Q 275.70 161.14 269.17 148.64
  L 275.28 146.99
  Z"
/>
<path fill="#0e47c2" d="
  M 469.47 147.33
  Q 470.10 154.55 475.79 157.32
  Q 477.13 157.98 479.29 158.14
  Q 481.12 158.27 482.94 158.44
  C 482.71 167.39 476.95 172.51 468.40 172.28
  Q 464.53 172.18 460.57 172.14
  C 457.72 172.11 455.36 174.22 453.49 176.20
  Q 452.14 176.18 451.14 177.31
  Q 450.81 177.69 450.31 177.74
  Q 450.02 177.77 449.85 177.52
  Q 449.66 177.22 449.59 176.84
  Q 449.45 176.01 448.88 175.92
  Q 450.05 174.53 449.30 172.31
  Q 449.15 171.87 448.70 171.75
  Q 439.57 169.20 438.95 159.69
  Q 438.75 156.57 440.73 153.31
  Q 444.39 147.28 451.50 147.21
  Q 459.85 147.14 468.38 147.09
  Q 468.67 147.09 468.94 147.20
  Q 469.15 147.28 469.47 147.33
  Z
  M 455.41 159.47
  A 1.61 1.61 0.0 0 0 453.80 157.86
  A 1.61 1.61 0.0 0 0 452.19 159.47
  A 1.61 1.61 0.0 0 0 453.80 161.08
  A 1.61 1.61 0.0 0 0 455.41 159.47
  Z
  M 462.46 159.46
  A 1.60 1.60 0.0 0 0 460.86 157.86
  A 1.60 1.60 0.0 0 0 459.26 159.46
  A 1.60 1.60 0.0 0 0 460.86 161.06
  A 1.60 1.60 0.0 0 0 462.46 159.46
  Z
  M 469.51 159.46
  A 1.60 1.60 0.0 0 0 467.91 157.86
  A 1.60 1.60 0.0 0 0 466.31 159.46
  A 1.60 1.60 0.0 0 0 467.91 161.06
  A 1.60 1.60 0.0 0 0 469.51 159.46
  Z"
/>
<path fill="#e14141" d="
  M 309.50 147.90
  Q 311.21 148.33 313.50 148.97
  Q 315.70 149.59 317.35 150.48
  Q 326.65 155.50 332.53 165.14
  L 341.83 187.00
  Q 343.78 193.58 344.50 199.50
  C 345.82 210.19 342.32 219.95 330.75 222.92
  Q 327.35 223.80 325.26 223.71
  Q 311.58 223.27 298.62 220.29
  Q 297.81 220.10 297.65 220.91
  L 297.57 221.27
  A 0.37 0.36 -76.6 0 0 297.83 221.70
  Q 309.27 224.93 321.50 225.04
  Q 323.23 225.06 324.90 224.78
  Q 328.67 237.65 329.23 247.75
  Q 329.40 250.79 329.29 260.08
  C 329.20 269.00 328.04 278.40 327.82 287.04
  Q 327.61 294.88 328.72 304.61
  Q 329.46 311.15 332.53 321.53
  Q 335.35 331.08 336.91 338.26
  Q 339.74 351.23 339.55 367.42
  L 330.17 367.48
  C 329.88 363.94 329.55 360.29 328.83 356.80
  Q 324.09 333.94 319.58 312.98
  Q 317.87 305.07 317.52 295.50
  Q 316.70 273.50 317.12 248.09
  Q 317.13 247.59 317.63 247.62
  Q 322.23 247.90 327.78 248.59
  Q 328.48 248.68 328.81 248.06
  L 328.97 247.78
  A 0.42 0.42 0.0 0 0 328.62 247.16
  C 313.63 246.76 298.38 242.24 286.71 232.69
  Q 286.33 232.38 286.31 231.88
  L 285.98 221.28
  A 0.39 0.39 0.0 0 0 285.55 220.91
  L 285.17 220.96
  A 0.67 0.66 -3.8 0 0 284.58 221.63
  L 284.67 231.98
  A 1.05 1.04 70.9 0 1 284.26 232.83
  Q 270.85 243.28 253.88 244.91
  Q 252.84 245.01 252.57 245.96
  L 257.32 228.74
  Q 260.85 228.19 263.21 225.63
  Q 266.16 222.43 266.55 222.11
  Q 269.55 219.57 272.58 216.87
  Q 273.10 216.40 273.73 216.71
  L 273.95 216.82
  A 0.36 0.36 0.0 0 1 274.04 217.41
  Q 269.20 222.04 263.95 226.23
  C 262.60 227.31 262.29 229.08 262.89 230.65
  A 0.85 0.84 68.4 0 0 264.00 231.14
  C 268.55 229.30 272.09 225.70 275.76 222.51
  A 3.19 3.19 0.0 0 1 277.85 221.73
  Q 282.98 221.72 288.65 218.87
  Q 289.61 218.39 290.58 218.74
  Q 293.49 219.77 296.30 220.45
  Q 298.02 220.87 298.15 219.11
  L 299.74 197.89
  L 322.02 197.40
  A 0.58 0.57 3.5 0 0 322.58 196.91
  L 322.62 196.59
  A 0.42 0.42 0.0 0 0 322.21 196.11
  L 316.54 196.13
  Q 315.30 196.13 314.86 194.98
  L 312.05 187.64
  Q 311.83 187.08 311.25 187.23
  L 311.00 187.29
  Q 310.61 187.39 310.75 187.77
  L 313.61 195.37
  Q 313.81 195.91 313.23 195.94
  L 298.84 196.59
  Q 295.17 197.98 290.72 197.41
  L 310.83 177.76
  A 1.21 1.21 0.0 0 0 311.11 176.43
  L 307.67 167.98
  A 0.60 0.60 0.0 0 1 308.30 167.15
  L 313.93 167.80
  A 1.74 1.73 3.1 0 0 315.87 166.06
  L 315.72 150.75
  Q 315.71 150.04 315.04 149.82
  L 314.78 149.73
  Q 314.13 149.51 314.15 150.19
  L 314.61 165.49
  Q 314.64 166.36 313.77 166.31
  L 306.74 165.90
  A 0.75 0.75 0.0 0 0 306.00 166.93
  L 309.66 176.18
  A 1.33 1.32 -32.7 0 1 309.34 177.63
  Q 299.07 187.30 288.54 197.04
  Q 288.15 197.40 288.26 198.07
  Q 285.54 198.44 282.76 198.80
  Q 273.10 200.04 264.31 204.25
  Q 263.87 204.46 263.77 203.28
  L 262.83 194.31
  A 0.85 0.85 0.0 0 0 261.42 193.77
  C 252.72 201.63 240.65 207.86 228.97 206.07
  C 220.82 204.82 215.59 196.78 213.45 189.50
  Q 209.53 176.16 210.42 163.21
  L 234.05 157.07
  Q 234.68 160.32 235.93 162.20
  Q 236.24 166.86 238.18 171.26
  Q 238.40 171.75 238.84 171.44
  L 242.48 168.81
  Q 251.70 160.09 262.53 152.23
  L 261.69 165.55
  A 0.67 0.67 0.0 0 0 262.47 166.25
  L 268.56 165.23
  A 0.83 0.83 0.0 0 1 269.49 166.32
  L 266.90 173.84
  A 2.47 2.46 31.9 0 0 267.51 176.42
  L 283.59 191.98
  Q 283.97 192.34 283.99 192.87
  L 284.16 197.53
  Q 284.18 198.14 284.78 198.09
  L 285.20 198.06
  Q 285.47 198.04 285.48 197.77
  Q 285.53 195.77 285.56 193.93
  Q 285.57 192.39 286.59 190.30
  Q 287.93 187.56 289.15 184.75
  L 295.15 172.86
  Q 295.59 172.92 295.69 172.73
  Q 302.42 160.46 309.50 147.90
  Z
  M 237.0743 177.3209
  A 2.76 0.42 104.6 0 0 238.1764 174.7559
  A 2.76 0.42 104.6 0 0 238.4657 171.9791
  A 2.76 0.42 104.6 0 0 237.3636 174.5441
  A 2.76 0.42 104.6 0 0 237.0743 177.3209
  Z
  M 262.3073 184.4779
  A 0.74 0.74 0.0 0 0 261.4639 183.8584
  L 261.4045 183.8675
  A 0.74 0.74 0.0 0 0 260.7850 184.7109
  L 261.9527 192.3421
  A 0.74 0.74 0.0 0 0 262.7961 192.9616
  L 262.8555 192.9525
  A 0.74 0.74 0.0 0 0 263.4750 192.1091
  L 262.3073 184.4779
  Z
  M 312.23 213.36
  A 3.26 3.26 0.0 0 0 308.97 210.10
  A 3.26 3.26 0.0 0 0 305.71 213.36
  A 3.26 3.26 0.0 0 0 308.97 216.62
  A 3.26 3.26 0.0 0 0 312.23 213.36
  Z"
/>
<path fill="#e14141" d="
  M 269.17 148.64
  Q 275.70 161.14 281.86 173.69
  Q 282.02 174.02 282.40 173.83
  C 282.54 174.40 282.44 174.78 282.72 175.35
  Q 285.18 180.42 287.88 185.37
  Q 286.14 187.43 284.99 190.58
  A 0.49 0.49 0.0 0 1 284.19 190.77
  L 268.22 175.57
  A 1.22 1.22 0.0 0 1 267.91 174.31
  L 270.98 164.95
  A 0.92 0.92 0.0 0 0 269.92 163.77
  L 264.01 165.02
  A 0.87 0.87 0.0 0 1 262.96 164.08
  L 264.45 150.75
  L 269.17 148.64
  Z"
/>
<path fill="#efdcd6" d="
  M 292.00 151.95
  Q 292.55 162.56 295.15 172.86
  L 289.15 184.75
  L 287.88 185.37
  Q 285.18 180.42 282.72 175.35
  C 282.44 174.78 282.54 174.40 282.40 173.83
  Q 285.09 163.27 285.67 152.21
  L 288.07 148.73
  A 0.62 0.62 0.0 0 1 289.04 148.66
  L 292.00 151.95
  Z"
/>
<path fill="#000000" d="
  M 239.34 161.39
  Q 238.41 161.77 237.65 161.42
  L 237.74 149.69
  A 0.44 0.43 1.3 0 1 238.20 149.26
  L 238.54 149.28
  Q 239.26 149.31 239.26 150.03
  L 239.34 161.39
  Z"
/>
<path fill="#46292d" d="
  M 290.72 197.41
  Q 289.63 197.91 288.26 198.07
  Q 288.15 197.40 288.54 197.04
  Q 299.07 187.30 309.34 177.63
  A 1.33 1.32 -32.7 0 0 309.66 176.18
  L 306.00 166.93
  A 0.75 0.75 0.0 0 1 306.74 165.90
  L 313.77 166.31
  Q 314.64 166.36 314.61 165.49
  L 314.15 150.19
  Q 314.13 149.51 314.78 149.73
  L 315.04 149.82
  Q 315.71 150.04 315.72 150.75
  L 315.87 166.06
  A 1.74 1.73 3.1 0 1 313.93 167.80
  L 308.30 167.15
  A 0.60 0.60 0.0 0 0 307.67 167.98
  L 311.11 176.43
  A 1.21 1.21 0.0 0 1 310.83 177.76
  L 290.72 197.41
  Z"
/>
<path fill="#46292d" d="
  M 264.45 150.75
  L 262.96 164.08
  A 0.87 0.87 0.0 0 0 264.01 165.02
  L 269.92 163.77
  A 0.92 0.92 0.0 0 1 270.98 164.95
  L 267.91 174.31
  A 1.22 1.22 0.0 0 0 268.22 175.57
  L 284.19 190.77
  A 0.49 0.49 0.0 0 0 284.99 190.58
  Q 286.14 187.43 287.88 185.37
  L 289.15 184.75
  Q 287.93 187.56 286.59 190.30
  Q 285.57 192.39 285.56 193.93
  Q 285.53 195.77 285.48 197.77
  Q 285.47 198.04 285.20 198.06
  L 284.78 198.09
  Q 284.18 198.14 284.16 197.53
  L 283.99 192.87
  Q 283.97 192.34 283.59 191.98
  L 267.51 176.42
  A 2.47 2.46 31.9 0 1 266.90 173.84
  L 269.49 166.32
  A 0.83 0.83 0.0 0 0 268.56 165.23
  L 262.47 166.25
  A 0.67 0.67 0.0 0 1 261.69 165.55
  L 262.53 152.23
  Q 262.87 151.24 264.45 150.75
  Z"
/>
<path fill="#000000" d="
  M 207.33 153.74
  Q 208.40 154.06 208.75 155.21
  L 208.77 160.68
  A 0.76 0.76 0.0 0 1 208.04 161.44
  L 207.66 161.45
  A 0.45 0.45 0.0 0 1 207.19 160.99
  L 207.33 153.74
  Z"
/>
<path fill="#0e47c2" d="
  M 365.36 160.10
  C 366.84 159.21 368.85 156.71 370.65 157.16
  A 1.62 1.61 -84.6 0 1 371.86 158.63
  Q 372.19 164.60 371.86 170.00
  C 371.75 171.90 369.77 172.17 368.48 171.18
  Q 366.98 170.05 365.63 168.90
  Q 364.74 168.15 364.75 169.31
  Q 364.76 173.88 360.05 173.90
  Q 354.50 173.93 348.53 173.83
  A 3.71 3.70 -89.5 0 1 344.89 170.12
  L 344.89 158.38
  A 3.66 3.66 0.0 0 1 348.53 154.72
  Q 353.92 154.68 360.57 154.69
  C 363.42 154.69 365.16 156.90 364.74 159.69
  Q 364.61 160.56 365.36 160.10
  Z"
/>
<circle fill="#ffffff" cx="453.80" cy="159.47" r="1.61"/>
<circle fill="#ffffff" cx="460.86" cy="159.46" r="1.60"/>
<circle fill="#ffffff" cx="467.91" cy="159.46" r="1.60"/>
<path fill="#ff2603" d="
  M 237.65 161.42
  Q 238.41 161.77 239.34 161.39
  C 243.18 163.08 242.35 165.62 242.48 168.81
  L 238.84 171.44
  Q 238.40 171.75 238.18 171.26
  Q 236.24 166.86 235.93 162.20
  L 237.65 161.42
  Z"
/>
<rect fill="#000000" x="176.80" y="171.10" width="0.98" height="11.24" rx="0.47"/>
<ellipse fill="#000000" cx="0.00" cy="0.00" transform="translate(237.77,174.65) rotate(104.6)" rx="2.76" ry="0.42"/>
<path fill="#61ccff" d="
  M 448.88 175.92
  Q 449.45 176.01 449.59 176.84
  Q 449.66 177.22 449.85 177.52
  Q 450.02 177.77 450.31 177.74
  Q 450.81 177.69 451.14 177.31
  Q 452.14 176.18 453.49 176.20
  C 462.26 176.78 465.29 183.57 463.93 191.52
  Q 460.86 209.58 457.56 227.69
  Q 457.47 228.22 456.93 228.23
  L 437.41 228.33
  Q 421.79 227.97 412.76 228.15
  Q 402.70 228.34 399.84 219.21
  C 399.76 218.93 399.49 218.67 399.24 218.60
  L 406.31 176.30
  A 0.60 0.59 4.5 0 1 406.90 175.80
  L 448.88 175.92
  Z"
/>
<path fill="#000000" d="
  M 193.09 182.39
  L 192.97 193.34
  Q 192.97 193.59 192.72 193.59
  L 192.37 193.59
  A 0.41 0.41 0.0 0 1 191.97 193.19
  L 191.71 181.57
  Q 191.88 180.88 192.32 180.69
  Q 192.80 180.47 192.88 181.00
  L 193.09 182.39
  Z"
/>
<path fill="#61ccff" d="
  M 490.33 183.79
  L 483.64 221.46
  A 2.03 2.03 0.0 0 1 480.44 222.74
  L 465.62 211.85
  A 2.03 2.03 0.0 0 1 464.81 209.88
  L 467.44 194.06
  A 2.03 2.03 0.0 0 1 468.43 192.64
  L 487.32 181.68
  A 2.03 2.03 0.0 0 1 490.33 183.79
  Z"
/>
<rect fill="#46292d" x="-0.77" y="-4.60" transform="translate(262.13,188.41) rotate(-8.7)" width="1.54" height="9.20" rx="0.74"/>
<path fill="#46292d" d="
  M 299.74 197.89
  Q 299.23 197.63 298.84 196.59
  L 313.23 195.94
  Q 313.81 195.91 313.61 195.37
  L 310.75 187.77
  Q 310.61 187.39 311.00 187.29
  L 311.25 187.23
  Q 311.83 187.08 312.05 187.64
  L 314.86 194.98
  Q 315.30 196.13 316.54 196.13
  L 322.21 196.11
  A 0.42 0.42 0.0 0 1 322.62 196.59
  L 322.58 196.91
  A 0.58 0.57 3.5 0 1 322.02 197.40
  L 299.74 197.89
  Z"
/>
<path fill="#46292d" d="
  M 162.59 194.49
  L 162.35 200.74
  A 0.47 0.46 6.9 0 1 161.79 201.17
  Q 160.95 201.00 161.03 200.00
  Q 161.45 194.62 160.36 190.10
  Q 161.64 189.34 162.28 190.27
  Q 162.61 190.76 162.61 191.81
  Q 162.62 193.15 162.59 194.49
  Z"
/>
<path fill="#efbd96" d="
  M 298.84 196.59
  Q 299.23 197.63 299.74 197.89
  L 298.15 219.11
  Q 298.02 220.87 296.30 220.45
  Q 293.49 219.77 290.58 218.74
  Q 289.61 218.39 288.65 218.87
  Q 282.98 221.72 277.85 221.73
  A 3.19 3.19 0.0 0 0 275.76 222.51
  C 272.09 225.70 268.55 229.30 264.00 231.14
  A 0.85 0.84 68.4 0 1 262.89 230.65
  C 262.29 229.08 262.60 227.31 263.95 226.23
  Q 269.20 222.04 274.04 217.41
  A 0.36 0.36 0.0 0 0 273.95 216.82
  L 273.73 216.71
  Q 273.10 216.40 272.58 216.87
  Q 269.55 219.57 266.55 222.11
  Q 266.16 222.43 263.21 225.63
  Q 260.85 228.19 257.32 228.74
  Q 255.80 228.46 254.38 227.24
  L 271.12 213.66
  A 0.59 0.59 0.0 0 0 271.18 212.81
  L 270.95 212.56
  Q 270.66 212.24 270.32 212.49
  Q 261.21 218.98 253.18 226.55
  Q 251.31 225.46 250.75 223.57
  Q 258.35 215.63 267.70 209.51
  A 0.38 0.37 -37.2 0 0 267.78 208.94
  L 267.55 208.68
  A 0.85 0.84 -38.0 0 0 266.45 208.55
  Q 257.97 214.25 251.12 221.31
  C 250.63 221.81 250.59 222.35 250.54 223.03
  Q 250.37 221.72 250.21 220.42
  C 249.94 218.13 250.97 216.03 251.91 214.02
  Q 252.19 213.44 251.55 213.50
  L 249.33 213.70
  Q 253.46 212.75 256.39 210.20
  C 258.83 208.08 260.53 206.98 262.85 205.45
  A 1.35 1.34 80.5 0 0 263.39 204.69
  L 263.77 203.28
  Q 263.87 204.46 264.31 204.25
  Q 273.10 200.04 282.76 198.80
  Q 285.54 198.44 288.26 198.07
  Q 289.63 197.91 290.72 197.41
  Q 295.17 197.98 298.84 196.59
  Z"
/>
<path fill="#46292d" d="
  M 250.75 223.57
  Q 250.49 223.21 250.54 223.03
  C 250.59 222.35 250.63 221.81 251.12 221.31
  Q 257.97 214.25 266.45 208.55
  A 0.85 0.84 -38.0 0 1 267.55 208.68
  L 267.78 208.94
  A 0.38 0.37 -37.2 0 1 267.70 209.51
  Q 258.35 215.63 250.75 223.57
  Z"
/>
<circle fill="#efdcd6" cx="308.97" cy="213.36" r="3.26"/>
<path fill="#46292d" d="
  M 254.38 227.24
  Q 253.73 227.83 253.18 226.55
  Q 261.21 218.98 270.32 212.49
  Q 270.66 212.24 270.95 212.56
  L 271.18 212.81
  A 0.59 0.59 0.0 0 1 271.12 213.66
  L 254.38 227.24
  Z"
/>
<path fill="#efdcd6" d="
  M 399.24 218.60
  C 399.49 218.67 399.76 218.93 399.84 219.21
  Q 402.70 228.34 412.76 228.15
  Q 421.79 227.97 437.41 228.33
  Q 437.56 253.05 437.49 277.75
  Q 437.49 279.06 438.39 283.50
  Q 438.49 283.99 438.31 284.45
  Q 437.55 286.48 437.54 288.00
  Q 437.50 300.53 437.45 314.00
  C 437.43 318.33 435.75 322.53 430.92 322.88
  Q 426.46 323.20 421.27 323.21
  Q 379.41 323.33 351.58 323.17
  Q 347.15 323.14 344.62 319.40
  Q 343.28 317.41 343.23 311.57
  Q 343.00 281.61 342.97 254.31
  C 342.96 246.55 343.54 238.97 343.15 231.00
  C 343.01 227.88 343.14 222.90 345.10 220.56
  Q 347.50 217.71 351.33 217.64
  Q 364.47 217.40 394.44 217.58
  C 396.28 217.59 397.52 218.25 399.24 218.60
  Z
  M 360.70 242.43
  Q 361.55 244.24 363.29 245.02
  A 0.98 0.98 0.0 0 0 364.20 244.96
  Q 366.59 243.44 367.97 241.34
  Q 369.95 238.36 366.85 240.14
  L 364.16 241.70
  A 1.47 1.47 0.0 0 1 362.97 241.81
  L 361.66 241.36
  Q 359.91 240.76 360.70 242.43
  Z
  M 412.62 242.29
  A 0.70 0.70 0.0 0 0 411.92 241.59
  L 379.04 241.59
  A 0.70 0.70 0.0 0 0 378.34 242.29
  L 378.34 242.31
  A 0.70 0.70 0.0 0 0 379.04 243.01
  L 411.92 243.01
  A 0.70 0.70 0.0 0 0 412.62 242.31
  L 412.62 242.29
  Z
  M 362.96 272.75
  Q 363.29 273.61 364.03 274.03
  A 2.21 2.21 0.0 0 0 366.15 274.07
  Q 369.66 272.22 368.79 268.50
  Q 368.42 266.90 367.06 266.51
  Q 364.73 265.83 366.12 267.83
  C 367.86 270.34 366.66 271.91 363.45 272.02
  A 0.54 0.54 0.0 0 0 362.96 272.75
  Z
  M 412.57 269.69
  A 0.70 0.70 0.0 0 0 411.87 268.99
  L 379.09 268.99
  A 0.70 0.70 0.0 0 0 378.39 269.69
  L 378.39 269.71
  A 0.70 0.70 0.0 0 0 379.09 270.41
  L 411.87 270.41
  A 0.70 0.70 0.0 0 0 412.57 269.71
  L 412.57 269.69
  Z
  M 369.0432 299.8099
  A 4.59 4.25 20.0 0 0 366.1836 294.2463
  A 4.59 4.25 20.0 0 0 360.4168 296.6701
  A 4.59 4.25 20.0 0 0 363.2764 302.2337
  A 4.59 4.25 20.0 0 0 369.0432 299.8099
  Z
  M 412.5499 297.4802
  A 0.63 0.63 0.0 0 0 411.9188 296.8513
  L 378.9789 296.9087
  A 0.63 0.63 0.0 0 0 378.3500 297.5398
  L 378.3501 297.5798
  A 0.63 0.63 0.0 0 0 378.9812 298.2087
  L 411.9211 298.1513
  A 0.63 0.63 0.0 0 0 412.5500 297.5202
  L 412.5499 297.4802
  Z"
/>
<path fill="#46292d" d="
  M 325.26 223.71
  L 324.90 224.78
  Q 323.23 225.06 321.50 225.04
  Q 309.27 224.93 297.83 221.70
  A 0.37 0.36 -76.6 0 1 297.57 221.27
  L 297.65 220.91
  Q 297.81 220.10 298.62 220.29
  Q 311.58 223.27 325.26 223.71
  Z"
/>
<path fill="#46292d" d="
  M 330.17 367.48
  Q 329.43 367.91 328.71 367.48
  Q 327.32 355.71 326.03 349.74
  Q 322.93 335.41 319.96 321.52
  Q 317.87 311.72 317.19 305.87
  Q 316.25 297.82 316.12 290.03
  Q 315.81 270.86 315.84 251.28
  Q 315.84 249.50 316.07 247.83
  Q 316.17 247.16 315.51 247.01
  C 304.80 244.52 294.93 240.91 286.36 234.03
  A 1.32 1.32 0.0 0 0 284.75 234.01
  Q 270.22 244.98 252.55 246.35
  Q 252.56 246.15 252.57 245.96
  Q 252.84 245.01 253.88 244.91
  Q 270.85 243.28 284.26 232.83
  A 1.05 1.04 70.9 0 0 284.67 231.98
  L 284.58 221.63
  A 0.67 0.66 -3.8 0 1 285.17 220.96
  L 285.55 220.91
  A 0.39 0.39 0.0 0 1 285.98 221.28
  L 286.31 231.88
  Q 286.33 232.38 286.71 232.69
  C 298.38 242.24 313.63 246.76 328.62 247.16
  A 0.42 0.42 0.0 0 1 328.97 247.78
  L 328.81 248.06
  Q 328.48 248.68 327.78 248.59
  Q 322.23 247.90 317.63 247.62
  Q 317.13 247.59 317.12 248.09
  Q 316.70 273.50 317.52 295.50
  Q 317.87 305.07 319.58 312.98
  Q 324.09 333.94 328.83 356.80
  C 329.55 360.29 329.88 363.94 330.17 367.48
  Z"
/>
<path fill="#ffffff" d="
  M 93.11 282.33
  C 89.75 275.27 86.31 268.39 84.45 260.70
  C 83.14 255.30 83.69 249.10 87.83 245.06
  C 92.35 240.65 98.25 241.12 103.90 243.39
  C 108.89 245.39 112.92 247.72 117.60 250.57
  Q 118.24 250.96 118.64 251.56
  Q 119.27 252.48 120.10 253.17
  Q 120.81 253.76 120.83 252.84
  Q 120.84 251.98 120.51 251.13
  Q 120.37 250.76 120.43 250.37
  Q 121.40 244.58 122.28 238.55
  Q 123.56 229.89 131.23 228.95
  C 136.77 228.27 144.96 233.82 148.68 237.42
  Q 149.06 237.79 148.57 237.97
  Q 148.45 238.02 148.40 238.16
  Q 148.37 238.26 148.27 238.20
  C 143.22 234.85 129.77 224.70 125.56 234.58
  Q 120.73 245.95 124.12 256.42
  Q 124.60 257.91 125.69 258.92
  Q 131.42 264.25 136.48 273.38
  Q 139.43 278.70 138.30 283.22
  Q 138.18 283.67 137.83 283.97
  C 133.98 287.24 129.30 280.43 127.78 277.50
  Q 124.42 271.00 123.55 263.28
  Q 122.92 257.66 118.06 254.11
  Q 111.03 248.97 105.62 245.63
  Q 103.17 244.13 98.81 243.42
  C 88.18 241.70 84.17 252.34 86.55 260.85
  Q 90.22 273.97 98.44 284.73
  Q 98.92 285.36 99.07 286.12
  A 1.17 1.17 0.0 0 1 97.49 287.43
  C 95.09 286.46 93.23 284.60 90.59 284.21
  Q 83.80 283.20 78.10 282.51
  C 73.43 281.94 67.97 284.20 63.52 285.80
  Q 59.48 287.25 55.40 289.55
  Q 46.57 294.52 37.90 302.04
  Q 36.66 303.12 36.63 301.48
  Q 36.61 300.58 37.39 300.09
  Q 38.15 299.61 38.54 299.28
  Q 49.99 289.63 63.80 284.00
  C 69.25 281.78 74.85 281.06 80.50 280.60
  Q 85.87 280.16 92.74 282.73
  Q 93.43 282.99 93.11 282.33
  Z
  M 125.29 263.88
  C 126.58 269.89 129.12 278.74 134.00 282.61
  A 1.63 1.63 0.0 0 0 136.65 281.30
  C 136.50 273.74 130.73 267.32 125.61 262.24
  A 0.28 0.28 0.0 0 0 125.13 262.43
  Q 125.14 263.15 125.29 263.88
  Z"
/>
<path fill="#e14141" d="
  M 328.71 367.48
  L 304.07 367.56
  Q 299.22 344.72 293.99 321.50
  Q 290.77 307.20 289.01 285.74
  Q 289.34 282.84 288.79 277.00
  Q 287.98 268.24 287.33 258.69
  Q 287.17 256.44 286.11 258.40
  Q 285.76 259.03 285.90 260.50
  Q 286.77 270.25 287.77 280.00
  C 287.94 281.68 287.71 283.98 288.21 285.97
  Q 287.63 287.82 286.77 289.61
  Q 282.12 299.26 278.94 309.51
  Q 274.92 322.48 277.13 338.50
  Q 278.16 345.94 277.57 367.51
  L 242.55 367.45
  Q 241.91 365.60 242.29 363.80
  Q 240.55 329.34 240.47 318.00
  Q 240.31 295.77 246.48 270.09
  L 252.55 246.35
  Q 270.22 244.98 284.75 234.01
  A 1.32 1.32 0.0 0 1 286.36 234.03
  C 294.93 240.91 304.80 244.52 315.51 247.01
  Q 316.17 247.16 316.07 247.83
  Q 315.84 249.50 315.84 251.28
  Q 315.81 270.86 316.12 290.03
  Q 316.25 297.82 317.19 305.87
  Q 317.87 311.72 319.96 321.52
  Q 322.93 335.41 326.03 349.74
  Q 327.32 355.71 328.71 367.48
  Z"
/>
<path fill="#ff2603" d="
  M 186.24 266.99
  Q 184.48 268.47 182.14 270.64
  Q 176.81 275.59 169.50 275.72
  Q 160.25 275.89 153.45 269.18
  Q 146.76 261.25 148.70 250.99
  C 149.89 244.69 155.03 238.63 160.83 236.29
  Q 172.52 231.59 182.37 239.70
  C 190.50 246.39 191.41 257.70 186.24 266.99
  Z
  M 159.46 255.46
  A 0.29 0.29 0.0 0 0 159.75 255.72
  L 175.10 255.81
  A 0.29 0.29 0.0 0 1 175.30 256.30
  L 169.31 262.36
  A 0.29 0.29 0.0 0 0 169.28 262.73
  L 169.72 263.36
  A 0.29 0.29 0.0 0 0 170.16 263.40
  L 178.29 255.32
  A 0.29 0.29 0.0 0 0 178.29 254.90
  L 170.37 246.99
  A 0.29 0.29 0.0 0 0 169.98 246.98
  L 169.42 247.48
  A 0.29 0.29 0.0 0 0 169.40 247.90
  L 175.09 253.79
  A 0.29 0.29 0.0 0 1 174.88 254.28
  L 159.65 254.29
  A 0.29 0.29 0.0 0 0 159.37 254.61
  L 159.46 255.46
  Z"
/>
<rect fill="#0e47c2" x="378.34" y="241.59" width="34.28" height="1.42" rx="0.70"/>
<path fill="#000000" d="
  M 159.46 255.46
  L 159.37 254.61
  A 0.29 0.29 0.0 0 1 159.65 254.29
  L 174.88 254.28
  A 0.29 0.29 0.0 0 0 175.09 253.79
  L 169.40 247.90
  A 0.29 0.29 0.0 0 1 169.42 247.48
  L 169.98 246.98
  A 0.29 0.29 0.0 0 1 170.37 246.99
  L 178.29 254.90
  A 0.29 0.29 0.0 0 1 178.29 255.32
  L 170.16 263.40
  A 0.29 0.29 0.0 0 1 169.72 263.36
  L 169.28 262.73
  A 0.29 0.29 0.0 0 1 169.31 262.36
  L 175.30 256.30
  A 0.29 0.29 0.0 0 0 175.10 255.81
  L 159.75 255.72
  A 0.29 0.29 0.0 0 1 159.46 255.46
  Z"
/>
<path fill="#ffffff" d="
  M 449.96 280.87
  Q 444.81 283.41 439.27 284.13
  Q 439.00 284.16 439.09 283.91
  L 439.54 282.65
  Q 439.63 282.39 439.90 282.33
  C 443.49 281.48 449.64 280.29 450.95 276.44
  Q 453.50 268.99 459.26 261.72
  C 461.44 258.96 464.49 256.92 467.21 254.65
  C 469.38 252.84 475.21 250.50 477.47 253.48
  C 480.06 256.90 474.00 265.00 471.86 266.85
  C 467.69 270.45 462.81 274.96 457.31 276.42
  Q 454.59 277.14 452.93 279.45
  C 451.21 281.84 455.56 285.02 457.31 285.71
  Q 461.49 287.36 466.63 286.76
  Q 475.72 285.70 486.06 285.66
  Q 490.27 285.65 492.38 289.16
  Q 495.40 294.18 498.82 299.68
  Q 503.54 307.29 512.26 312.42
  A 0.38 0.38 0.0 0 1 512.31 313.04
  L 512.03 313.27
  Q 511.36 313.81 510.62 313.38
  Q 501.03 307.69 496.17 298.83
  C 492.78 292.65 490.32 286.04 481.56 286.87
  C 473.77 287.62 466.82 288.39 458.63 287.53
  C 454.11 287.06 451.88 285.43 450.58 281.14
  A 0.45 0.44 67.9 0 0 449.96 280.87
  Z
  M 472.27 253.56
  C 467.93 254.43 464.88 258.02 461.92 261.02
  Q 455.46 267.55 453.23 276.13
  A 0.45 0.45 0.0 0 0 453.72 276.69
  Q 455.59 276.48 456.87 275.65
  Q 462.64 271.93 467.73 268.47
  C 472.05 265.53 476.33 261.60 476.09 255.84
  C 476.00 253.83 473.92 253.22 472.27 253.56
  Z"
/>
<path fill="#46292d" d="
  M 289.01 285.74
  Q 288.68 285.62 288.21 285.97
  C 287.71 283.98 287.94 281.68 287.77 280.00
  Q 286.77 270.25 285.90 260.50
  Q 285.76 259.03 286.11 258.40
  Q 287.17 256.44 287.33 258.69
  Q 287.98 268.24 288.79 277.00
  Q 289.34 282.84 289.01 285.74
  Z"
/>
<path fill="#61ccff" d="
  M 186.24 266.99
  Q 212.35 267.38 238.00 267.22
  Q 241.16 267.20 246.48 270.09
  Q 240.31 295.77 240.47 318.00
  Q 240.55 329.34 242.29 363.80
  L 236.77 365.27
  L 227.24 365.19
  L 183.11 365.17
  Q 185.43 357.65 183.03 350.25
  Q 182.89 349.84 183.25 349.58
  Q 183.38 349.49 183.55 349.43
  L 233.36 349.38
  Q 237.25 349.38 237.25 345.50
  L 237.26 286.22
  A 3.30 3.29 -90.0 0 0 233.97 282.92
  L 174.16 282.93
  A 3.41 3.40 -90.0 0 0 170.76 286.34
  L 170.76 295.20
  Q 170.77 295.77 170.20 295.83
  C 166.96 296.19 164.72 297.86 165.37 301.43
  Q 166.04 305.11 169.76 305.18
  A 1.01 1.01 0.0 0 1 170.76 306.20
  L 170.74 326.28
  Q 170.74 326.92 170.12 327.12
  C 169.48 327.33 168.74 327.15 168.03 327.42
  C 164.32 328.81 164.55 333.15 167.23 335.66
  Q 161.57 334.95 159.75 335.32
  Q 157.41 335.81 155.05 335.95
  Q 154.96 309.35 155.04 283.13
  C 155.05 280.90 155.49 278.88 156.08 276.78
  Q 156.23 276.26 155.84 275.89
  Q 154.02 274.14 152.69 271.38
  Q 152.35 270.69 152.98 271.12
  Q 153.69 271.61 154.56 271.57
  Q 155.31 271.54 154.85 270.95
  L 153.45 269.18
  Q 160.25 275.89 169.50 275.72
  Q 176.81 275.59 182.14 270.64
  Q 184.48 268.47 186.24 266.99
  Z"
/>
<rect fill="#0e47c2" x="378.39" y="268.99" width="34.18" height="1.42" rx="0.70"/>
<path fill="#000000" d="
  M 183.55 349.43
  Q 182.55 348.80 182.51 348.03
  L 234.10 347.95
  A 1.69 1.69 0.0 0 0 235.79 346.26
  L 235.78 286.45
  Q 235.78 284.36 233.69 284.36
  L 174.06 284.35
  A 1.84 1.83 -90.0 0 0 172.23 286.19
  L 172.21 295.04
  Q 172.21 295.84 173.01 295.92
  C 179.98 296.60 178.74 305.50 173.08 305.20
  A 0.82 0.82 0.0 0 0 172.21 306.03
  L 172.25 326.50
  A 0.72 0.72 0.0 0 0 173.00 327.22
  Q 177.02 327.07 177.56 331.03
  Q 178.24 336.06 171.47 336.88
  L 167.23 335.66
  C 164.55 333.15 164.32 328.81 168.03 327.42
  C 168.74 327.15 169.48 327.33 170.12 327.12
  Q 170.74 326.92 170.74 326.28
  L 170.76 306.20
  A 1.01 1.01 0.0 0 0 169.76 305.18
  Q 166.04 305.11 165.37 301.43
  C 164.72 297.86 166.96 296.19 170.20 295.83
  Q 170.77 295.77 170.76 295.20
  L 170.76 286.34
  A 3.41 3.40 -90.0 0 1 174.16 282.93
  L 233.97 282.92
  A 3.30 3.29 -90.0 0 1 237.26 286.22
  L 237.25 345.50
  Q 237.25 349.38 233.36 349.38
  L 183.55 349.43
  Z"
/>
<path fill="#61ccff" d="
  M 182.51 348.03
  Q 178.44 341.58 171.47 336.88
  Q 178.24 336.06 177.56 331.03
  Q 177.02 327.07 173.00 327.22
  A 0.72 0.72 0.0 0 1 172.25 326.50
  L 172.21 306.03
  A 0.82 0.82 0.0 0 1 173.08 305.20
  C 178.74 305.50 179.98 296.60 173.01 295.92
  Q 172.21 295.84 172.21 295.04
  L 172.23 286.19
  A 1.84 1.83 90.0 0 1 174.06 284.35
  L 233.69 284.36
  Q 235.78 284.36 235.78 286.45
  L 235.79 346.26
  A 1.69 1.69 0.0 0 1 234.10 347.95
  L 182.51 348.03
  Z
  M 223.04 316.12
  A 18.99 18.99 0.0 0 0 204.05 297.13
  A 18.99 18.99 0.0 0 0 185.06 316.12
  A 18.99 18.99 0.0 0 0 204.05 335.11
  A 18.99 18.99 0.0 0 0 223.04 316.12
  Z"
/>
<ellipse fill="#efdcd6" cx="0.00" cy="0.00" transform="translate(364.56,297.39) rotate(109.3)" rx="2.45" ry="2.16"/>
<rect fill="#0e47c2" x="-17.10" y="-0.65" transform="translate(395.45,297.53) rotate(-0.1)" width="34.20" height="1.30" rx="0.63"/>
<path fill="#beeaff" d="
  M 223.04 316.12
  A 18.99 18.99 0.0 0 1 204.05 335.11
  A 18.99 18.99 0.0 0 1 185.06 316.12
  A 18.99 18.99 0.0 0 1 204.05 297.13
  A 18.99 18.99 0.0 0 1 223.04 316.12
  Z
  M 210.43 316.17
  A 6.39 6.39 0.0 0 0 204.04 309.78
  A 6.39 6.39 0.0 0 0 197.65 316.17
  A 6.39 6.39 0.0 0 0 204.04 322.56
  A 6.39 6.39 0.0 0 0 210.43 316.17
  Z"
/>
<path fill="#ffffff" d="
  M 126.32 303.86
  L 98.30 315.25
  Q 94.17 311.70 89.42 308.60
  Q 87.49 307.33 89.67 306.56
  Q 89.99 306.45 91.50 306.40
  Q 102.04 306.07 112.56 305.29
  Q 113.97 305.18 119.40 304.32
  Q 122.80 303.79 126.32 303.86
  Z"
/>
<path fill="#46292d" d="
  M 126.32 303.86
  Q 126.79 303.54 127.33 303.79
  A 0.87 0.87 0.0 0 1 127.46 305.29
  Q 126.01 306.31 125.78 306.01
  L 101.25 315.64
  A 0.87 0.86 68.1 0 0 100.77 316.78
  C 101.48 318.52 103.60 320.77 101.76 322.71
  L 100.45 321.41
  Q 99.98 320.20 99.12 319.38
  Q 99.21 317.44 98.30 315.25
  L 126.32 303.86
  Z"
/>
<path fill="#ffffff" d="
  M 125.78 306.01
  L 107.09 328.37
  A 1.78 1.78 0.0 0 1 105.28 328.95
  Q 104.16 328.66 103.56 327.11
  Q 102.70 324.93 101.76 322.71
  C 103.60 320.77 101.48 318.52 100.77 316.78
  A 0.87 0.86 68.1 0 1 101.25 315.64
  L 125.78 306.01
  Z"
/>
<circle fill="#000000" cx="204.04" cy="316.17" r="6.39"/>
<path fill="#ffffff" d="
  M 99.12 319.38
  Q 99.98 320.20 100.45 321.41
  C 98.50 322.10 97.75 324.93 94.95 323.98
  A 0.61 0.60 -76.4 0 1 94.55 323.31
  Q 95.16 319.75 99.12 319.38
  Z"
/>
<path fill="#0e47c2" d="
  M 167.23 335.66
  L 171.47 336.88
  Q 178.44 341.58 182.51 348.03
  Q 182.55 348.80 183.55 349.43
  Q 183.38 349.49 183.25 349.58
  Q 182.89 349.84 183.03 350.25
  Q 185.43 357.65 183.11 365.17
  Q 179.65 373.83 172.23 377.71
  C 158.91 384.66 142.45 377.03 139.66 362.00
  C 137.90 352.50 142.06 342.27 151.33 337.78
  Q 153.25 336.85 155.05 335.95
  Q 157.41 335.81 159.75 335.32
  Q 161.57 334.95 167.23 335.66
  Z
  M 175.30 357.75
  A 13.57 13.57 0.0 0 0 161.73 344.18
  A 13.57 13.57 0.0 0 0 148.16 357.75
  A 13.57 13.57 0.0 0 0 161.73 371.32
  A 13.57 13.57 0.0 0 0 175.30 357.75
  Z"
/>
<path fill="#ff2603" d="
  M 474.42 356.25
  A 0.21 0.21 0.0 0 0 474.29 355.87
  L 453.81 356.46
  A 0.85 0.85 0.0 0 1 453.06 355.17
  L 463.41 338.15
  A 0.26 0.25 -76.3 0 0 463.18 337.76
  L 454.19 338.46
  Q 453.91 338.48 453.91 338.20
  L 453.91 337.26
  Q 453.91 337.04 454.13 337.00
  Q 459.81 335.91 465.55 335.98
  A 0.58 0.57 15.8 0 1 466.04 336.85
  L 455.39 354.24
  A 0.45 0.45 0.0 0 0 455.80 354.93
  L 477.67 353.90
  A 0.75 0.73 -18.0 0 1 478.32 354.22
  Q 478.59 354.61 478.49 355.02
  Q 478.41 355.37 478.13 355.57
  L 463.39 365.85
  Q 462.90 366.19 463.35 366.59
  L 476.98 378.49
  A 0.47 0.47 0.0 0 1 476.92 379.23
  L 476.60 379.45
  Q 476.09 379.77 475.64 379.38
  L 461.07 366.69
  Q 460.40 366.11 461.13 365.60
  L 474.42 356.25
  Z"
/>
<path fill="#5c90ff" d="
  M 175.30 357.75
  A 13.57 13.57 0.0 0 1 161.73 371.32
  A 13.57 13.57 0.0 0 1 148.16 357.75
  A 13.57 13.57 0.0 0 1 161.73 344.18
  A 13.57 13.57 0.0 0 1 175.30 357.75
  Z
  M 162.74 357.79
  A 0.27 0.27 0.0 0 1 162.73 357.48
  L 167.00 350.74
  A 0.27 0.27 0.0 0 0 166.97 350.41
  L 166.46 349.86
  A 0.27 0.27 0.0 0 0 166.04 349.89
  L 160.81 357.67
  A 0.27 0.27 0.0 0 0 160.83 358.00
  L 165.10 362.87
  A 0.27 0.27 0.0 0 0 165.54 362.82
  L 165.87 362.22
  A 0.27 0.27 0.0 0 0 165.85 361.93
  L 162.74 357.79
  Z"
/>
<path fill="#000000" d="
  M 162.74 357.79
  L 165.85 361.93
  A 0.27 0.27 0.0 0 1 165.87 362.22
  L 165.54 362.82
  A 0.27 0.27 0.0 0 1 165.10 362.87
  L 160.83 358.00
  A 0.27 0.27 0.0 0 1 160.81 357.67
  L 166.04 349.89
  A 0.27 0.27 0.0 0 1 166.46 349.86
  L 166.97 350.41
  A 0.27 0.27 0.0 0 1 167.00 350.74
  L 162.73 357.48
  A 0.27 0.27 0.0 0 0 162.74 357.79
  Z"
/>
<path fill="#000000" d="
  M 227.24 365.19
  L 236.77 365.27
  Q 237.32 369.35 235.13 371.13
  Q 231.10 374.41 227.89 369.87
  Q 227.01 368.64 227.24 365.19
  Z"
/>
<path fill="#efbd96" d="
  M 242.55 367.45
  L 277.57 367.51
  L 276.27 384.89
  Q 268.83 385.43 265.33 391.94
  Q 264.89 392.76 263.96 392.76
  L 255.27 392.73
  Q 254.65 392.73 254.80 392.13
  Q 255.61 388.78 257.03 384.98
  C 261.07 374.14 248.60 375.63 242.94 376.14
  L 242.55 367.45
  Z"
/>
<path fill="#efbd96" d="
  M 339.55 367.42
  L 338.64 385.29
  Q 331.31 385.54 327.78 392.75
  Q 327.68 392.95 327.45 392.95
  L 317.44 392.99
  A 0.14 0.13 7.6 0 1 317.30 392.82
  Q 318.30 389.02 319.65 385.47
  C 321.08 381.75 320.75 377.14 316.22 376.30
  Q 313.01 375.70 304.88 376.31
  L 304.07 367.56
  L 328.71 367.48
  Q 329.43 367.91 330.17 367.48
  L 339.55 367.42
  Z"
/>
<path fill="#0e47c2" d="
  M 276.27 384.89
  L 272.31 404.20
  Q 250.71 404.26 229.25 404.21
  Q 226.58 404.20 224.24 403.57
  Q 229.18 398.44 235.43 394.42
  Q 236.70 393.60 238.58 391.31
  Q 240.16 393.85 242.78 394.85
  Q 243.41 395.09 243.69 394.47
  L 243.80 394.22
  A 0.43 0.43 0.0 0 0 243.58 393.65
  Q 241.19 392.63 239.36 390.53
  C 243.13 386.07 243.16 382.01 242.94 376.14
  C 248.60 375.63 261.07 374.14 257.03 384.98
  Q 255.61 388.78 254.80 392.13
  Q 254.65 392.73 255.27 392.73
  L 263.96 392.76
  Q 264.89 392.76 265.33 391.94
  Q 268.83 385.43 276.27 384.89
  Z"
/>
<path fill="#0e47c2" d="
  M 338.64 385.29
  L 334.76 404.19
  L 286.26 403.92
  Q 290.89 398.78 296.39 395.37
  C 298.19 394.26 299.32 393.03 300.62 391.50
  L 305.32 394.81
  A 0.53 0.53 0.0 0 0 306.14 394.52
  L 306.23 394.23
  A 0.60 0.59 24.5 0 0 305.98 393.57
  L 301.54 390.65
  C 305.20 386.64 305.92 381.57 304.88 376.31
  Q 313.01 375.70 316.22 376.30
  C 320.75 377.14 321.08 381.75 319.65 385.47
  Q 318.30 389.02 317.30 392.82
  A 0.14 0.13 7.6 0 0 317.44 392.99
  L 327.45 392.95
  Q 327.68 392.95 327.78 392.75
  Q 331.31 385.54 338.64 385.29
  Z"
/>
<path fill="#000000" d="
  M 239.36 390.53
  Q 241.19 392.63 243.58 393.65
  A 0.43 0.43 0.0 0 1 243.80 394.22
  L 243.69 394.47
  Q 243.41 395.09 242.78 394.85
  Q 240.16 393.85 238.58 391.31
  Q 238.59 390.69 239.36 390.53
  Z"
/>
<path fill="#000000" d="
  M 301.54 390.65
  L 305.98 393.57
  A 0.60 0.59 24.5 0 1 306.23 394.23
  L 306.14 394.52
  A 0.53 0.53 0.0 0 1 305.32 394.81
  L 300.62 391.50
  Q 300.58 390.55 301.54 390.65
  Z"
/>
<path fill="#000000" d="
  M 224.24 403.57
  Q 226.58 404.20 229.25 404.21
  Q 250.71 404.26 272.31 404.20
  L 270.86 409.16
  Q 270.63 409.96 269.81 409.96
  L 223.52 409.91
  A 0.68 0.67 0.0 0 1 222.84 409.24
  Q 222.85 406.30 224.24 403.57
  Z"
/>
<path fill="#000000" d="
  M 286.26 403.92
  L 334.76 404.19
  L 333.10 409.36
  A 0.84 0.84 0.0 0 1 332.30 409.94
  L 285.79 409.95
  Q 285.34 409.95 285.32 409.49
  Q 285.16 406.38 286.26 403.92
  Z"
/>
</svg>
