<svg id="Layer_2_00000173871583462469048340000007467697969227752080_" enable-background="new 0 0 512 512" viewBox="0 0 512 512" xmlns="http://www.w3.org/2000/svg"><g id="Icon"><g id="_23"><path d="m175.7 233.8h-102.2c-32.3 0-58.4-26.1-58.4-58.4v-102.3c0-32.3 26.2-58.4 58.4-58.4h102.2c32.3 0 58.4 26.2 58.4 58.4v102.2c0 32.3-26.2 58.5-58.4 58.5zm321.2-58.5v-102.2c0-32.3-26.1-58.4-58.4-58.4h-102.2c-32.3 0-58.4 26.2-58.4 58.4v102.2c0 32.3 26.1 58.4 58.4 58.4h102.2c32.3.1 58.4-26.1 58.4-58.4zm-262.8 263.6v-102.2c0-32.3-26.1-58.4-58.4-58.4h-102.2c-32.3 0-58.4 26.2-58.4 58.4v102.2c0 32.3 26.2 58.4 58.4 58.4h102.2c32.2 0 58.4-26.2 58.4-58.4zm262.8 0v-102.2c0-32.3-26.1-58.4-58.4-58.4h-102.2c-32.3 0-58.4 26.2-58.4 58.4v102.2c0 32.3 26.1 58.4 58.4 58.4h102.2c32.3 0 58.4-26.2 58.4-58.4z"/></g></g></svg>