<?xml version="1.0" encoding="UTF-8" standalone="no"?>
<!DOCTYPE svg PUBLIC "-//W3C//DTD SVG 1.1//EN" "http://www.w3.org/Graphics/SVG/1.1/DTD/svg11.dtd">
<svg xmlns="http://www.w3.org/2000/svg" version="1.1" viewBox="0.00 0.00 686.00 505.00">
<path fill="#b40000" d="
  M 217.22 159.29
  Q 213.28 176.72 209.85 190.99
  Q 201.87 224.20 191.08 259.10
  C 186.66 273.41 182.97 285.93 176.99 298.18
  C 172.57 307.25 167.80 314.06 156.98 314.16
  Q 156.47 314.17 156.58 313.67
  Q 159.88 298.41 164.73 283.15
  Q 186.71 213.99 206.89 143.57
  C 207.71 140.72 207.95 137.66 207.86 134.73
  A 0.67 0.66 -1.7 0 0 207.17 134.09
  Q 202.49 134.26 198.70 137.43
  C 190.15 144.57 184.92 156.68 183.34 167.24
  Q 182.26 174.43 184.15 183.14
  Q 184.26 183.66 183.73 183.66
  Q 178.71 183.72 174.08 182.42
  C 167.09 180.47 163.75 173.70 164.02 166.69
  Q 164.35 158.11 168.98 150.41
  Q 178.91 133.89 196.82 124.47
  C 208.52 118.31 222.31 116.34 230.20 129.49
  C 234.64 136.89 236.63 144.17 238.62 153.01
  Q 241.39 165.29 243.40 181.00
  Q 248.78 222.93 253.82 258.06
  Q 254.03 259.53 254.19 258.05
  Q 254.89 251.70 256.39 245.45
  Q 264.37 212.12 274.53 175.08
  Q 279.19 158.06 284.59 142.20
  C 288.57 130.48 294.16 119.81 308.58 119.71
  Q 309.22 119.71 309.03 120.32
  C 304.49 135.16 299.72 149.38 295.42 163.81
  Q 286.85 192.54 279.20 222.01
  Q 271.89 250.17 266.83 276.82
  Q 263.07 296.62 262.74 313.62
  Q 262.73 314.16 262.19 314.15
  C 253.09 313.99 245.22 311.57 241.21 302.62
  Q 239.06 297.82 237.91 291.75
  Q 235.38 278.43 233.17 265.24
  Q 224.96 216.30 218.06 170.06
  Q 217.49 166.18 217.38 159.31
  Q 217.36 158.65 217.22 159.29
  Z"
/>
<path fill="#b40000" d="
  M 457.09 279.26
  C 446.44 293.10 430.74 304.75 413.00 304.43
  C 399.91 304.19 391.52 296.48 389.99 282.95
  Q 389.40 277.72 390.04 271.84
  A 0.15 0.14 -14.6 0 0 389.81 271.71
  Q 381.44 277.67 372.56 278.77
  Q 365.05 279.70 358.62 277.29
  Q 358.17 277.11 357.86 277.50
  Q 347.65 290.33 335.53 297.08
  Q 325.68 302.56 314.88 300.71
  Q 307.64 299.46 303.99 293.81
  Q 299.04 286.12 299.38 276.81
  Q 300.12 256.35 312.56 240.23
  C 317.86 233.36 325.75 227.64 334.67 231.30
  Q 335.18 231.51 335.27 230.97
  C 337.96 214.65 349.69 203.36 367.10 206.94
  Q 374.78 208.52 377.82 215.68
  C 384.62 231.69 374.57 253.73 364.65 267.13
  A 0.29 0.29 0.0 0 0 364.85 267.59
  Q 367.80 267.93 370.44 267.91
  C 379.04 267.85 387.25 262.59 391.70 255.67
  Q 393.80 252.40 394.84 248.42
  Q 398.19 235.66 403.01 225.06
  Q 403.31 224.39 402.58 224.30
  Q 398.93 223.87 395.12 222.53
  Q 394.66 222.36 394.66 221.88
  L 394.65 213.72
  Q 394.65 213.13 395.23 213.18
  Q 399.25 213.51 403.24 213.94
  Q 404.57 214.09 405.85 213.94
  Q 406.35 213.88 406.53 213.42
  Q 415.88 189.67 428.09 169.24
  C 431.88 162.89 444.85 142.00 454.64 150.86
  C 460.01 155.72 454.74 165.61 452.15 170.23
  Q 440.40 191.21 426.31 214.57
  A 0.23 0.23 0.0 0 0 426.50 214.92
  Q 447.61 215.44 468.33 213.42
  Q 468.61 213.39 468.61 213.67
  L 468.58 223.01
  A 0.31 0.31 0.0 0 1 468.30 223.32
  Q 443.69 225.82 422.63 226.34
  Q 422.14 226.36 421.95 226.82
  C 415.28 243.11 410.46 257.77 410.23 274.18
  C 410.12 282.15 411.62 290.98 422.05 290.01
  Q 430.89 289.19 438.31 283.86
  Q 448.36 276.63 456.69 264.13
  Q 459.14 260.47 461.12 255.34
  Q 471.89 227.50 496.81 211.47
  Q 506.30 205.37 517.73 204.50
  C 523.45 204.07 530.37 205.69 534.16 209.86
  C 539.57 215.79 537.83 228.11 534.83 234.41
  Q 530.36 243.82 521.94 250.51
  Q 503.20 265.43 479.16 269.16
  Q 478.52 269.26 478.47 269.90
  C 477.84 278.45 479.18 289.21 489.61 291.05
  C 499.16 292.75 508.78 289.27 517.05 283.69
  C 529.51 275.27 538.42 263.58 546.33 250.33
  A 0.28 0.28 0.0 0 1 546.72 250.24
  L 552.95 254.26
  Q 553.13 254.38 553.05 254.59
  Q 542.54 280.22 520.75 294.21
  C 508.95 301.78 495.79 305.41 482.21 303.41
  C 469.52 301.54 459.84 292.43 457.80 279.44
  Q 457.66 278.53 457.09 279.26
  Z
  M 520.61 217.28
  C 514.58 216.83 508.74 220.82 504.32 224.77
  C 494.16 233.86 486.84 246.02 480.91 258.29
  Q 480.69 258.74 481.15 258.55
  Q 498.22 251.23 509.98 240.87
  C 516.50 235.12 522.17 227.61 521.86 218.58
  A 1.35 1.35 0.0 0 0 520.61 217.28
  Z
  M 366.90 230.76
  C 367.28 227.02 367.63 218.64 362.71 218.00
  C 358.09 217.41 353.04 226.18 351.87 229.70
  C 348.64 239.44 351.56 251.47 355.40 260.86
  A 0.19 0.19 0.0 0 0 355.75 260.88
  Q 359.74 253.19 363.35 244.60
  Q 366.18 237.85 366.90 230.76
  Z
  M 334.15 238.40
  C 327.87 248.31 322.91 259.70 320.97 271.34
  C 319.93 277.59 320.35 289.59 330.39 285.32
  Q 333.74 283.90 336.99 281.01
  Q 342.52 276.10 348.17 271.00
  A 0.42 0.41 -47.1 0 0 348.15 270.37
  C 338.80 262.77 334.92 250.35 334.72 238.56
  Q 334.70 237.53 334.15 238.40
  Z"
/>
<path fill="#fe0000" d="
  M 275.45 340.72
  Q 272.82 340.19 269.61 340.35
  Q 260.83 340.78 253.98 340.76
  Q 252.16 340.76 250.63 339.56
  Q 250.25 339.27 249.77 339.22
  Q 247.72 339.02 245.53 339.22
  Q 245.48 339.23 245.44 339.18
  Q 245.37 339.06 245.35 338.92
  Q 245.34 338.84 245.42 338.82
  C 249.47 337.72 253.61 338.22 257.75 337.59
  Q 266.46 336.26 275.39 335.65
  Q 277.86 335.48 279.92 334.36
  Q 281.28 333.62 279.75 333.40
  L 276.76 332.97
  Q 275.75 332.82 276.76 332.69
  Q 280.16 332.23 283.74 333.01
  A 1.30 1.29 38.2 0 0 284.62 332.91
  Q 286.40 332.06 288.72 331.72
  Q 302.38 329.74 308.10 329.55
  Q 353.14 327.99 376.01 328.74
  C 383.18 328.97 390.67 328.94 397.81 329.44
  Q 402.26 329.76 406.76 330.09
  Q 411.02 330.40 416.21 330.51
  Q 421.01 330.61 425.64 330.78
  Q 436.53 331.17 443.94 332.30
  C 447.82 332.89 451.50 332.57 455.37 332.91
  C 489.26 335.86 523.24 339.02 556.75 343.53
  Q 568.34 345.09 579.94 347.01
  Q 581.93 347.34 582.32 348.28
  Q 582.80 349.45 582.32 350.81
  Q 582.15 351.30 581.62 351.30
  C 576.28 351.30 571.14 351.36 565.85 351.01
  C 562.03 350.75 558.24 350.80 554.41 350.59
  Q 548.61 350.28 542.01 350.65
  Q 528.79 351.39 510.71 349.98
  Q 508.36 349.80 505.98 350.08
  Q 503.82 350.33 501.50 350.21
  Q 493.89 349.84 486.73 349.20
  C 481.99 348.78 477.81 350.88 473.03 350.84
  C 470.94 350.82 467.69 351.14 465.92 350.05
  C 463.40 348.51 460.95 348.86 458.25 349.66
  C 456.29 350.24 454.56 349.81 452.76 349.09
  A 1.45 1.39 46.2 0 0 451.78 349.05
  Q 446.67 350.66 440.71 349.50
  Q 439.00 349.17 437.25 349.46
  C 434.97 349.84 432.98 348.71 430.65 348.65
  Q 423.46 348.48 417.55 348.76
  Q 412.74 348.99 407.97 348.96
  Q 402.78 348.92 398.40 349.20
  Q 394.22 349.46 390.49 349.14
  Q 385.89 348.74 381.57 349.23
  Q 377.87 349.66 374.78 349.25
  C 371.09 348.76 368.25 349.79 364.80 350.20
  C 360.12 350.75 355.55 349.61 350.43 350.06
  Q 347.39 350.33 344.08 350.47
  Q 332.35 350.98 320.94 351.55
  C 315.37 351.82 309.89 351.72 304.34 352.15
  C 291.27 353.16 275.38 353.09 260.75 353.60
  C 233.93 354.52 206.93 354.07 180.00 353.82
  Q 177.12 353.79 174.27 353.72
  Q 154.09 353.20 135.29 353.74
  Q 133.32 353.80 131.50 353.83
  Q 120.93 354.03 106.24 354.93
  Q 102.22 355.17 98.36 355.24
  Q 98.15 355.24 98.14 355.04
  L 98.13 355.03
  Q 98.11 354.79 98.35 354.76
  C 99.90 354.60 101.16 353.80 102.66 353.69
  Q 117.81 352.56 133.49 351.65
  Q 144.39 351.01 153.50 350.65
  Q 155.09 350.59 156.74 350.53
  Q 160.94 350.39 165.26 350.50
  Q 170.86 350.65 173.75 350.54
  Q 183.24 350.20 192.75 349.69
  Q 195.78 349.53 201.29 350.36
  C 202.27 350.51 203.17 350.23 204.13 350.20
  Q 215.55 349.92 225.73 349.41
  Q 227.61 349.31 234.77 349.54
  Q 239.32 349.68 245.61 348.37
  Q 247.94 347.88 249.74 346.83
  Q 251.64 345.72 249.44 345.80
  C 244.36 345.98 239.00 346.87 234.00 345.44
  Q 232.74 345.07 231.54 345.32
  C 229.33 345.77 227.15 345.03 224.89 345.03
  Q 220.48 345.04 216.18 344.95
  Q 215.84 344.94 215.83 344.60
  L 215.82 344.33
  Q 215.81 344.18 215.95 344.16
  C 222.35 343.37 228.60 344.18 234.91 343.69
  Q 246.02 342.84 258.43 342.64
  C 264.13 342.56 269.69 341.32 275.43 340.97
  Q 276.38 340.91 275.45 340.72
  Z"
/>
</svg>
